<?xml version="1.0" standalone="no"?>
<!DOCTYPE svg PUBLIC "-//W3C//DTD SVG 1.1//EN" "http://www.w3.org/Graphics/SVG/1.1/DTD/svg11.dtd" >
<svg>
<metadata>
Created by FontForge 20090622 at Wed Jun  5 15:58:27 2019
 By deploy user
Copyright (c) 2018, Andika Fez

mail me at andikafez@gmail.com if you have any issues about this product.

Thank You
Andika Fez
</metadata>
<defs>
<font id="DreamOnly" horiz-adv-x="3322" >
  <font-face 
    font-family="DreamOnly"
    font-weight="400"
    font-stretch="normal"
    units-per-em="1000"
    panose-1="2 0 5 3 0 0 0 0 0 0"
    ascent="800"
    descent="-200"
    x-height="482"
    cap-height="1815"
    bbox="-1117 -2830 3742.46 2269"
    underline-thickness="50"
    underline-position="-100"
    unicode-range="U+0020-U+20AC"
  />
<missing-glyph horiz-adv-x="500" 
d="M50 0v533h400v-533h-400zM100 50h300v433h-300v-433z" />
    <glyph glyph-name=".notdef" horiz-adv-x="500" 
d="M50 0v533h400v-533h-400zM100 50h300v433h-300v-433z" />
    <glyph glyph-name=".null" horiz-adv-x="0" 
 />
    <glyph glyph-name="nonmarkingreturn" horiz-adv-x="333" 
 />
    <glyph glyph-name="space" unicode=" " horiz-adv-x="2000" 
 />
    <glyph glyph-name="exclam" unicode="!" horiz-adv-x="233" 
d="M125 860q-24 0 -41 -17t-17 -41l-10 -694v-1q0 -24 17 -41t41 -17t41 17t17 40l10 694v2q0 24 -17 41t-41 17zM123 -25q-13 0 -28 -7q-7 -3 -14 -7.5t-10 -7.5l-3 -2q-12 -11 -12 -27v-2q-6 -9 -6 -19q-1 -25 3 -49q4 -25 13 -40t24 -20q19 -7 38 3q34 19 46 73
q11 50 -5 79q-6 11 -18 18.5t-23 7.5q-3 1 -5 0z" />
    <glyph glyph-name="quotedbl" unicode="&#x22;" horiz-adv-x="421" 
d="M110 816h-2h-4q-22 -2 -38 -18.5t-16 -39.5q0 -8 2 -15l31 -120q4 -19 20.5 -32.5t35.5 -13.5q24 0 41 17t17 41q0 9 -2 17l-30 120q-5 17 -21 30t-34 14zM285 816h-2h-4q-23 -2 -39 -18.5t-16 -39.5q0 -8 2 -15l31 -120q4 -19 20.5 -32.5t36.5 -13.5q24 0 41 17t17 41
q0 9 -2 17l-31 120q-4 17 -20 30t-34 14z" />
    <glyph glyph-name="numbersign" unicode="#" horiz-adv-x="753" 
d="M545 681q-3 0 -6 -1q-17 -2 -30.5 -13.5t-17.5 -28.5q-13 -28 -27.5 -86t-30.5 -91.5t-42 -37.5q-27 -3 -33.5 12.5t0.5 52.5l10 63q4 26 -12.5 46.5t-42.5 21.5q-22 1 -39.5 -13.5t-20.5 -36.5l-15 -103q-5 -33 -16.5 -47t-35.5 -17l-59 -6q-24 -2 -39.5 -20.5
t-13 -42.5t21.5 -39.5t43 -12.5q47 5 57.5 -4t5.5 -42q0 -35 -22.5 -46.5t-76.5 -17.5q-24 -2 -39.5 -21t-13 -43t21 -39t42.5 -12q15 0 25 -3.5t15.5 -12.5t8 -17t1.5 -24.5t-2.5 -27l-4.5 -32.5q-1 -3 -1 -5q-4 -24 10 -44t38.5 -24t44 11t22.5 39l11 74q6 50 18.5 67.5
t45.5 21.5q24 6 31.5 -19t3.5 -63l-8 -64q-4 -24 11 -43.5t39 -22.5t43.5 12t21.5 40q1 6 2 19q2 24 3 35t3.5 29t5 25.5l6.5 20t9 17.5l12.5 13t16 11l21 7.5t27 7t33.5 3.5q23 3 38 21t13.5 41t-19 39t-40.5 15h-4q-54 -7 -71 3.5t-13 42.5q0 15 6.5 26t14.5 17t25.5 10
t29 6t35.5 4q6 1 9 1q23 2 38.5 20t13.5 41.5t-19 39t-41 15.5q-2 0 -4 -1q-50 -6 -62.5 3t-1.5 55q13 51 27 99q9 29 -9 52.5t-48 23.5zM412 256q-3 -35 -14 -45.5t-40 -13.5q-18 -3 -29.5 9.5t-7.5 40.5q3 23 8.5 34t12.5 14.5t27 8.5q27 6 37 -8.5t6 -39.5z" />
    <glyph glyph-name="dollar" unicode="$" horiz-adv-x="646" 
d="M380 708h-3q-23 -1 -39 -16.5t-17 -37.5q0 -35 -51 -74q-34 -27 -53.5 -66t-19.5 -82q0 -82 61 -147q31 -35 25 -106l-14 -173q-1 -45 -16.5 -69t-41.5 -21q-21 6 -31.5 15t-14.5 26q-6 21 -21.5 33t-33 11t-33 -9t-23 -26t-1.5 -40q12 -45 47 -77t79 -45
q18 -2 30.5 -6.5t19.5 -10.5t11 -13t5 -15.5t1.5 -17.5t0.5 -19q-2 -22 8.5 -38t27.5 -20.5t34.5 -2.5t30.5 16t15 36q4 46 17 75t49 46q50 25 88 60q78 72 79 167q4 82 -54 147q-31 35 -109 87q-10 9 -14.5 36t-2.5 56l7 90q3 21 16 28.5t28 2.5q5 -7 1 -25q-14 -43 22 -66
q33 -20 64 -2q20 12 26 38q19 74 -21 126q-34 43 -98 52q-8 0 -16 4.5t-8 8.5q2 26 -15 44.5t-42 19.5zM425 150q12 -1 30 -20q15 -16 20.5 -30t4.5 -33v-4q0 -45 -42 -84q-24 -12 -35.5 -9.5t-14.5 22t1 57.5q0 1 1 4q4 27 6.5 40t6.5 29t9.5 22t12.5 6z" />
    <glyph glyph-name="percent" unicode="%" horiz-adv-x="610" 
d="M379 560q-18 0 -34.5 -12t-21.5 -29l-53 -163q-1 5 -7 29q13 16 13 37q0 24 -17 41t-41 17q-7 0 -16 -5.5t-13 -6.5l-6 3t-7 2q-16 0 -32 -10t-22 -25q-32 -29 -50 -64q-23 -43 -22 -80q1 -31 19 -52q23 -27 60 -27q39 0 80 22q16 9 29 22l-165 -507q-4 -10 -4 -20
q0 -24 17 -41t41 -17q18 0 34.5 12.5t21.5 29.5l250 767q4 9 4 19q0 24 -17 41t-41 17zM457 183q-5 0 -10 -1l-33 -4q-12 -3 -23.5 -12.5t-16.5 -19.5q-16 -9 -25 -24q-20 -35 -34 -75t-13 -68q2 -30 20 -50q22 -25 58 -25q40 0 69 19t57 52q27 32 41 58.5t14 61.5
q0 20 -11.5 41t-27.5 31q-22 14 -54 15q-5 1 -11 1z" />
    <glyph glyph-name="quotesingle" unicode="'" horiz-adv-x="247" 
d="M110 816h-2h-4q-22 -2 -38 -18.5t-16 -39.5q0 -8 2 -15l31 -120q4 -19 20.5 -32.5t35.5 -13.5q24 0 41 17t17 41q0 9 -2 17l-30 120q-5 17 -21 30t-34 14z" />
    <glyph glyph-name="parenleft" unicode="(" horiz-adv-x="441" 
d="M335 734h-2q-15 0 -29 -8q-99 -57 -161 -158t-83 -219q-21 -117 1.5 -224t92.5 -176q17 -19 43 -19q24 0 41 17t17 41q0 25 -19 43q-43 43 -60.5 125t-1.5 173q17 94 66 174.5t122 122.5q12 6 21 21t9 29q0 24 -16.5 41t-40.5 17z" />
    <glyph glyph-name="parenright" unicode=")" horiz-adv-x="441" 
d="M106 734h2q16 0 30 -8q99 -57 161 -158t83 -219q20 -117 -2.5 -224t-91.5 -176q-18 -19 -43 -19q-24 0 -41 17t-17 41q0 25 18 43q44 43 61 125t1 173q-17 94 -66 174.5t-121 122.5q-13 6 -21.5 21t-8.5 29q0 24 16.5 41t39.5 17z" />
    <glyph glyph-name="asterisk" unicode="*" horiz-adv-x="416" 
d="M205 1085h-2q-14 0 -29 -9.5t-21 -22.5q-8 2 -15 2h-1q-24 -1 -40.5 -18t-16.5 -40q0 -10 3 -20q-13 -6 -23 -21.5t-10 -30.5q0 -18 12.5 -34.5t29.5 -21.5l-14 -18q-14 -16 -14 -37q0 -24 17 -41t41 -17q12 0 25.5 6.5t21.5 16.5q16 -13 37 -13q23 0 40 16
q17 -15 39 -15q24 0 41 17t17 41q0 22 -14 38l-4 5q17 5 29.5 21t12.5 34t-12 34t-28 21q13 16 13 37q0 24 -17 41t-41 17h-3q-15 -1 -29 -10q-7 9 -20 15.5t-25 6.5z" />
    <glyph glyph-name="plus" unicode="+" horiz-adv-x="469" 
d="M211 350q-21 -1 -37.5 -17t-18.5 -37l-6 -79l-32 4h-9q-24 0 -41 -17t-17 -41q0 -22 15.5 -39t37.5 -19l36 -4l-10 -112v-5q0 -24 17 -41t41 -17q22 0 39 15.5t19 37.5l9 108l99 -12h9q24 0 41 17t17 41q0 18 -13 34.5t-30 21.5l-10 2l-103 12l7 83v6q0 18 -12.5 34.5
t-29.5 21.5q-3 0 -6 1q-5 1 -10 1h-2z" />
    <glyph glyph-name="comma" unicode="," horiz-adv-x="243" 
d="M110 249h-2q-24 0 -41 -17t-17 -41q0 -14 6 -26l3 -9t6.5 -22t7 -30.5t2.5 -31.5t-5 -28t-5 -23q0 -24 17 -41t41 -17q17 0 32.5 10.5t21.5 26.5q13 30 16 63.5t-2 59.5t-11.5 47.5t-12.5 33.5l-6 12q-7 13 -21.5 23t-29.5 10z" />
    <glyph glyph-name="hyphen" unicode="-" horiz-adv-x="551" 
d="M442 319h-4l-335 -35q-22 -2 -37.5 -18.5t-15.5 -38.5q0 -24 17 -41t41 -17h6l336 34q21 2 36.5 19t15.5 39q0 24 -17 41t-41 17h-2z" />
    <glyph glyph-name="period" unicode="." horiz-adv-x="255" 
d="M123 119q-13 0 -28 -7q-7 -3 -14 -7.5t-10 -7.5l-3 -2q-12 -11 -12 -27v-2q-6 -9 -6 -19q-1 -25 3 -49q4 -25 13 -40t24 -20q19 -7 38 3q34 19 46 73q11 49 -5 79q-6 11 -18 18.5t-23 7.5h-5z" />
    <glyph glyph-name="slash" unicode="/" horiz-adv-x="313" 
d="M208 595h-2q-21 0 -38 -14.5t-20 -35.5l-97 -635q-1 -5 -1 -10q0 -24 17 -41t41 -17q21 0 38 14.5t20 36.5l97 634q1 5 1 10q0 23 -16.5 40t-39.5 18z" />
    <glyph glyph-name="zero" unicode="0" horiz-adv-x="715" 
d="M538 673q-99 0 -188 -58q-15 11 -34 11q-16 0 -30 -8q-58 -34 -127 -130q-61 -87 -106 -187q-49 -110 -53 -184q-2 -52 20 -86q14 -21 39 -33.5t50 -12.5q116 0 224 48.5t197 127.5q80 70 131 148q54 83 54 146q0 118 -65 176q-47 42 -112 42zM538 557q21 0 35 -13
q26 -23 26 -89q0 -9 -9.5 -33t-25.5 -50q-42 -64 -110 -124q-73 -63 -161 -103t-176 -42q-1 4 -1 9q3 51 43 142q40 90 95 167q7 10 13.5 17t15 14.5t13.5 13.5q11 -5 24 -5q11 0 24.5 6t20.5 15q22 27 68 51t105 24z" />
    <glyph glyph-name="one" unicode="1" horiz-adv-x="282" 
d="M228 672q-2 1 -3.5 1t-2.5 -1q-16 0 -31 -11.5t-21 -26.5q-31 -83 -59 -184.5t-40 -157.5t-38 -190t-31 -162q-2 -7 -2 -14q0 -24 17 -41t41 -17q20 0 37 14.5t20 34.5q6 28 32 163t37.5 187.5t38 150t56.5 175.5q4 10 4 22q0 22 -16.5 39t-38.5 18z" />
    <glyph glyph-name="two" unicode="2" horiz-adv-x="953" 
d="M434 672q-107 0 -204 -78q-96 -77 -121 -178q-5 -21 3.5 -38.5t24 -25t33 -8t32.5 11.5t20 33q7 29 28.5 60t51.5 55q66 52 132 52q26 0 39 -10q11 -9 15 -29q6 -27 -2 -73t-31 -99q-67 -157 -275 -336q-5 -2 -16.5 -5t-16.5 -6q-62 -29 -98 -62q-49 -46 -49 -101
q0 -33 29 -50t58 0q26 15 50.5 35t53.5 46.5t45 39.5q102 41 208 66q127 30 267 49t184 19q24 0 41 17t17 42v3q0 35 -30 51.5t-59 -1.5q-96 -4 -244 -28q-50 -12 -81 -17t-49 -6t-22.5 6.5t-2.5 17t13.5 28.5t24.5 38.5t30 49.5t29 58q62 143 40 243q-14 60 -57 95
q-44 35 -111 35z" />
    <glyph glyph-name="three" unicode="3" horiz-adv-x="640" 
d="M433 843q-111 0 -210 -53.5t-205 -158.5q-15 -16 -17.5 -35t7 -34t24.5 -24.5t34 -7t35 18.5q91 91 165.5 132t157.5 43q-8 -19 -17 -32q-34 -46 -93.5 -99.5t-117.5 -86.5q-19 -11 -26 -29t-1.5 -34t17.5 -29.5t30.5 -15.5t37.5 8q62 35 116.5 46t91.5 2q34 -9 48.5 -27
t14.5 -53q0 -44 -47 -112.5t-121 -130.5q-73 -63 -160.5 -112t-152.5 -66q-21 -6 -32.5 -21.5t-10.5 -32.5t9 -32.5t25.5 -23.5t38.5 -2q84 22 178.5 75.5t179.5 125.5q96 81 152.5 163t56.5 169q0 69 -42.5 122t-107.5 70q-16 6 -14.5 17t24.5 40q26 37 38.5 65t10.5 63
q-1 19 -12 39.5t-28 32.5q-30 20 -77 20z" />
    <glyph glyph-name="four" unicode="4" horiz-adv-x="807" 
d="M750 802q-24 0 -42 -17q-44 -44 -129 -145.5t-131 -145.5q-73 -72 -147 -109.5t-163 -37.5h-10t-7 3q0 2 -1 5q-8 22 2 74q10 49 35.5 110.5t49.5 104.5q11 20 8.5 38.5t-16 30.5t-29.5 17t-34 -2t-29 -26q-75 -129 -99 -251q-17 -84 4 -138q13 -35 49 -58.5t77 -23.5
q88 0 171 36q28 12 51 12t34 -16t-4 -54q-76 -187 -128 -381q-6 -21 1.5 -38.5t23 -25.5t33 -9t33 10.5t21.5 32.5q145 540 422 911q21 29 5.5 61t-51.5 32z" />
    <glyph glyph-name="five" unicode="5" horiz-adv-x="940" 
d="M884 672q-1 1 -3 0q-169 -4 -490 -41q-27 -3 -41.5 -21.5t-12.5 -41.5t19 -38q12 -11 7.5 -29.5t-20.5 -40.5l-133 -175q-16 -20 -12.5 -43t20.5 -36t38 -15.5t41 18.5q20 20 80.5 45.5t110.5 29.5q47 2 39 -9t-115 -52q-12 -4 -16 -6q-183 -83 -272 -158
q-95 -80 -117 -147q-17 -51 8 -87q26 -39 81 -39q80 0 180 28t192 79q183 102 226 245q3 25 10 43.5t14.5 29.5t24.5 19.5t29 12.5t38 11q10 2 15 4q21 5 32.5 20.5t10.5 33t-9 33t-25.5 23.5t-38.5 2q-18 -6 -41 -13t-29.5 -10t-20.5 -5t-15 -3t-12 2.5t-12 5t-14.5 11
t-20.5 13.5q-59 37 -151 29q-9 -1 -23.5 -5.5t-20.5 -5.5l83 111q12 13 45.5 24t64.5 14q88 7 173 11q26 -19 56 -7l46 18q29 11 36 38.5t-9 50.5t-46 23zM468 112q31 0 30 -24q-2 -36 -61 -77q-12 -9 -26 -16q-118 -66 -263 -84l8.5 12.5t10 14t12 13.5t20.5 19
q70 59 221 130q28 11 48 12z" />
    <glyph glyph-name="six" unicode="6" horiz-adv-x="658" 
d="M386 755q-22 0 -38 -15q-72 -64 -131 -131t-109.5 -144.5t-79 -163.5t-28.5 -171q0 -51 20.5 -94t55.5 -72q66 -54 153 -54q77 0 152 32.5t138 87.5q64 56 102 123.5t38 138.5q0 41 -20 77.5t-53 58.5q-64 44 -156 33q-87 -10 -177 -83q-23 -22 -38.5 -35t-24.5 -18.5
t-12 -3.5t0 13t10 26.5t20 40.5q81 131 217 252q19 17 20 41t-15 42t-42 19h-2zM463 347q36 0 58 -15t22 -40q0 -38 -27.5 -86t-73.5 -89q-47 -41 -104.5 -66t-108.5 -25q-46 0 -79 27q-16 14 -25 57q19 -4 36 4t27 25q57 100 125.5 150t130.5 57q9 1 19 1z" />
    <glyph glyph-name="seven" unicode="7" horiz-adv-x="545" 
d="M442 673q-79 0 -214 -64q-137 -65 -211 -140q-17 -17 -17 -41t17 -41t41 -17t41 17q28 28 77 60t102 57q83 40 149 47q-1 -6 -1 -9q-12 -58 -71 -183q-23 -49 -73.5 -149l-87.5 -178.5t-58 -137.5q-3 -10 -3 -20q0 -24 17 -41t41 -17q17 0 33 11.5t22 28.5
q17 50 52.5 125l86 175.5l75.5 153.5q65 137 80 209q11 56 -3 93q-10 24 -35.5 41.5t-52.5 18.5l-1 1h-6z" />
    <glyph glyph-name="eight" unicode="8" horiz-adv-x="581" 
d="M337 834q-69 0 -129.5 -27.5t-101.5 -72t-64.5 -101t-23.5 -114.5q0 -71 47 -131q17 -20 25 -31.5t13 -28.5t4 -29t-10 -38.5t-20.5 -50.5l-34.5 -71q-40 -84 -42 -138q-1 -45 22 -74q27 -35 78 -35q92 0 171 67q81 70 81 154q0 12 -6 29.5t-7 24.5q88 77 121 111
q122 129 122 266q0 113 -45 186q-29 47 -81 75.5t-119 28.5zM337 718q42 0 63.5 -12t37.5 -37q28 -45 28 -125q0 -50 -23 -94.5t-68 -91.5q-23 -22 -59 -42q-18 -10 -14 -2l3 6q16 15 18.5 34.5t-7.5 34t-24.5 24t-33.5 7.5t-35 -18q0 -1 -1.5 -2.5t-1.5 -2.5q-54 50 -64 63
q-22 28 -22 59q0 46 24.5 91t72 76.5t106.5 31.5zM176 103q21 0 29 -19.5t-10 -36.5q-22 -19 -72 -30q9 40 24 72q13 15 29 14z" />
    <glyph glyph-name="nine" unicode="9" horiz-adv-x="729" 
d="M598 715q-54 0 -109 -19.5t-103.5 -54.5t-89 -73.5t-78.5 -84.5q-75 -91 -99 -164q-17 -49 -5 -85q10 -28 35 -43q22 -14 51 -14q35 6 56.5 9t46 5.5t37.5 2.5t27.5 -2.5t20 -8t10.5 -14.5t4 -21t-4.5 -29.5t-10.5 -38l-17 -47.5q-84 -179 -159 -270q-81 -100 -153 -100
q-27 0 -43 -18t-16 -40t16 -40t43 -18q126 0 243 142q84 103 174 295q48 103 132 310.5t115 261.5q20 34 -5 64.5t-63 19.5q9 28 -8.5 51.5t-47.5 23.5zM517 556q37 -1 28 -35q-7 -25 -41 -64q-73 -78 -152 -118q-65 -29 -79.5 -10.5t34.5 80.5q50 61 115 110q53 37 95 37z
" />
    <glyph glyph-name="colon" unicode=":" horiz-adv-x="233" 
d="M123 387q-13 0 -28 -7q-7 -4 -14 -8.5l-10 -6.5l-3 -3q-12 -11 -12 -27v-2q-6 -8 -6 -19q-1 -24 3 -49t13 -39q9 -15 24 -21q19 -7 38 3q34 19 46 73q11 50 -5 79q-6 11 -18 18.5t-23 8.5h-5zM123 178q-13 0 -28 -7q-7 -3 -14 -7.5t-10 -7.5l-3 -2q-12 -11 -12 -27v-2
q-6 -9 -6 -19q-1 -25 3 -49q4 -25 13 -40t24 -20q19 -7 38 3q34 19 46 73q11 49 -5 79q-6 11 -18 18.5t-23 7.5h-5z" />
    <glyph glyph-name="semicolon" unicode=";" horiz-adv-x="255" 
d="M121 136q-1 1 -2 1q-24 0 -41 -17.5t-17 -41.5q0 -13 7 -26l3 -9t6 -22t6.5 -30.5t2.5 -31.5t-5 -27q-5 -12 -5 -24q0 -24 17 -41t42 -17q16 0 32 11t22 26q12 31 15 64.5t-2 59t-11.5 47.5t-12.5 33l-6 12q-6 13 -21 23t-30 10zM123 387q-13 0 -28 -7q-7 -4 -14 -8.5
l-10 -6.5l-3 -3q-12 -11 -12 -27v-2q-6 -8 -6 -19q-1 -24 3 -49t13 -39q9 -15 24 -21q19 -7 38 3q34 19 46 73q11 50 -5 79q-6 11 -18 18.5t-23 8.5h-5z" />
    <glyph glyph-name="less" unicode="&#x3c;" horiz-adv-x="408" 
d="M282 348h2q29 -1 45 -23t10 -48.5t-32 -39.5q-36 -15 -45 -29.5t7 -34t63 -52.5q18 -13 24 -31.5t-1 -34t-19.5 -28t-31.5 -13t-38 10.5l-191 132q-27 19 -24.5 52t32.5 48l173 85q12 6 26 6z" />
    <glyph glyph-name="equal" unicode="=" horiz-adv-x="553" 
d="M443 344h-4l-335 -35q-22 -2 -37.5 -18.5t-15.5 -38.5q0 -24 17 -41t41 -17h7l335 34q22 2 37 19t15 39q0 24 -17 41t-41 17h-2zM442 181q0 -1 -4 -1l-335 -34q-22 -2 -37.5 -19t-15.5 -39q0 -24 17 -41t41 -17q3 0 6 1l336 34q21 2 36.5 19t15.5 39q0 24 -17 41t-41 17
h-2z" />
    <glyph glyph-name="greater" unicode="&#x3e;" horiz-adv-x="408" 
d="M126 348h-2q-29 -1 -45 -23t-10 -48.5t32 -39.5q36 -15 45 -29.5t-7 -34t-63 -52.5q-18 -13 -23.5 -31.5t1 -34t19.5 -28t31.5 -13t37.5 10.5l191 132q28 19 25.5 52t-32.5 48l-173 85q-13 6 -27 6z" />
    <glyph glyph-name="question" unicode="?" horiz-adv-x="522" 
d="M284 927q-83 0 -158 -67q-76 -69 -76 -147q1 -23 18 -40t40.5 -17t40.5 17t17 40q0 8 10.5 26.5t27.5 33.5q18 17 41 27.5t39 10.5q20 0 31.5 -4t16 -9t10.5 -16q14 -27 14 -77q0 -22 -27 -56q-9 -11 -38.5 -44.5l-47.5 -55.5q-139 -174 -139 -423q0 -24 17 -40.5
t41 -16.5t41 16.5t17 40.5q0 125 30 204.5t83 145.5l44.5 51t42.5 50q52 66 52 128q0 79 -27 131q-21 39 -64 65t-97 26zM165 -5q-13 0 -28 -7q-7 -3 -13.5 -7.5t-9.5 -7.5l-4 -2q-12 -11 -12 -27v-2q-6 -9 -6 -19q0 -25 4 -49q4 -25 12 -40q10 -15 25 -20q19 -7 38 3
q34 19 45 73q11 50 -5 79q-6 11 -18 18.5t-23 7.5q-2 1 -5 0z" />
    <glyph glyph-name="at" unicode="@" horiz-adv-x="756" 
d="M564 641q-193 0 -363 -273q-69 -111 -110 -231t-41 -219q0 -76 50 -137q56 -68 137 -68q134 0 241.5 71.5t179.5 197.5q8 13 8 29q0 24 -17 41t-41 17q-14 0 -29 -8.5t-22 -20.5q-60 -106 -138 -158.5t-182 -52.5q-26 0 -47 26q-24 29 -24 63q0 74 37 184t97 205
q60 97 133 157.5t131 60.5q4 0 6 -2q6 -5 11 -20q15 -42 5 -107q-9 -67 -37 -112q-4 -5 -8.5 -8t-5.5 -4v5.5t1 5.5h-1q0 3 2 9.5t2 10.5q0 12 -5 24q10 14 10 32q0 24 -17 41t-41 17q-8 0 -16 -2q-73 -20 -127 -71t-79 -112.5t-25 -125.5q0 -39 23 -65q25 -26 64 -26
q48 1 100 43q33 28 67 85q3 -1 8.5 -4.5t8.5 -3.5q82 0 138 88q40 65 53 157q13 93 -10 161q-15 43 -44 69q-35 31 -83 31zM406 231q-12 -28 -26 -47q14 32 26 47z" />
    <glyph glyph-name="A" unicode="A" 
d="M2113 1719q-41 0 -80 -18t-86 -53q-47 -29 -126 -106q-26 -24 -26 -17q1 10 42 95q10 20 6.5 39t-18 30t-31 15.5t-34 -4t-27.5 -29.5l-349 -708q-6 -9 -18 -24t-18 -25l-152 -245q-23 -47 -43 -78.5t-46.5 -57t-52 -40.5t-67.5 -28t-84.5 -21.5t-111.5 -17.5
q-378 -55 -748 -154q-21 -6 -32.5 -21.5t-10.5 -33t9 -33t25.5 -23t38.5 -1.5q363 97 732 150q140 32 157 -10q12 -29 -33 -127q0 -1 -31 -66q-155 -331 -224 -587q-8 -32 12.5 -54.5t51 -19.5t44.5 33l338 685q22 49 36 76t35 53t40 37t54 21.5t73.5 14t102.5 6.5
q262 12 553 6q45 0 74 -3t51 -12.5t33 -21.5t18.5 -37t9 -52t1.5 -74q3 -150 14 -268q17 -196 54.5 -329t115.5 -211q16 -16 35 -18.5t34 7t24.5 24.5t7 34t-18.5 35q-51 51 -86.5 174.5t-50.5 293.5q-8 98 -12 219q-4 64 -2.5 108t19 70t55 35.5t106.5 5.5q127 -7 269 -17
l317 -23t270 -19q22 -3 38.5 8t21.5 28t2.5 34.5t-17 30.5t-37.5 14l-271 20l-319.5 23t-271.5 18q-43 2 -70 6.5t-48 14.5t-32 22t-17.5 36t-8.5 49t-2 68q5 177 4.5 373.5t-11.5 321.5q-15 154 -50 237q-23 52 -56 81q-41 35 -94 35zM2113 1603q10 0 18 -7q13 -11 25 -40
q28 -64 41 -201q11 -117 11.5 -310t-4.5 -372q-1 -33 -2.5 -50.5t-5 -40t-9 -32.5t-16 -22.5t-24.5 -17.5t-35.5 -9.5t-49 -5.5t-64.5 0q-112 2 -217 1q-133 0 -261 -5q-154 -9 -184 21q-23 25 7 99l29 65l112 228q218 328 368 494q93 103 165 157q31 24 58 36t38 12z" />
    <glyph glyph-name="B" unicode="B" horiz-adv-x="2191" 
d="M746 1380q-14 0 -27 -1q-55 -1 -110 -8q-251 -34 -413 -169q-91 -75 -143.5 -181.5t-52.5 -238.5q-1 -43 37 -56q35 -12 62 11q18 17 17 45q0 204 154 331q50 42 116 73q69 31 96 8.5t19 -106.5q-20 -223 -29 -440.5t-14 -475t-14 -444.5q-2 -23 9 -39t28.5 -20.5
t35 -1.5t30.5 18t13 38l22 479q4 53 7.5 82.5t15.5 57t26 40.5t46 26t67 19.5t98 15.5q357 52 639 24q246 -25 378 -108q69 -43 102.5 -97t33.5 -129q0 -150 -165 -295q-168 -148 -453 -247q-189 -66 -399.5 -98.5t-438 -24.5t-429.5 62q-27 7 -46.5 -6.5t-25.5 -34.5
t4.5 -42.5t37.5 -28.5q215 -58 455 -66.5t460 25.5t421 104q306 107 490 269q205 181 205 383q0 103 -51 186.5t-139 138.5q-156 96 -428 124q-167 17 -374 2q-153 -4 -173 -1q-32 5 -19 29q8 13 31 39q275 245 275 445q0 85 -65 151q-54 55 -148 89q-87 32 -194 41
q-39 3 -80 3zM740 1263q138 1 240 -36q69 -25 105 -62q32 -32 32 -69q0 -66 -66 -166t-170 -193l-85 -59q-99 -70 -131 -79q-50 -13 -58 55q-3 25 -1 61l20 430q0 66 23.5 92t72.5 26h18z" />
    <glyph glyph-name="C" unicode="C" horiz-adv-x="3169" 
d="M1407 1342q-134 0 -275.5 -37t-274.5 -104.5t-257 -155.5t-237 -194q-230 -217 -368.5 -459.5t-138.5 -456.5q0 -147 50 -266t145 -199q187 -157 523 -157q677 0 1409 314q358 153 871 452l182 106l208 121q12 7 20.5 21.5t8.5 28.5q0 24 -17 41t-41 17q-15 0 -29 -7
l-202 -118q-471 -276 -725 -404q-635 -320 -1182 -413q-253 -43 -503 -43q-293 0 -448 130q-154 129 -154 376q0 176 130 404t340 427q219 207 476 333.5t489 126.5q39 0 48 -14t-1 -44q-14 -40 -57.5 -80t-99.5 -53q-19 -4 -32 -21t-13 -36q0 -24 17 -41t41 -17q7 0 15 2
q88 21 151 78.5t88 130.5q27 83 -12 144q-21 32 -59.5 49.5t-85.5 17.5z" />
    <glyph glyph-name="D" unicode="D" horiz-adv-x="3482" 
d="M883 1277h-55q-217 -3 -398 -30q-182 -27 -290 -73q-60 -26 -94 -57q-46 -42 -46 -95q0 -39 36 -66q19 -14 50 -25q43 -15 117 -26q127 -19 199 -16q44 0 56 39q11 37 -14 62q-18 18 -47 15q-6 0 -32 1t-68.5 5t-76.5 9q-46 7 -84 18q23 18 49 29q94 40 262 65
q101 15 219 22q31 3 55.5 1t42.5 -4t31 -12t21.5 -22t14 -34t8 -48t2.5 -65l-1 -335q-1 -29 23 -47q-9 -266 -11 -320q-3 -34 -6 -56.5t-9.5 -46.5t-11 -39t-19 -34t-25 -30t-36 -29t-45 -29t-60 -31.5l-72.5 -35.5l-90 -42q-180 -89 -276 -186q-112 -112 -112 -237
q0 -62 38 -113t98 -76q106 -45 291 -37q170 7 383.5 56t440.5 131q231 83 443.5 190t377.5 228q136 100 225 199q78 95 168 142.5t254 74.5q394 31 710 31q28 0 43.5 18t15.5 40t-15.5 40t-43.5 18q-337 0 -789 -39q-167 -9 -185 130q-25 162 -131 290.5t-273 221.5
q-328 182 -859 239q-197 21 -399 21zM1083 1155h4q93 -5 183 -15q236 -25 447.5 -81.5t367.5 -143.5q287 -159 339 -393q32 -122 -57 -165q-44 -21 -164 -38q-466 -59 -839 -141q-233 -48 -275 -52q-81 -8 -104 25q-19 27 -17 111q17 346 18 518q0 118 -6 204
q-3 102 17.5 136.5t85.5 34.5zM2193 193q144 0 59 -107q-47 -59 -159 -141q-156 -115 -362.5 -219t-429.5 -184q-220 -63 -283 -56q-48 5 -61 51q-8 25 -11 97q-1 59 0 126q3 34 4 52t7 42.5t10 35.5t20 28.5t26.5 25t41.5 22t54 22t73.5 22.5t91 25l115.5 29
q296 66 693 119q66 11 111 10zM764 -130q33 0 49.5 -25t16.5 -83q-2 -138 2 -213q3 -38 0 -66t-16.5 -47.5t-41 -32.5t-74.5 -21q-103 -17 -188 -20q-159 -7 -240 27q-38 17 -52 34.5t-14 48.5q0 77 78 156q82 83 245 163l70.5 28l67.5 27t50.5 16.5t46.5 7.5z" />
    <glyph glyph-name="E" unicode="E" horiz-adv-x="2870" 
d="M1445 1577h-25q-28 0 -57 -2q-210 -14 -489 -98q-247 -76 -453.5 -177.5t-301.5 -197.5q-16 -15 -18 -34t7.5 -33.5t24 -24.5t33.5 -7.5t35 17.5l71 44q88 56 111 59q22 2 25 -24q2 -25 -11 -82q-38 -152 -66 -287q-15 -45 -31.5 -76t-36.5 -49.5t-36.5 -28.5t-43 -24
t-43.5 -25l-115 -80q-16 -11 -22 -28t-1 -32.5t16 -28.5t28.5 -16t36.5 5q66 33 102 43t54 0t19.5 -40t-0.5 -79q-31 -314 24 -504q29 -101 85.5 -169.5t134.5 -101.5q138 -58 358 -12q90 19 190.5 51.5t229 87.5l214.5 94l249 116l67 31l277.5 128.5l264.5 114t292 111.5
t271 81q21 6 33 21t11 32.5t-8.5 33.5t-25 23.5t-39.5 2.5q-136 -35 -279.5 -84t-299.5 -114.5l-266.5 -115.5l-279.5 -129l-215 -100.5l-189 -85t-198.5 -84t-161 -57.5t-161.5 -44q-184 -39 -289 5q-55 23 -92.5 69.5t-60.5 126.5q-49 166 -17 474q20 129 31 159
q20 55 78 91q39 23 121 58q172 71 348.5 127.5t479.5 137.5q24 6 35.5 25t8.5 38.5t-18.5 35t-39.5 15.5q-8 0 -16 -2q-271 -72 -453 -131t-352 -128q-119 -62 -143 -41q-18 16 -1 100q1 6 15 66q29 131 66 274l12 40t13 34.5t17.5 32.5t24 27.5t35 28t47.5 25t64 26.5
q80 30 158 54q161 48 313 72t284 16t208 -52q17 -10 32 -8.5t28 9t19.5 21t8 27.5t-6 28t-23.5 24q-128 73 -326 74z" />
    <glyph glyph-name="F" unicode="F" horiz-adv-x="2533" 
d="M1588 1183q-288 0 -648 -108q-373 -111 -639 -278q-136 -86 -211 -170q-90 -100 -90 -192q-1 -44 37 -57q35 -12 62 11q18 17 17 46q0 48 60 114q65 72 187 149q120 76 279 145.5t331 120.5q376 113 661 102q147 -5 247 -46t144 -116q11 -19 29 -26t34 -2t29.5 17
t16 30.5t-8.5 38.5q-119 207 -487 220q-19 1 -40 1h-10zM837.5 746h-3.5q-22 -1 -37.5 -17t-16.5 -38l-37 -615q-2 -57 -5.5 -97.5t-13 -77.5t-18.5 -61t-31.5 -50t-43 -42t-61 -38t-77 -38.5t-99.5 -42.5q-15 15 -36.5 17.5t-39.5 -10.5l-146 -100q-17 -12 -22.5 -29
t-1 -32.5t15.5 -28t28.5 -15.5t36.5 4l180 81l74.5 31.5t61 23.5t50.5 15.5t38.5 5.5t30 -4t20.5 -15.5t13.5 -26.5t6.5 -40t2 -52.5t-3 -67.5l-59 -988q-1 -22 10 -38t28 -20.5t34.5 -2t30 17t13.5 36.5l58 978q4 79 9 126.5t17 93t28 71t47 52t69 45t98 41.5
q769 301 1518 502q24 6 35 25t8.5 38.5t-18 35.5t-39.5 15q-8 0 -16 -2q-718 -192 -1485 -493l-64 -26.5t-51 -17.5t-41 -10.5t-30 0.5t-22 8.5t-13.5 22t-8.5 32.5t-2 48t0.5 61t4.5 78l34 569q1 24 -15 42.5t-41 19.5h-2.5z" />
    <glyph glyph-name="G" unicode="G" horiz-adv-x="3541" 
d="M1771 1081q-353 0 -778 -303q-184 -132 -355 -302t-308 -353q-138 -185 -223 -356.5t-103 -313.5q-20 -162 57 -256q84 -101 264 -101q211 0 545 176q295 155 636 418q303 234 553 483q43 33 78.5 37.5t58.5 -20.5t30.5 -79t-4.5 -138l-118 -588q-21 -92 -77 -208
t-142 -228q-275 -355 -354 -597q-43 -130 -18 -209q16 -50 58 -77q39 -26 96 -26q93 0 173 104q64 82 124 235q63 161 128 418q44 271 235 480q273 286 601.5 550.5t696.5 476.5q19 11 26 29t1.5 34.5t-17 30t-30.5 15.5t-38 -8q-580 -335 -1093 -814q-37 -39 -64.5 -65.5
t-52.5 -48t-41.5 -33t-30 -15.5t-21 0.5t-11 19t-3 35.5t4.5 54.5t10.5 71.5t16.5 91q4 23 24 125.5l25.5 131l23 118t25 125l22.5 109.5t24.5 115l22 98t24 101l22.5 85q8 31 -11.5 53t-49 20.5t-46.5 -29.5q-109 -190 -374 -459t-579 -512q-332 -256 -619 -407
q-148 -78 -275.5 -120.5t-215.5 -42.5q-125 0 -174 59q-46 55 -32 168q15 117 95.5 280t208.5 335q131 175 296.5 339.5t341.5 289.5q186 133 368.5 207.5t341.5 74.5q85 0 139.5 -34t65.5 -84q6 -25 0 -53t-26 -61.5t-62.5 -70.5t-102.5 -72q-20 -11 -27 -29t-1.5 -34.5
t17.5 -30t30.5 -15.5t38.5 8q142 82 205.5 184t41.5 200q-22 94 -110.5 151t-208.5 57zM1923 -1228q31 0 8 -97q-43 -170 -75 -253q-54 -138 -107 -207q-46 -59 -82 -59q-23 0 -33 7q-7 5 -11 16q-6 11 -1.5 50.5t19.5 86.5q55 167 227 415q33 41 55 41z" />
    <glyph glyph-name="H" unicode="H" horiz-adv-x="2840" 
d="M1967 1745q-27 0 -42 -17.5t-15.5 -39t14.5 -40t42 -19.5q8 -12 15 -42q15 -71 10 -222q-7 -197 -75 -760l-19 -156q-10 -124 -69 -176q-46 -41 -174 -75l-99 -24q-221 -55 -416 -114q-152 -36 -183 -35q-32 2 -37 33q-2 18 2 69q41 230 61.5 355t50 326t42.5 365.5
t13 309.5q1 25 -16.5 42t-42.5 17q-24 -1 -40.5 -18t-16.5 -41q0 -141 -13 -303t-43.5 -367t-50.5 -326.5l-62 -359.5q-5 -49 -16 -82.5t-28 -60.5t-49 -51t-69.5 -44.5t-100.5 -50.5q-152 -70 -261 -144q-279 -187 -279 -390q0 -28 18 -43.5t40 -15.5t40 15.5t18 43.5
q0 68 57 143t171 151q88 59 211 119q75 40 116 39t50.5 -39.5t-3.5 -108.5q-33 -233 -33 -372q0 -137 31 -211q19 -44 58 -73.5t86 -29.5q27 0 42.5 18t15.5 40t-15.5 40t-42.5 18q-16 0 -21.5 5t-15.5 28q-22 52 -22 165q36 349 66 460q32 120 99 171q50 38 166 70
q209 65 452 124q95 23 149 18t75.5 -36.5t25 -86.5t-2.5 -131q-46 -582 28 -855q7 -26 28.5 -36.5t42.5 -5t34.5 25t6.5 46.5q-66 245 -18 846q4 67 10.5 111t20 83t32 62t50.5 43t73 32t102 23q314 57 633 99q25 3 38.5 21t12.5 38.5t-16 38t-40 17.5h-10
q-323 -43 -640 -100q-129 -24 -162 -18q-39 7 -46 53q-4 34 6 119l14 123l35.5 295.5t24.5 239.5t16 235q6 165 -13 251q-12 55 -35 87q-15 20 -39 33t-50 13h-3z" />
    <glyph glyph-name="I" unicode="I" horiz-adv-x="501" 
d="M394 1815q-19 0 -35 -13.5t-20 -32.5q-38 -178 -70.5 -359t-60.5 -388.5l-46.5 -351t-42.5 -389.5l-34 -351.5l-35 -379.5v-6q0 -23 16.5 -39.5t40.5 -16.5q21 0 38 15t18 37l35 379t34 351t42.5 386.5l46 349.5t59.5 384.5t70 355.5q1 6 1 12q0 24 -16.5 40.5
t-40.5 16.5z" />
    <glyph glyph-name="J" unicode="J" horiz-adv-x="2922" 
d="M1643 1132q-24 -1 -41 -18t-16 -41q0 -542 -69 -1113q-3 -33 -8 -61.5t-10.5 -52t-18 -46.5l-21 -39.5t-28.5 -38.5l-32.5 -35t-41 -37.5l-46 -38.5l-54.5 -43q-5 -3 -6 -5q-288 -229 -517.5 -483t-390.5 -513q-164 -262 -251.5 -505.5t-91.5 -439.5q-4 -204 84 -322
q47 -62 119 -96t161 -34q290 0 550 376q231 334 415 922q126 406 215 900l15 101.5t17 79t18 61.5t26 49t32.5 41t44.5 37t56 38l74 44q537 319 1143 481q26 7 36.5 28.5t5 42.5t-25.5 34.5t-46 6.5q-576 -154 -1089 -443q-142 -90 -182 -90q-33 0 -35 55q-2 34 9 124
q59 533 59 1015q0 24 -17.5 41.5t-41.5 17.5zM1398 -484q53 -1 19 -183q-86 -469 -199 -831q-178 -571 -399 -890q-226 -326 -455 -326q-125 0 -187 83q-64 87 -61 251q4 173 87 405t238 481q153 244 368.5 486t485.5 460q70 64 103 64z" />
    <glyph glyph-name="K" unicode="K" horiz-adv-x="1714" 
d="M468 1696q-22 0 -38.5 -15t-19.5 -37l-56 -465q-7 -76 -56 -156.5t-151 -184.5q-71 -73 -109 -139.5t-38 -133.5q0 -79 47.5 -156.5t134.5 -161.5q28 -20 36.5 -81.5t-1.5 -126.5l-78 -653q-3 -22 7 -39t26.5 -22.5t34 -4t31 15.5t16.5 36l57 479q12 55 22 88t26.5 55.5
t35 29t49.5 0t66 -22.5t90 -46q260 -142 541.5 -230t513.5 -88q22 -1 37.5 11t19 29.5t0 34.5t-19 29t-37.5 12q-210 0 -482 85t-518 219l-87 51t-67 45t-51.5 43.5t-34.5 46t-22.5 53t-8.5 63.5t0 78t10 97l25 213q13 84 49 155.5t72 92.5q193 118 429 190q55 12 49 -13
q-4 -21 -49 -65q-18 -14 -21.5 -33t5 -34.5t22.5 -26t33.5 -10t35.5 15.5l300 258q20 17 21 41.5t-16 42.5t-43 18q-142 0 -312 -51t-343 -139q-26 -12 -46 -20t-36 -13.5t-28.5 -7.5t-21.5 -1t-15 5t-10 10.5t-6 16t-3.5 21t-1 25.5t0.5 29v28l41 348q4 26 -13.5 46
t-43.5 20zM285 796q8 0 12 -6.5t5 -19t0.5 -27.5t-3 -35.5t-5 -38.5l-6 -42t-5.5 -40q-25 -136 -34 -159q-18 -45 -53 -15q-18 15 -43 49q-37 61 -37 103q0 31 30 83.5t84 108.5q38 40 55 39z" />
    <glyph glyph-name="L" unicode="L" horiz-adv-x="3118" 
d="M563 1642q-23 -1 -40 -17q-103 -104 -198 -262t-167.5 -343t-115 -397t-42.5 -409q1 -456 232 -725q130 -151 334 -233t482 -82q153 0 309 25.5t295 68.5t281.5 107.5t263 133t246 155.5t224.5 164.5t204.5 170.5l179.5 163.5l156 152.5q18 17 18 41t-17 41t-41 17
q-25 0 -42 -17l-153.5 -150l-176.5 -159.5t-199.5 -166t-218.5 -160t-237.5 -150t-252.5 -128t-268.5 -103t-279.5 -66t-291 -24.5q-491 0 -728 275q-203 236 -204 649q0 183 42.5 385.5t112 379t157 325t177.5 238.5q18 17 18 42q0 24 -17 41t-41 17h-2z" />
    <glyph glyph-name="M" unicode="M" horiz-adv-x="3278" 
d="M917 1396h-2q-30 0 -47 -26q-203 -299 -382.5 -702t-308.5 -807q-119 -371 -160 -624q-21 -126 -16 -197q3 -44 16 -72q9 -19 30.5 -34.5t44.5 -15.5q19 0 36 12q6 4 13 11q8 8 18 21q16 20 42 61l130 208l396 624q266 400 463 619q116 131 209 199q10 7 21 13.5l18 10.5
t18.5 8t15.5 5.5t17 5t15 4.5q-8 -50 -17 -81q-10 -36 -25.5 -85.5l-28.5 -89l-35 -105l-34 -102.5q-88 -266 -109 -392q-17 -94 -6 -148q9 -40 32 -64q30 -30 74 -30q13 0 24.5 3.5t15 5.5t14.5 9q19 12 42 32q38 32 102 99l274 289q181 189 297 285q120 95 119 2
q0 -49 -49 -210q-13 -44 -21.5 -79t-15 -75.5t-6 -78.5t8.5 -72q18 -81 79 -125q63 -45 166 -45q96 0 209.5 59t263.5 171q240 178 483 421q16 15 18 34.5t-7.5 34t-24 24t-34 7.5t-34.5 -18q-238 -238 -470 -410q-124 -92 -237 -149.5t-167 -57.5q-66 0 -99 23
q-25 18 -33 56q-18 79 32 246q15 50 48 144t44 132q21 71 19 110q-1 36 -21 60q-11 14 -30 22t-37 8q-64 0 -127 -36t-151 -109q-120 -99 -307 -294l-273 -289q-78 -71 -94 -47q-7 10 -7 40q20 118 105 376l34 101.5l35 106l29 90.5l27 88q25 91 28 139q3 36 -7 60
q-7 18 -28.5 34t-42.5 16q-96 0 -219 -90q-102 -74 -227 -214q-202 -226 -473 -633q-282 -469 -370 -572q-78 -90 -77 1q0 104 105 478q126 395 303 792.5t373 686.5q20 29 4 60t-51 31z" />
    <glyph glyph-name="N" unicode="N" horiz-adv-x="3290" 
d="M456 983q-19 0 -34 -11t-21 -30q-72 -218 -132 -444.5t-109.5 -474t-81.5 -427.5t-77 -458h1q0 -2 -1 -5t-1 -5q0 -25 16.5 -40.5t37 -17.5t39 11t22.5 38q1 4 2.5 12.5t2.5 12.5q4 70 45 173t112 221q148 245 387 520q227 262 436 437q102 85 178 130q34 20 63.5 31
t40.5 11q17 0 25.5 -4.5t19.5 -19.5q24 -33 38 -107q9 -44 14.5 -101.5t12 -150.5t9.5 -132q10 -131 29.5 -231t59.5 -181q48 -96 133 -153t202 -57q70 0 146 19.5t160.5 59t161 83t178.5 108.5q41 25 336 219.5t465 293.5q29 17 29 50v10q0 33 -38.5 40.5t-71.5 -15.5
q-169 -98 -456 -287t-326 -213q-399 -253 -584 -252q-89 0 -141.5 35.5t-88.5 109.5q-58 116 -79 370q-3 37 -8.5 130t-12 154.5t-16.5 113.5q-19 98 -57 151q-24 33 -61 53t-79 20q-65 0 -163 -58q-85 -50 -194 -141q-215 -181 -449 -450q-202 -240 -264 -274
q-46 -25 -46 38q-1 44 19 141q100 487 226 867q10 28 -7.5 52.5t-47.5 24.5z" />
    <glyph glyph-name="O" unicode="O" horiz-adv-x="2861" 
d="M2011 1597q-142 0 -307.5 -41t-331.5 -114.5t-328.5 -168t-317.5 -207.5q-315 -230 -511 -467q-215 -261 -215 -452q0 -177 111 -274q33 -30 73 -101.5t52 -87.5q42 -57 106 -89.5t141 -32.5q238 0 570 223q93 77 355 150l744 215q524 148 740 148q27 0 42.5 18t15.5 40
t-15.5 40t-42.5 18q-138 0 -324 -39t-448 -113l-467 -134q-154 -44 -148 5q2 24 44 72q180 173 314 338q324 401 400 681q45 165 -11 262q-32 55 -94.5 83t-146.5 28zM2011 1481q61 0 93 -13.5t47 -39.5q32 -55 0 -173q-33 -123 -133.5 -291.5t-245.5 -347.5
q-225 -279 -497 -513q-46 -47 -135.5 -91.5t-165.5 -64.5q-373 -81 -572 -62q-88 4 -114.5 78t13.5 184q25 69 66 124t93 85q20 11 27 29t1.5 34.5t-17.5 30t-30.5 15.5t-38.5 -8q-127 -74 -193 -227q-47 -90 -59 -105q-26 -32 -34 22q0 70 49.5 169.5t139.5 208.5
q186 226 489 447q199 145 412 258.5t426.5 182t378.5 68.5zM701 -221q62 0 23 -26q-21 -15 -81 -42q-93 -33 -160 -33q-98 0 -154 75q-8 18 16 19.5t46 -2.5q80 -8 183 -1q87 10 127 10z" />
    <glyph glyph-name="P" unicode="P" horiz-adv-x="2826" 
d="M1508 1772q-226 0 -447 -31.5t-405 -82.5q-175 -49 -281 -106q-56 -29 -88 -59q-44 -42 -44 -88q0 -51 46 -94q33 -31 87 -55q112 -50 235 -46q22 1 37 13.5t18 29.5t-1 34t-19.5 28.5t-38.5 10.5q-96 -3 -183 36q-37 16 -56 34q-4 4 -6 7q2 3 5 5q20 19 62 42
q96 50 259 96q175 49 389 79.5t431 30.5q276 0 504 -60t392 -161q148 -93 227 -204.5t79 -211.5q0 -70 -97 -157q-101 -90 -294 -185q-352 -174 -921 -329q-161 -44 -327 -82q-19 -3 -53 -7q-52 -10 -80.5 -9.5t-37 16t-4.5 56.5q2 23 8 40.5t12.5 30.5t21 24.5t26 18.5
t35 15t39.5 12.5l49 13.5q633 167 1108 167q27 0 42.5 18t15.5 40t-15.5 40t-42.5 18q-410 0 -937 -121q-166 -42 -209 -43q-62 -2 -75 44q-13 44 9 167q64 390 64 626q0 24 -17.5 41.5t-42.5 16.5q-20 -1 -35.5 -14t-19.5 -32l-146 -705q-15 -98 -37 -153.5t-57 -86.5
t-96 -52q-207 -72 -355 -142q-103 -48 -161 -86q-32 -22 -50 -41q-30 -32 -30 -66t27 -59q17 -15 43 -24q38 -12 103 -15q115 -3 316 24q145 26 185 -3q35 -25 29 -113q-2 -34 -14 -117q-46 -338 -46 -594q-1 -23 11 -38.5t29.5 -19t35 0t29.5 19t11 38.5q0 250 49 592
q7 63 18.5 108.5t31.5 82t44.5 61.5t63 46t82 35t105.5 29q139 33 275 70q580 158 943 337q207 102 320 203q135 121 135 243q0 139 -95 273.5t-266 240.5q-179 111 -422 175t-535 64zM740 356q21 1 27.5 -13.5t0.5 -50.5q-2 -29 -30.5 -53t-74 -40.5t-92 -27t-97.5 -17.5
q-191 -26 -298 -22q-3 0 -6.5 0.5t-6.5 0.5q55 35 127 68q128 60 307 124l47 12l41.5 10.5t29.5 6t25 2.5z" />
    <glyph glyph-name="Q" unicode="Q" horiz-adv-x="2919" 
d="M2509 1427q-241 0 -485.5 -36t-456 -96t-412.5 -142.5t-363 -172.5t-300 -190q-349 -251 -425 -457q-30 -80 -7 -146q20 -42 10.5 -114.5t-39.5 -141.5q-47 -116 -21 -188q18 -48 63 -72q40 -21 98 -21q113 0 339 74q209 69 486 190q160 74 220 86q91 18 144 -46
q21 -24 39 -61l186 -339q11 -19 29 -26t34.5 -1.5t30 17.5t15.5 30.5t-8 37.5l-173 314q-21 43 -32 68t-17 51.5t-1.5 43t19 36t40 36t65.5 37.5q278 145 520 291q592 357 753 587q50 72 58 132q4 36 -7.5 71t-36.5 60q-50 49 -136.5 68.5t-228.5 19.5zM2509 1311
q115 0 188.5 -17t94.5 -38q9 -8 10.5 -14t0.5 -19q-4 -32 -38 -80q-71 -101 -263.5 -249t-454.5 -306q-235 -142 -506 -283l-48.5 -24.5t-39.5 -18t-34 -13.5t-27.5 -6.5t-24 -0.5t-20.5 7t-19.5 13.5t-18 22t-19.5 29.5l-21 39q-72 115 -121 170q-22 24 -40 37
q-32 22 -62 19q-21 -1 -39 -16.5t-25 -32.5q-9 -24 -9 -60q-1 -26 17 -43t40.5 -16.5t42.5 17.5q24 -29 56 -75q66 -106 72 -144q8 -46 -44 -84q-39 -28 -208 -105q-272 -119 -475 -186q-209 -68 -303 -68q-29 0 -43 7q-6 4 -9 10q-4 4 0.5 35.5t19.5 67.5q19 42 34 69.5
t37 53.5t48.5 38.5t60.5 11.5q20 0 35 10.5t20.5 26t2.5 33t-14 29.5q-48 17 63 137q14 15 14 16q236 257 489 433q128 88 244.5 139t194.5 51q23 -1 38.5 11t19 29.5t0 35t-19 29.5t-38.5 11q-201 0 -505 -211q-264 -183 -508 -450q-15 -32 -77 -90q-83 -79 -102 -53
q-9 12 -1 47q28 74 130 183.5t254 219.5q133 95 289 181.5t350.5 166.5t399.5 138.5t441.5 93.5t469.5 35z" />
    <glyph glyph-name="R" unicode="R" horiz-adv-x="2750" 
d="M1465 1772q-210 0 -472 -55.5t-487 -149.5q-250 -105 -380 -230q-74 -72 -107 -155t-10 -169q6 -21 21.5 -32.5t32.5 -10.5t33 9t23.5 25.5t1.5 38.5q-14 53 7 104t79 106q114 110 343 207q213 88 467 142t448 54q217 0 432 -43.5t384 -118.5q170 -76 263 -171
q90 -92 90 -187q0 -8 -11.5 -26.5t-35.5 -40.5q-56 -51 -166 -111q-217 -117 -577 -233q-301 -98 -619 -166q-42 -9 -73 1t-47 34t-22.5 54t-4.5 64q11 129 12 225q1 127 -14.5 224t-58.5 170q-17 31 -53 30q-33 -1 -48.5 -30t1.5 -58q59 -103 57 -334q-1 -116 -19 -295
q-5 -69 -47.5 -109.5t-147.5 -53.5q-136 -15 -240 -15q-29 0 -45.5 -21t-12.5 -47.5t29 -40.5l296 -167q28 -15 45.5 -29.5t33.5 -39t23 -62t6 -90.5q-1 -126 14.5 -222t57.5 -169q11 -19 29 -26t34.5 -2t30 17t15.5 30.5t-8 38.5q-59 102 -56 332q0 26 25.5 47.5t59.5 5.5
q167 -87 313 -153t305.5 -125t319 -95.5t313.5 -47.5q22 -2 38 8.5t20.5 27.5t2.5 34t-16 30.5t-36 14.5q-269 21 -555.5 123.5t-617.5 273.5q-95 51 -124.5 91.5t-22.5 115.5q7 26 19 45t25 31t37 21.5t43.5 14.5t56.5 13q341 67 662 170q370 120 596 242q123 66 190 128
q84 77 84 152q0 142 -123 268q-108 111 -299 196q-182 81 -407 126.5t-456 45.5zM848 385q41 0 43 -29q2 -25 -24 -42q-22 -14 -47 -4q-22 11 -35 20t-17.5 19.5t12 19.5t55.5 16h13z" />
    <glyph glyph-name="S" unicode="S" horiz-adv-x="3644" 
d="M1572 994q-157 0 -337 -40q-263 -57 -436 -165q-217 -135 -217 -312q0 -92 78 -158q58 -51 168 -88q46 -16 109 -32t105.5 -24.5l128.5 -25.5t118 -24q162 -33 266 -65q117 -46 117 -85q1 -35 -101 -80q-27 -11 -129 -50q-616 -238 -1000 -463q-203 -120 -312 -221
q-64 -59 -97 -112.5t-33 -110.5t35 -99q31 -36 85 -55q88 -31 240 -20q285 23 670 168q402 153 668 350q321 237 321 462v33v31.5t1 27t3 25t5.5 22t9.5 20.5l14.5 17t20.5 16.5t27.5 13t34.5 12.5q457 146 865.5 236t686.5 100q22 1 37 13.5t17.5 29.5t-1.5 34t-19.5 28.5
t-37.5 10.5q-293 -10 -706.5 -101.5t-877.5 -239.5q-29 -11 -54 -18l-44.5 -12.5t-40 -5.5t-32.5 -1.5t-31 4.5t-26.5 8t-28.5 12.5t-28 14.5l-32 19q-91 48 -204 81t-266 64l-118.5 23.5t-128.5 26t-99 23.5t-100 29q-89 30 -131 66q-20 17 -28 32.5t-8 37.5q0 112 162 214
q155 97 399 150q228 50 398 33q78 -7 116 -28q15 -8 18.5 -11.5t3.5 -9.5q0 -52 -39 -117t-106.5 -125.5t-152 -107.5t-164.5 -68q-22 -6 -33.5 -21.5t-10.5 -32.5t9 -33t25.5 -23.5t39.5 -1.5q95 25 190 78t174 123q184 164 184 329q0 39 -24 72t-59 51q-59 32 -159 42
q-46 4 -98 4zM1806 -177q88 -1 97 -79q0 -80 -72 -176.5t-202 -192.5q-126 -93 -292.5 -179t-347.5 -155q-176 -66 -343.5 -108.5t-294.5 -52.5t-192 13q-25 9 -35 21q-8 9 -8 24q0 20 23.5 57.5t69.5 80.5q100 93 292 206q375 220 983 454q122 45 196.5 66t125.5 21z" />
    <glyph glyph-name="T" unicode="T" horiz-adv-x="3115" 
d="M2929 1734q-123 0 -344 -14q-428 -29 -1033 -96q-618 -68 -1034 -133q-222 -35 -344 -64q-67 -16 -103 -30q-24 -9 -37 -18q-34 -23 -34 -59q0 -30 23 -51q12 -11 30 -18q21 -9 57 -14q59 -7 152 -6q207 5 341 41q28 7 39 32t-0.5 49.5t-39.5 31.5q169 26 380 53
q95 12 126 -36.5t11 -141.5l-69.5 -280l-73 -294.5t-62.5 -280t-56 -305.5t-33.5 -297.5t-14.5 -323.5q-1 -23 11 -38.5t29.5 -19t35 0t29.5 19t11 38.5q0 129 8.5 258.5t27.5 260.5t38 240.5t51 249.5l54.5 233.5l61 246l58.5 236.5q21 65 35.5 105t35.5 75.5t41.5 53.5
t54.5 34t73 23t99 14q602 66 1029 95q173 11 302 13q-21 -34 2.5 -66t62.5 -21q56 15 96 41q19 12 29 20t20.5 26.5t10.5 41.5q0 29 -22 48q-10 9 -24 14q-15 6 -39 9q-36 4 -102 4z" />
    <glyph glyph-name="U" unicode="U" horiz-adv-x="2595" 
d="M2180 1238q-23 0 -40 -17q-270 -270 -447 -721q-225 -341 -374 -521q-549 -659 -1016 -659q-76 0 -119 50q-44 51 -60 156q-30 201 48 538q43 183 148 447q17 -31 51.5 -31t50.5 30q61 104 104 227q23 68 27 111q3 33 -6 56q-7 17 -28 32t-41 15q-38 0 -74 -33
q-24 -23 -52 -62q-48 -72 -103 -194q-118 -264 -190 -571q-83 -359 -49 -583q20 -137 86 -214q37 -43 90.5 -66.5t116.5 -23.5q119 0 240 36t230.5 97.5t222 152t211 191.5t201.5 224q22 22 45 36t47 18t46 -11t36 -50q23 -91 82 -142q63 -55 159 -55q222 0 484 195
q117 87 218 198.5t171 231.5q10 20 8 38.5t-15.5 30.5t-30 17t-34.5 -2t-29 -26q-62 -108 -156 -211.5t-202 -183.5q-108 -81 -217 -126.5t-197 -45.5q-52 0 -83 26.5t-45 82.5q-15 57 -8.5 148t34.5 196q8 30 36.5 91t35.5 80q227 345 438 710q17 29 0 58t-51 29z" />
    <glyph glyph-name="V" unicode="V" horiz-adv-x="2463" 
d="M2406 2027h-1q-14 0 -28.5 -9t-21.5 -21q-217 -376 -519.5 -826t-599.5 -834q-323 -419 -561 -655q-125 -125 -218 -189q-43 -30 -79.5 -45.5t-54.5 -15.5q-45 0 -80 32q-38 35 -66 107q-57 146 -61 414q-3 246 37 538.5t106 538.5q2 8 2 15q0 24 -17 41t-41 17
q-19 0 -35.5 -12.5t-21.5 -30.5q-68 -255 -109 -553.5t-37 -555.5q5 -288 69 -454q37 -97 96 -151q68 -62 158 -62q47 0 94.5 20.5t105.5 61.5q101 69 234 202q243 241 571 666q300 388 604 840.5t523 832.5q9 14 9 30q0 24 -17 41t-41 17z" />
    <glyph glyph-name="W" unicode="W" horiz-adv-x="2806" 
d="M2749 2091q-20 0 -36 -12t-21 -32q-62 -234 -189 -519.5t-273 -546.5t-313 -516q-235 -360 -439 -602q-94 -112 -160 -172q-31 -28 -53 -41q-4 -3 -8.5 -5t-6 -2.5t-0.5 -0.5q-44 1 -72 21t-52 66q-49 94 -57 272q-6 162 21.5 362.5t75.5 380.5q9 32 -11 54t-49.5 20.5
t-45.5 -30.5l-52 -90l-60.5 -105l-58.5 -99.5l-67.5 -112l-63.5 -102l-71 -110.5l-68 -99q-133 -187 -240 -285q-55 -51 -104.5 -78t-85.5 -27q-13 0 -19.5 4t-15.5 18q-22 33 -32 104q-20 152 25 412q43 252 135 524.5t201 461.5q25 40 -6 71q-27 27 -60 17q-22 -6 -34 -30
q-117 -202 -211 -481t-140 -544q-47 -276 -25 -446q13 -98 51 -154q22 -33 57 -53t74 -20q122 0 269 135q116 107 256 304q27 36 50 63t46 51t41 36t35 17t29 -3.5t21 -28.5t13.5 -55.5t4.5 -86.5q8 -203 69 -320q35 -68 95.5 -109t135.5 -41q32 0 73 25q30 19 69 54
q72 66 171 183q208 247 447 613q171 261 318 523t277 555.5t196 537.5q7 27 -9.5 50t-44.5 24h-2z" />
    <glyph glyph-name="X" unicode="X" horiz-adv-x="1789" 
d="M611 1528q-122 0 -222 -134q-91 -121 -91 -243q-1 -23 11 -39t29.5 -19.5t35 0t29.5 19.5t11 39q0 35 18.5 84t49 89t66 64t63.5 24q8 0 25 -11.5t39 -36.5q48 -56 108 -173q43 -81 96 -201q43 -111 49.5 -185.5t-18 -135.5t-89.5 -137l-807 -973q-14 -17 -14.5 -36.5
t10.5 -33t26.5 -22t34.5 -4.5t33 21l801 968q72 83 123.5 69t102.5 -138l127 -294.5t129.5 -267t148.5 -251.5t154 -189q15 -16 34 -18t34 7.5t24.5 24t7 33.5t-17.5 35q-67 67 -137 170t-138 235t-126.5 259t-125.5 287q-75 172 -81 187q-27 77 -9 129q17 47 102 148l45 53
q18 -25 49.5 -24t47.5 27l306 485q18 28 2.5 57.5t-49.5 30.5q-28 1 -46 -20l-395 -477l-40.5 -44t-33.5 -31.5t-29.5 -20.5t-26 -6t-25 7.5t-24 24.5t-26.5 40.5t-29 59.5q-53 121 -97 205q-66 128 -123 194q-75 89 -152 89z" />
    <glyph glyph-name="Y" unicode="Y" horiz-adv-x="2470" 
d="M1745 1337h-3q-19 -1 -34 -13t-20 -30q-17 -63 -71.5 -188t-131.5 -277q-180 -351 -393 -682q-248 -386 -459 -611q-110 -117 -210 -183.5t-163 -66.5q-41 0 -69 28q-31 31 -50 95q-39 133 -17 357q20 209 81 405q28 89 62.5 159t61.5 99q16 16 17.5 35.5t-8.5 33.5
t-24.5 23.5t-33.5 6.5t-35 -19q-82 -86 -150 -303q-66 -208 -87 -429q-23 -247 22 -400q27 -93 79 -145q62 -62 151 -62q106 0 217 74t241 213q218 232 472 627q245 365 314 410q43 27 44 -43q1 -66 -53 -348q-7 -37 -8 -43q-35 -157 -113 -318.5t-191 -300.5
q-191 -234 -327 -464q-132 -222 -222.5 -431t-129.5 -377q-40 -175 -16 -279q14 -63 52 -99q43 -40 107 -40q62 0 116.5 38t108.5 107q93 120 194 343q177 394 358 1055q77 217 159.5 357.5t199.5 240.5q369 310 733 407q23 5 35 21t11 33.5t-9 33.5t-26.5 23.5t-40.5 0.5
q-334 -89 -663 -330q-136 -92 -170 -53q-24 28 -12 150q2 16 9 78q28 120 44 207q103 548 106 800v1q0 1 1 7t1 8q0 23 -16.5 40t-40.5 18zM1277 -677q38 -1 -16 -177q-154 -532 -301 -859q-95 -211 -179 -319q-40 -51 -75.5 -76t-58.5 -25q-18 0 -27 8q-13 12 -19 41
q-18 78 16 227q36 155 123.5 358t214.5 417q90 150 213 314q81 92 109 91z" />
    <glyph glyph-name="Z" unicode="Z" horiz-adv-x="3308" 
d="M1714 1551q-97 0 -207 -8q-327 -25 -714.5 -115t-754.5 -233q-21 -8 -31 -25t-7 -34t13 -32t28 -20t39 3q358 139 739 227.5t696 112.5q315 23 492 -21q83 -21 124 -54q17 -15 24 -28t7 -31q0 -72 -52 -176.5t-146 -225.5q-159 -203 -467 -496l-500 -458l-137 -128
t-95.5 -98.5t-71.5 -93.5q-20 -34 4.5 -65t61.5 -20q223 67 497.5 158.5l500.5 169l480.5 158t537 153.5t570.5 128q22 4 34.5 18.5t13 32t-6.5 34t-24 25t-39 4.5q-125 -24 -244.5 -49.5t-245.5 -58l-219 -56t-227.5 -64l-204 -61.5t-215.5 -69l-195 -64l-210 -70.5
l-197 -66.5q-129 -37 -187 -36t-38 49.5t125 155.5l312 288q314 298 479 509q107 137 164.5 252.5t57.5 220.5q0 42 -19.5 81t-53.5 67q-61 50 -169 77q-101 25 -236 31q-42 2 -86 2z" />
    <glyph glyph-name="bracketleft" unicode="[" horiz-adv-x="468" 
d="M361 751q-4 0 -8 -1l-198 -25q-21 -3 -35 -17.5t-16 -35.5l-54 -627q-2 -27 17 -46t46 -17l213 18q22 1 36.5 14.5t17 31t-2.5 34.5t-21.5 27.5t-39.5 8.5q-28 -3 -47.5 -3t-37.5 4.5t-27 15t-16.5 28t-6 43.5t4.5 62l15 181q4 55 12.5 87.5t28.5 53.5t48 30.5t78 16.5
q25 3 38.5 21.5t12.5 39t-16 37.5t-40 18h-2z" />
    <glyph glyph-name="backslash" unicode="\" horiz-adv-x="313" 
d="M106 595h2q21 0 38 -14.5t19 -35.5l98 -635q1 -5 1 -10q0 -24 -17 -41t-41 -17q-22 0 -38.5 14.5t-19.5 36.5l-97 634q-1 5 -1 10q0 23 16.5 40t39.5 18z" />
    <glyph glyph-name="bracketright" unicode="]" horiz-adv-x="468" 
d="M108 751q4 0 8 -1l198 -25q20 -3 34.5 -17.5t16.5 -35.5l54 -627q2 -27 -17 -46t-46 -17l-213 18q-23 1 -37.5 14.5t-16.5 31t3 34.5t21.5 27.5t39.5 8.5q28 -3 47.5 -3t37.5 4.5t27 15t16.5 28t6 43.5t-4.5 62l-15 181q-4 55 -12.5 87.5t-29 53.5t-48 30.5t-77.5 16.5
q-25 3 -38.5 21.5t-13 39t15.5 37.5t41 18h2z" />
    <glyph glyph-name="asciicircum" unicode="^" horiz-adv-x="526" 
d="M328 1092q-18 -1 -33 -13l-222 -174q-9 -8 -16 -21.5t-7 -25.5q0 -24 17 -41t41 -17q21 0 37 13l174 137l51 -72q7 -11 21 -18.5t27 -7.5q24 0 41 17t17 41q0 19 -11 35l-87 122q-7 11 -21 18t-26 7h-3z" />
    <glyph glyph-name="underscore" unicode="_" horiz-adv-x="588" 
d="M111 125h-3q-24 0 -41 -17t-17 -41t17 -41t41 -17l370 -9h2q25 0 42 17t17 41t-17 41t-41 17z" />
    <glyph glyph-name="grave" unicode="`" horiz-adv-x="324" 
d="M-220 1088h3.5h2.5q13 -1 26.5 -9t20.5 -19l108 -171q9 -14 9 -31q0 -24 -17 -41t-41 -17q-13 0 -27.5 8t-21.5 19l-108 172q-10 14 -10 31q0 23 16.5 40t38.5 18z" />
    <glyph glyph-name="a" unicode="a" horiz-adv-x="1053" 
d="M179 528q-69 -2 -136 -76q-53 -59 -86 -140q-36 -87 -28 -151q5 -46 33 -74q32 -32 83 -32q65 10 115 27.5t70 30.5t37.5 20t30 -1t35.5 -36q39 -48 94.5 -72t114 -24t114.5 10.5t100 25.5t92 42t79 48.5t73 58t63 57l59 58.5l14 14q16 15 18 34.5t-7.5 34t-24 24.5
t-34 7.5t-34.5 -18.5l-18 -18l-56.5 -56t-56.5 -51.5t-63 -50.5t-66 -41t-76 -34.5t-82 -20t-95 -8.5q-33 0 -65 13.5t-52 39.5q-55 68 -19 200q10 39 -23 62t-66 0q-2 4 -3 14.5t-5 16.5q-18 29 -52 47.5t-75 18.5h-2zM183 412q10 0 15 -1.5t6.5 -3t4.5 -5.5q9 -15 9 -47
q-1 -25 18 -43q-33 -41 -41 -49q-143 -110 -139 -33q1 15 8 38q25 62 65 106q16 18 31.5 27.5t22.5 10.5z" />
    <glyph glyph-name="b" unicode="b" horiz-adv-x="1035" 
d="M623 1731q-90 0 -178 -98q-71 -79 -141 -220q-130 -259 -227 -640q-49 -181 -73 -327.5t-32 -314.5q-5 -143 19 -225q15 -52 43 -81q36 -39 87 -39q55 0 98.5 33t82.5 91q18 35 27.5 52t22 35.5t19 24.5t19.5 13t21.5 6t28 -1t36.5 -2.5t48.5 -4.5t62.5 -2q143 -5 312 87
q168 92 236 209q10 19 8 38t-15.5 30.5t-30 17t-34.5 -1.5t-29 -26q-23 -40 -75 -85t-116 -80q-65 -35 -133 -55t-119 -18h-2q-55 2 -87.5 10.5t-46.5 20.5t-16 34t2.5 43t10 56.5t4.5 65.5q2 58 -12 94q-10 27 -29 43q-24 22 -57 22q-75 0 -126 -79q-45 -70 -45 -144
q0 -61 33 -116q28 -33 30.5 -73t-10.5 -73.5t-39 -75.5q-24 -35 -45 -49.5t-35 -14.5v-1q-1 1 -2 3q-1 0 -3.5 2.5t-4 4.5t-4.5 7t-5 12q-18 64 -14 188q0 73 15.5 131.5t45 104.5t59 80.5l71.5 82.5t70 87q143 209 258 452q120 255 146 421q16 99 -6 158q-13 37 -48.5 62
t-75.5 25zM633 1615q2 0 3 -3l2 -8q12 -31 1 -100q-24 -150 -137 -390q-111 -234 -249 -435q-58 -80 -72 -43q-12 28 8 108q95 370 219 617q64 128 123 194q54 59 92 60h4h4h2zM338 402q2 -20 2 -22q0 -40 -17 -90q-14 -38 -17 5v18q0 45 24 81q2 4 4.5 5.5t3.5 2.5z" />
    <glyph glyph-name="c" unicode="c" horiz-adv-x="1240" 
d="M247 488q-131 0 -210 -61q-38 -29 -58 -70t-20 -84q0 -47 24.5 -91.5t70.5 -76.5q98 -70 267 -70q516 0 985 271q12 7 21 21.5t9 28.5q0 24 -17 41t-41 17q-16 0 -30 -7q-442 -256 -927 -256q-132 0 -200 49q-46 33 -46 73q0 36 33 62q48 37 139 37q60 0 142 -62
q16 -12 35 -12q24 0 41 17t17 41q0 12 -6.5 25.5t-16.5 21.5q-22 17 -38.5 27.5t-45.5 26t-61.5 23.5t-66.5 8z" />
    <glyph glyph-name="d" unicode="d" horiz-adv-x="955" 
d="M339 1543q-157 0 -296.5 -81t-247.5 -213q-101 -124 -158.5 -265.5t-57.5 -268.5q0 -282 163 -429q4 -4 12 -10l36 -29.5t21.5 -23t13.5 -20t2.5 -23.5t-2.5 -29.5t-9 -41.5q-9 -37 -13 -60q-9 -38 -1 -64q7 -25 27 -40t46 -15q34 0 73 28q27 20 60 55q29 39 57 63
t51.5 34t56 12t59 -1.5t72.5 -7.5t86 -4q108 0 232 32.5t214.5 73t177.5 90.5q19 11 26 29t1.5 34.5t-17 30t-30.5 15.5t-38 -8q-125 -72 -279.5 -126.5t-286.5 -54.5q-52 -1 -84 3t-54 14t-25 29.5t7.5 50t37.5 74.5q99 166 167 317q148 329 153 536q3 132 -54 206
q-32 42 -83.5 65t-115.5 23zM339 1427q76 0 107 -42q32 -42 30 -133t-40.5 -220t-102.5 -272q-82 -182 -237 -423q8 21 0 40t-23.5 28.5t-36 8.5t-36.5 -17q-16 -29 -31.5 -45t-37 -24t-49.5 3t-63 41q-67 61 -95.5 145.5t-28.5 197.5q0 100 51.5 227t138.5 234
q93 115 210.5 183t243.5 68z" />
    <glyph glyph-name="e" unicode="e" horiz-adv-x="1058" 
d="M212 703q-51 0 -92.5 -30.5t-70.5 -79.5q-37 -73 -47 -149.5t12 -151t76 -129.5q100 -98 280 -98q93 0 184.5 15t162.5 35.5t151 56t132.5 63.5l125.5 70q19 11 26 29t2 34.5t-17 30t-30.5 15.5t-38.5 -8q-71 -42 -121 -68.5t-124 -59.5t-138.5 -51.5t-147 -32
t-167.5 -13.5q-133 0 -198 65q-17 25 -18.5 46t8 36t27.5 32t37 31.5t39 37t32 47.5q33 74 24 133q-7 41 -34 66q-30 28 -75 28zM204 580q-1 -29 -13 -56q-26 -54 -44 -53q-15 0 -9 31q3 15 11 32q23 38 55 46z" />
    <glyph glyph-name="f" unicode="f" horiz-adv-x="993" 
d="M277 942q-38 0 -70 -37q-18 -21 -37 -58q-33 -62 -75 -178q-19 -46 -38 -98l-30 -84t-25 -67t-28 -55.5t-34.5 -40t-48.5 -31t-66 -17.5q-195 -33 -293 -60q-21 -5 -32.5 -20.5t-10.5 -33t8.5 -33t25.5 -23.5t39 -2q75 20 231 47q83 16 105 -19t-5 -133l-226 -872
q-6 -22 1.5 -40t23.5 -26t33.5 -9t33 11t20.5 34q7 23 91 354.5t146 555.5q49 186 218 211q257 34 483 57t319 23q22 0 37.5 12t19 29t0 34.5t-19 29.5t-37.5 11q-201 0 -713 -65q-42 -5 -71.5 -3.5t-50 4t-32 9.5t-17 14t-5 17.5t3.5 20t9 21.5q40 80 85 182q46 105 70 174
q14 39 19 63q4 17 4 29q0 17 -7 30q-7 11 -23 21.5t-31 10.5z" />
    <glyph glyph-name="g" unicode="g" horiz-adv-x="1103" 
d="M369 548q-34 0 -50 -29q-4 -7 -14.5 -19t-13.5 -17h-4q-190 0 -314 -86q-57 -39 -88.5 -88.5t-31.5 -103.5q0 -51 30 -82t79 -31q64 0 154 55q120 69 120 33q-1 -17 -14.5 -35t-38.5 -36.5t-42.5 -30l-45.5 -28.5q-175 -105 -315 -214q-165 -129 -302 -268t-243.5 -288
t-166 -306t-59.5 -304q0 -105 34 -200.5t89.5 -162.5t128.5 -106.5t150 -39.5q225 0 397 251q135 197 253 581q88 285 221 870q15 77 39 124.5t60.5 76t101.5 59.5q383 176 651 176q22 -1 38 11t19.5 29.5t0 34.5t-19.5 29t-38 12q-264 0 -612 -146q-119 -47 -138 -24
q-11 13 4 75q0 2 1 5q2 8 2 11q20 87 34 139q7 27 -9.5 49.5t-44.5 23.5h-2zM137 335q27 0 -3 -31q-24 -25 -79 -58q-42 -26 -80 -33q7 49 64 89q70 34 98 33zM134 -76q42 0 17 -112q-117 -515 -201 -785q-112 -367 -238 -550q-69 -101 -142.5 -150.5t-158.5 -49.5
q-43 0 -92.5 29.5t-92.5 79t-71.5 125.5t-28.5 159q0 123 55 263.5t152.5 279t229.5 274t289 258.5q91 71 191 138q3 1 11.5 6t11.5 7t11 6t11.5 6t9.5 5t10 4.5t9 3t9 2.5t8 1z" />
    <glyph glyph-name="h" unicode="h" horiz-adv-x="1076" 
d="M746 1614q-154 0 -298 -160q-120 -133 -229 -372q-110 -293 -178.5 -519t-109.5 -466q-6 -32 16.5 -52.5t52.5 -15t42 36.5q40 98 83 150q52 62 111 62q26 0 56 -21q10 -6 80 -67q60 -52 128 -84.5t157 -32.5q74 0 147.5 20.5t137.5 56t116 76t100 88.5q16 15 18.5 34.5
t-7 34t-24.5 24t-34 7.5t-35 -18q-88 -89 -198 -148t-221 -59q-67 0 -112.5 22t-96.5 67l-26 22.5l-34 29.5t-29 22q-61 43 -123 43q-79 -25 -79 -9q0 14 81 80q61 50 78 67q225 234 391 500q139 222 171 363q21 90 -5 145q-15 33 -51 53t-76 20zM746 1498h11.5t6 -0.5
t2.5 -1t0.5 -2.5t1.5 -3q9 -19 -3 -69q-28 -122 -156 -328q-199 -301 -318 -404q-84 -73 -83 2q1 85 117 342q101 223 209 342q109 122 212 122z" />
    <glyph glyph-name="i" unicode="i" horiz-adv-x="969" 
d="M102 671q-13 -1 -28 -7q-7 -4 -13.5 -8.5t-10.5 -6.5l-3 -3q-12 -11 -12 -27v-2q-6 -8 -6 -19q0 -24 4 -49q3 -25 12 -39q10 -16 25 -21q19 -7 38 3q34 19 45 73q11 50 -5 79q-6 11 -18 18.5t-23 8.5h-5zM57 415h-3.5h-2.5q-18 -1 -33.5 -14t-19.5 -30q-49 -180 -1 -294
q27 -68 94 -108.5t159 -40.5q99 0 195.5 22t177 57.5t160.5 87.5t142 104.5t126 115.5q17 17 17 41t-17 41t-41 17t-41 -17q-76 -75 -151 -134t-165 -111t-193 -80t-210 -28q-67 0 -98.5 18.5t-47.5 58.5q-15 36 -13.5 94.5t19.5 125.5q2 8 2 16q0 23 -16 40t-39 18z" />
    <glyph glyph-name="j" unicode="j" horiz-adv-x="898" 
d="M50 705q-13 0 -28 -7q-7 -3 -13.5 -7.5l-10.5 -7.5l-3 -2q-12 -11 -12 -27v-2q-6 -9 -6 -19q0 -25 4 -49q3 -25 12 -40q10 -15 25 -20q19 -7 38 3q34 19 45 73q11 49 -5 79q-6 11 -18 18.5t-23 7.5h-5zM59 415q-24 1 -41.5 -16t-17.5 -41q0 -199 -56 -299
q-40 -72 -142 -154l-108 -82q-349 -263 -564 -521q-247 -296 -247 -509q0 -70 20 -145t61 -140q47 -75 121 -122t167 -47q232 0 409 205q150 174 255 491q77 234 124 558q8 30 15.5 70.5t12 69.5t15 67t23.5 68t38.5 65.5t60 67t87 66.5t120.5 69q157 77 293 119.5t226 42.5
q22 0 38 12t19.5 29t0 34.5t-19.5 29.5t-38 11q-215 0 -570 -174q-153 -88 -196 -93q-39 -6 -48 38q-6 29 -1 170q1 24 -16 42t-41 18zM-134 -217q40 0 55.5 -47.5t1.5 -143.5q-47 -306 -118 -520q-97 -295 -232 -452q-142 -165 -321 -165q-118 0 -189 115q-31 48 -47.5 110
t-16.5 113q0 81 57.5 195t162.5 239q206 248 545 503q60 52 102 53z" />
    <glyph glyph-name="k" unicode="k" horiz-adv-x="1173" 
d="M404 1373q-17 0 -32 -9.5t-22 -25.5q-275 -611 -487 -1402q-6 -21 1.5 -38.5t23 -25.5t33 -9t33 10.5t21.5 32.5q68 188 85 220q25 44 54 35q20 -7 85 -64l68 -58q138 -112 278 -112q53 0 105 7.5t95 18.5t88.5 31.5t79 38.5t75 48t67 50.5t64 56l58.5 55l57 56.5l24 25
q16 15 18 34.5t-7.5 34t-24 24t-33.5 7.5t-35 -18l-29 -29l-54.5 -54.5l-54 -51.5t-58 -51t-58.5 -44.5t-64.5 -41.5t-67.5 -32.5t-75.5 -26.5t-80 -15.5t-89.5 -6.5q-45 0 -101.5 24t-103.5 62q-59 47 -86 111q20 12 48 37q52 44 98 107q49 66 65 115q13 39 3 68
q-8 26 -31 40q-19 13 -44 13q-39 0 -73 -17.5t-76 -51.5q-71 -72 -72 -29q1 29 49 169q118 339 235 599q14 29 -3 56t-49 27z" />
    <glyph glyph-name="l" unicode="l" horiz-adv-x="1621" 
d="M553 1620q-45 0 -79.5 -24.5t-74.5 -73.5q-66 -79 -136 -215q-69 -135 -128.5 -300.5t-96.5 -334.5q-17 -92 -27 -164.5t-16 -160t1.5 -169.5t28.5 -155q44 -151 147 -234q112 -90 285 -90q221 0 428 61t386 163q159 92 276.5 198.5t173.5 203.5q11 20 9 39t-15.5 31
t-30 17.5t-35 -2t-28.5 -27.5q-45 -77 -154 -176.5t-254 -182.5q-166 -95 -359 -152t-397 -57q-132 0 -213 65q-74 59 -108 175q-25 128 1 250t106 264q154 274 251 474q111 228 145 357q23 83 14 132q-6 39 -30 62q-28 26 -70 26zM535 1489q-1 -34 -8 -59
q-32 -118 -137 -336q-138 -308 -178 -319q-23 -7 1 90q42 169 153 389q64 124 122 194l14 15.5t11.5 11t8.5 6.5t7.5 4.5t5.5 3.5z" />
    <glyph glyph-name="m" unicode="m" horiz-adv-x="1957" 
d="M296 464q-54 0 -119 -49q-12 -9 -65 -60v1q0 24 -17 41t-41 17q-17 0 -33 -11.5t-22 -27.5l-110 -309q-3 -9 -3 -19q0 -24 17 -41t41 -17q14 0 28.5 8.5t21.5 20.5q67 115 162 220q49 54 90 84q24 18 46 25l4 -5q10 -13 31 -55q26 -51 45 -74q41 -50 97 -50q13 0 26 2.5
t22.5 5.5t21 10t18 11.5t17 14t14 13.5t14 15l12.5 13q29 31 42 41q5 4 9 6l5 2.5l1 0.5q19 0 64 -39q16 -14 56.5 -53.5l65.5 -62.5q42 -38 83 -67t95.5 -57.5t120 -44.5t136.5 -16q152 0 386 102q263 114 372 261q12 16 12 35q0 24 -17 41t-41 17q-12 0 -26 -7t-21 -17
q-44 -59 -132 -118.5t-193 -105.5q-96 -41 -192.5 -66.5t-147.5 -25.5q-111 0 -194 41.5t-163 113.5q-22 19 -62.5 59t-61.5 58q-37 33 -69 50.5t-71 17.5q-44 0 -86 -33q-19 -15 -55 -52q-14 -16 -28.5 -28t-22.5 -17t-10 -5t-8 8q-11 13 -31 52q-26 52 -41 73
q-40 52 -93 52z" />
    <glyph glyph-name="n" unicode="n" horiz-adv-x="1384" 
d="M324 483q-64 0 -133 -58q-9 -6 -18 -14.5t-14 -14l-13 -14.5t-11.5 -12.5t-8.5 -6t-8.5 2t-6.5 15.5q-9 23 -34 32t-48.5 -3t-29.5 -42l-66 -307q-7 -31 13 -52t49 -19t45 30q86 149 139 220q47 63 87 96q36 31 58 31q24 0 67 -43q14 -14 30 -32l42.5 -49.5t36.5 -44.5
q37 -44 68 -74.5t76 -65t96.5 -52t107.5 -17.5q201 0 397 116q82 49 144 106.5t95 115.5q11 19 8.5 38t-16 30.5t-29.5 17t-34 -1.5t-29 -26q-22 -39 -76 -89t-123 -91q-168 -100 -337 -100q-70 0 -130.5 43.5t-128.5 124.5q-10 11 -36 43l-44 52.5t-36 38.5q-77 76 -149 76
z" />
    <glyph glyph-name="o" unicode="o" horiz-adv-x="965" 
d="M71 589q-52 0 -95.5 -26.5t-70.5 -69.5q-54 -88 -26 -195q2 -5 7.5 -15.5l7.5 -14.5q-3 -5 -10.5 -14.5t-10.5 -15.5q-26 -50 -32 -84q-5 -30 5 -53q7 -17 27.5 -30t38.5 -13q37 0 75 19q18 6 34 5t52 -8t71.5 -15t92 -15t112.5 -7h1q106 2 201 19.5t165.5 43.5t135.5 64
t108.5 73t86.5 77q16 16 18 35t-7.5 34t-24 24.5t-34 7t-34.5 -18.5q-40 -39 -76.5 -69t-93 -63.5t-117.5 -55.5t-146 -37.5t-183 -17.5q-132 10 -154 16q-41 10 -39 43q1 27 30 87q47 103 32 178q-10 52 -48.5 82t-98.5 30zM71 473q20 0 27 -5q4 -3 6 -13q6 -29 -21 -97
q-2 31 -28 47t-54 4q2 3 1.5 12.5t1.5 11.5q25 40 67 40z" />
    <glyph glyph-name="p" unicode="p" horiz-adv-x="620" 
d="M356 541q-77 0 -147 -66q-44 -42 -95 -134v4q5 22 -3.5 39.5t-25 24t-34 6.5t-32.5 -13t-19 -35l-245 -1252q-6 -27 8.5 -46t35.5 -23.5t42 6t27 36.5q5 18 66 300t115 468q11 33 24 52t27.5 25t25.5 5.5t27 -4.5q17 -8 36 -8q47 0 82 27t70 75q56 77 94 187l0.5 1.5
t0.5 2.5q85 39 130 54q12 5 89 25q23 -1 39 11t19.5 29.5t0 35t-19.5 29.5t-39 11q-18 0 -40.5 -5t-36.5 -9.5l-50 -16.5q-11 -4 -35 -14.5t-32 -13.5q0 7 5 25.5t5 27.5q-3 53 -25 86q-14 21 -39 34t-51 13zM351 422q3 -9 4 -19q1 -20 -20 -104q-16 -7 -91 -57
q-55 -36 -56 -18q-1 11 16 46q44 81 85 121q31 29 62 31zM256 114q-1 -3 -4 -9.5t-5 -8.5q-4 -5 -6.5 -7.5t-5.5 -4.5t-6 -5q3 4 6 10t6.5 11t11.5 12q1 0 2 0.5t1 1.5z" />
    <glyph glyph-name="q" unicode="q" horiz-adv-x="1021" 
d="M361 552q-34 0 -50 -29q-6 -11 -16.5 -20t-21 -14.5t-29 -9.5t-30.5 -5.5l-34.5 -4.5t-32.5 -4q-61 -9 -117 -35q-74 -34 -122.5 -96t-48.5 -143q0 -45 29 -81q16 -20 42.5 -33.5t56.5 -13.5q23 0 50 4.5t45 8.5t36 5.5t27 -3.5t14 -19.5t1.5 -42.5t-14.5 -72
q-76 -301 -179 -842q-6 -34 18.5 -54t54.5 -12.5t40 40.5q44 164 151.5 364t247.5 379q145 185 304 315t293 166q21 6 32.5 21.5t10.5 32.5t-9 33t-25.5 23.5t-38.5 1.5q-164 -44 -332 -182t-326 -339q-127 -190 -150 -206q-13 -9 -12 12q0 16 32 173l2 14q9 36 32 142
t35.5 158.5t36.5 136.5t51 152q11 28 -5.5 53t-46.5 26h-2zM149 337q45 -1 9 -44q-45 -53 -90 -83.5t-81 -30.5q-6 0 -8 3q-4 5 -4 9q0 85 104 134q46 12 70 12z" />
    <glyph glyph-name="r" unicode="r" horiz-adv-x="847" 
d="M252 506h-4q-70 0 -122 -142q0 -1 -1 -4l-9 -19q-1 0 -1 7q3 22 -7.5 38.5t-27 22t-33.5 4t-31 -15.5t-16 -36l-41 -366q-4 -31 17.5 -50t49.5 -15t42 32l122 242q19 33 31 50.5t23 29t20.5 11t19.5 -7.5t24 -23q121 -141 244 -141q52 0 102.5 12.5t87.5 30.5t76.5 46.5
t63 50l54.5 51.5q15 15 17.5 34.5t-7.5 34t-24.5 24t-33.5 7.5t-35 -18q-35 -36 -61.5 -58.5t-65 -48t-82 -38t-92.5 -12.5q-34 0 -76 28t-80 72q-47 54 -95 138q-17 29 -49 29z" />
    <glyph glyph-name="s" unicode="s" horiz-adv-x="477" 
d="M87 499q-32 0 -56 -23q-17 -16 -26 -41q-5 -15 -8 -58q-5 -14 -3 -29q0 -39 4 -102q7 -29 -8 -73t-42 -86q-58 -87 -58 -160q0 -43 19 -74q11 -20 33.5 -34t47.5 -14q28 0 54 14t41 35q25 33 34 90q9 53 2 176q4 4 11.5 15t13.5 16q74 67 167.5 107t195.5 40
q23 0 38.5 12t19 29t0 34.5t-19 29.5t-38.5 11q-150 0 -293 -79l-33 -17q-41 -24 -58 -22t-14 45q2 3 15 17t17 23q13 28 12 50q-1 26 -16 44q-20 24 -52 24z" />
    <glyph glyph-name="t" unicode="t" horiz-adv-x="1344" 
d="M754 1547q-30 0 -59.5 -13.5t-48.5 -28.5t-53 -47q-80 -74 -174 -199q-62 -82 -121 -177q-21 -36 -35 -56.5t-36 -43.5t-45.5 -34.5t-58.5 -19t-80 -7.5l-134 -9q-22 -1 -37 -14t-17 -30.5t2.5 -34.5t20.5 -28t39 -9q148 6 177 -7q26 -12 14 -53q-5 -16 -28 -72
q-54 -131 -86 -283v0q-4 -8 -5 -17q-38 -188 -5 -319q37 -147 155 -226q123 -82 327 -82q112 0 215 19t186.5 51t160.5 78.5t136.5 97t113.5 111.5t93 116.5t74 116.5q10 20 8 38.5t-15.5 30.5t-30 17t-34.5 -2t-29 -26q-33 -58 -67.5 -108t-83 -105.5t-100.5 -100.5
t-120.5 -86.5t-143 -69.5t-168 -45t-195.5 -17q-169 0 -263 63q-80 54 -106 158q-6 46 -8.5 69.5t-4 55.5t2.5 51t12 43t22.5 45t36.5 44q49 54 117 139l150 194l24 34t19 28.5t15.5 20t15.5 16.5t16.5 10t20 8.5t24.5 4t33 4.5t42 3l128 8q6 -31 34.5 -43.5t54.5 4.5l93 58
q24 15 27.5 41.5t-14 46.5t-45.5 19h-3l-168 -11q-35 -4 -57 -5t-34 4.5t-15.5 13t3 26t17.5 37l32 52.5q73 117 113 200q43 90 47 143q3 44 -18 73q-13 17 -34 26.5t-42 9.5zM717 1404q-14 -45 -21 -59q-48 -101 -151 -259q-4 -6 -15 -21l-14.5 -19.5t-12.5 -17t-13 -16.5
t-12 -13.5t-13.5 -12.5t-13.5 -9t-15 -8l-16 -4.5t-19 -2.5q-65 0 105 219q4 6 6 8q87 117 160 184q9 8 16 13.5t10 7.5t9.5 5.5t9.5 4.5zM308 801q18 1 0 -33.5t-55 -85.5q-51 -55 -47 -21q3 19 23 65q30 69 72 74q4 1 7 1z" />
    <glyph glyph-name="u" unicode="u" horiz-adv-x="1184" 
d="M462 482h-2q-33 -1 -49 -28q-80 -139 -162 -225q-48 -50 -94.5 -77.5t-82.5 -27.5q-49 0 -58 43q-6 26 9 64.5t59 82.5q16 15 18.5 34.5t-7.5 34t-24.5 24t-33.5 7.5t-35 -18q-61 -61 -86.5 -127t-13.5 -126q13 -59 61.5 -97t110.5 -38q126 0 260 141q32 28 51 -11
q36 -54 96 -80.5t129 -26.5q173 0 355 80.5t304 202.5q16 15 18 34.5t-7.5 34t-24 24t-33.5 7.5t-35 -18q-102 -102 -268.5 -175.5t-308.5 -73.5q-42 0 -77 15t-51 40q-43 65 32 194q16 28 -0.5 56.5t-49.5 29.5z" />
    <glyph glyph-name="v" unicode="v" horiz-adv-x="490" 
d="M473 724q-24 -1 -40.5 -18t-16.5 -41q0 -12 -9.5 -47t-24.5 -74q-34 -87 -87 -182q-54 -97 -101 -157q-14 -20 -31.5 -13t-25.5 38q-21 89 -21 182q1 23 -11 38.5t-29.5 19t-35 0t-29.5 -19t-11 -38.5q0 -107 24 -209q15 -62 36 -99q37 -64 94 -64q24 0 40.5 8.5
t35.5 24.5q25 22 55 60q54 68 111 173q57 102 94 195q42 107 42 164q0 24 -17 41.5t-42 17.5z" />
    <glyph glyph-name="w" unicode="w" horiz-adv-x="732" 
d="M690 670h-4q-19 -1 -34 -13.5t-19 -30.5q-18 -66 -55.5 -150t-81.5 -154q-49 -76 -96 -118q-41 -36 -70 -37l-4 6q-12 19 -19 57q-8 40 -6.5 87t10.5 80q6 21 -1.5 39t-23.5 25.5t-33 8.5t-32.5 -10.5t-21.5 -32.5q-37 -139 -74 -220q-32 -70 -32 -7q1 68 19 141
q6 21 -1.5 39t-23.5 25.5t-33 8.5t-32.5 -10.5t-21.5 -32.5q-26 -98 -30 -198q-3 -61 7 -98q8 -29 24 -48q11 -12 28 -20.5t35 -8.5q57 0 105 57q18 26 25.5 34t12.5 8.5t11.5 -7t16.5 -16t34.5 -16t59.5 -8.5q73 0 149 68q58 52 115 142q51 79 91 169t61 167q8 28 -9.5 51
t-45.5 23z" />
    <glyph glyph-name="x" unicode="x" horiz-adv-x="1051" 
d="M374 499q-24 0 -41 -17q-25 -19 -50 -44t-41 -43.5l-32.5 -36t-28.5 -25t-25.5 -6.5t-26.5 15t-28 43q-11 19 -29.5 26t-34.5 1.5t-29.5 -17t-15.5 -30.5t8 -38l19 -29l21 -32.5t9 -25t0 -23.5t-15.5 -26.5t-28.5 -35l-48 -48.5q-11 -11 -15.5 -24.5t-2 -25t9.5 -22.5
t17.5 -17.5t22.5 -9.5t25.5 1.5t24.5 15.5l12 12l32 29.5t24 20l19.5 15t15.5 6.5t14.5 1.5t13.5 -6.5t16.5 -10.5t19.5 -17.5q163 -142 320 -142q221 1 418 157q72 57 126 120.5t84 116.5q17 29 0.5 58t-49.5 30q-35 0 -52 -30q-23 -41 -71 -98t-110 -106
q-166 -131 -346 -132q-114 0 -243 113q-16 15 -20.5 31t-1.5 30t18.5 34.5t29 35.5t41.5 42q22 5 35 23l36 49q21 29 5 60.5t-52 31.5z" />
    <glyph glyph-name="y" unicode="y" horiz-adv-x="1160" 
d="M464 501q-34 0 -50 -29q-80 -137 -144 -211q-118 -135 -225 -135q-7 0 -7.5 0.5t-4.5 5.5q-9 15 -9 45q0 33 16 72.5t40 63.5q17 15 20 34.5t-6.5 35t-24 25.5t-34 7.5t-35.5 -18.5q-45 -44 -68.5 -102t-23.5 -118q-1 -65 29 -109q16 -25 45.5 -41.5t62.5 -16.5
q90 -2 210 75q42 27 46 24q3 -3 -1 -16q-7 -20 -29.5 -42.5t-42 -36.5t-49.5 -33q-217 -137 -382.5 -287t-269.5 -299q-193 -276 -194 -494q0 -112 55 -179q29 -36 72.5 -55t94.5 -19q162 0 323 201q129 161 261 455q72 159 143 361q6 15 15 41q14 41 21 60l19.5 50.5
t20 46.5l20.5 39.5t25 37.5l29 31.5t35.5 32t42 28.5t51.5 29q304 151 630 238q42 9 46 50q3 36 -25 56q-22 15 -51 6q-250 -67 -493 -173q-161 -91 -194 -71q-23 14 0 100q5 20 19 68q18 59 27 93q7 27 -9.5 49.5t-44.5 23.5h-2zM174 -172q33 1 15 -73q-7 -26 -19 -61
q-70 -194 -137 -343q-125 -280 -246 -430q-125 -157 -232 -157q-52 0 -77 31q-29 35 -29 105q1 81 44.5 193.5t128.5 234.5q164 235 455 450q69 50 97 50z" />
    <glyph glyph-name="z" unicode="z" horiz-adv-x="1286" 
d="M285 532q-80 0 -154.5 -38.5t-130.5 -98.5q-16 -17 -17.5 -36t8.5 -33.5t25 -24t34.5 -6t34.5 19.5q127 83 95 32q-26 -40 -143 -155q-18 -18 -17.5 -41.5t15.5 -38.5t36 -20t44 14q69 56 162 92t182 36q26 0 36 -4.5t17 -17.5q17 -30 9 -97q-10 -37 -68 -97.5
t-124.5 -114.5l-149.5 -122.5t-122 -106.5q-216 -212 -307 -379q-47 -87 -46 -144q1 -44 29.5 -71.5t74.5 -27.5q86 0 172 53t181 149q172 173 311 419q78 171 159.5 265t177.5 147q264 145 521 214q42 9 46 50q3 36 -25 56q-22 15 -51 6q-213 -57 -431 -164
q-41 -21 -65.5 -32.5t-50.5 -22t-39.5 -14t-29.5 -2.5t-23.5 6.5t-17 19t-16 29t-15.5 40.5q-22 37 -63 58.5t-90 21.5q-36 -4 -57 -1t-28 16.5t-6 46.5q12 42 -6 74q-21 37 -69 44q-4 1 -8 1zM385 -207q21 0 -14 -63q-132 -232 -292 -394q-69 -70 -135.5 -111t-115.5 -49
q8 35 24 63q37 69 111.5 161.5t174.5 190.5q47 50 134.5 126t112.5 76z" />
    <glyph glyph-name="braceleft" unicode="{" horiz-adv-x="542" 
d="M396 736q-76 0 -138 -84q-34 -47 -78 -144q-49 -109 -60 -129q-13 -23 -22 -32q-24 -4 -37 -22.5t-11.5 -39t17 -37t40.5 -16.5q11 0 16.5 -5t15.5 -24q17 -33 35 -119q23 -108 37 -143q16 -40 38 -63q34 -34 80 -34q54 0 93 29.5t62 68.5q10 20 8 38.5t-15.5 30.5
t-30 17t-34.5 -2t-29 -26q-12 -22 -22 -30t-30 -8q-7 8 -12 22q-10 26 -31 124q-22 101 -46 148q-5 7 -14.5 18t-12.5 16t-2.5 13.5t8.5 18.5q14 25 65 138q39 86 66 123q5 7 9 11t6.5 5.5l6 3.5t5.5 3q11 -29 38.5 -36.5t51 9t23.5 47.5q0 41 -17 67q-11 19 -34 31t-45 12z
" />
    <glyph glyph-name="bar" unicode="|" horiz-adv-x="233" 
d="M125 723q-24 0 -41 -17t-17 -41l-10 -694v-1q0 -24 17 -41t41 -17t41 17t17 40l10 694v2q0 24 -17 41t-41 17z" />
    <glyph glyph-name="braceright" unicode="}" horiz-adv-x="542" 
d="M147 736q76 0 137 -84q34 -47 78 -144q49 -109 61 -129q12 -23 21 -32h1q24 -4 36.5 -22.5t11 -39t-16.5 -37t-40 -16.5q-12 0 -17 -5t-15 -24q-17 -33 -36 -119q-23 -108 -36 -143q-16 -40 -39 -63q-33 -34 -79 -34q-54 0 -93.5 29.5t-61.5 68.5q-11 20 -8.5 38.5
t16 30.5t29.5 17t34 -2t29 -26q13 -22 22.5 -30t29.5 -8q7 8 13 22q10 26 31 124q21 101 46 148q5 7 14 18t12 16t2.5 13.5t-7.5 18.5q-14 25 -66 138q-38 86 -66 123q-4 7 -8.5 11t-6.5 5.5t-6 3.5t-5 3q-11 -29 -38.5 -36.5t-51 9t-23.5 47.5q0 41 16 67q11 19 34 31
t46 12z" />
    <glyph glyph-name="asciitilde" unicode="~" horiz-adv-x="809" 
d="M266 369q-72 -2 -124.5 -41t-83.5 -93q-8 -13 -8 -29q0 -24 17 -41t41 -17q14 0 29 8.5t21 20.5q43 74 109 76q7 0 12 -1t8.5 -2.5t9 -5.5t8.5 -7l11 -10.5l14 -13.5q76 -70 175 -70q80 0 146 27.5t101 87.5q8 14 8 30q0 24 -17 41t-41 17q-14 0 -29 -8.5t-22 -20.5
q-15 -27 -53.5 -42.5t-92.5 -15.5q-26 0 -44.5 5.5t-26.5 11.5t-25 23q-2 1 -5 4q-20 19 -34 30t-43.5 23.5t-59.5 12.5h-1z" />
    <glyph glyph-name="exclamdown" unicode="&#xa1;" horiz-adv-x="225" 
d="M123 670q-13 0 -28 -7q-7 -3 -14 -7.5t-10 -7.5l-3 -2q-12 -11 -12 -27v-2q-6 -9 -6 -19q-1 -25 3 -49q4 -25 13 -40t24 -20q19 -7 38 3q34 19 46 73q11 49 -5 79q-6 11 -18 18.5t-23 7.5h-5zM50 19v-3q0 -24 17 -41t41 -17t41 17t17 41l9 370v2q0 25 -17 42t-41 17
t-41 -17t-17 -41z" />
    <glyph glyph-name="cent" unicode="&#xa2;" horiz-adv-x="756" 
d="M377 623q-2 1 -3 0q-21 -1 -36.5 -14.5t-18.5 -34.5q-11 -69 -34.5 -104t-90.5 -78q-144 -93 -144 -205q0 -50 29.5 -90t73.5 -56q40 -15 52 -41t7 -71q-4 -22 5.5 -39t26 -23t33.5 -5.5t31.5 13.5t18.5 35q13 66 34 95.5t67 41.5q146 34 248 93q19 11 26.5 29t2 34
t-17.5 29.5t-30.5 16t-38.5 -8.5q-54 -31 -150 -61q-60 -15 -76.5 1.5t-7.5 76.5q4 47 24 82.5t54 43.5q24 6 35 25t8.5 38.5t-18 35t-39.5 15.5q-24 2 -14 58q4 27 -13 47.5t-44 20.5zM246 271q23 1 14 -56q-5 -46 -18.5 -59t-48.5 -6q-19 7 -23 12t-4 25q0 21 23 49l8 7
t12 10t11.5 8t14 7.5t11.5 2.5z" />
    <glyph glyph-name="sterling" unicode="&#xa3;" horiz-adv-x="932" 
d="M646 667q-58 0 -103 -36t-91 -101q-37 -52 -79 -130l-18 -37l-18 -36.5t-16 -23.5t-16.5 -16.5t-24.5 -8.5t-32.5 -6.5t-48.5 -4.5q-10 -1 -15 -2q-22 -1 -36.5 -14.5t-16.5 -31t3 -34.5t22 -27.5t39 -7.5q33 6 25 -30q-6 -33 -39 -85q-30 -48 -53 -71q-7 -6 -12.5 -9.5
t-7 -4t-0.5 -0.5q-27 0 -43 -18t-16 -40t16 -40t43 -18q60 0 108 -8.5t112 -25.5q49 -13 72 -18.5t69 -12.5t88 -7q73 0 136 27t103.5 70t63.5 97t23 109q1 23 -11 38.5t-29.5 19t-35 0t-29.5 -19t-11 -38.5q0 -32 -13 -64t-37.5 -60t-66 -45.5t-93.5 -17.5q-35 0 -72.5 5.5
t-59 11l-68.5 17.5q-35 11 -51.5 17t-25 13t-8 13t6.5 18l20 33l31.5 52t26 39t24 31t26 20.5t30.5 15.5l37.5 9t48.5 8.5t62 5.5q27 2 41.5 21t13 40.5t-18 38.5t-43.5 16h-4q-37 -4 -59.5 -2t-34.5 8t-8 25t21.5 49t53.5 80q30 42 58 65t41 23q20 0 26 -7t3 -25
q-3 -22 7 -38.5t26.5 -22.5t34 -4.5t31.5 15t17 35.5q8 63 -36 113t-109 50z" />
    <glyph glyph-name="currency" unicode="&#xa4;" horiz-adv-x="582" 
d="M442 556q-13 0 -26.5 -8t-20.5 -19l-28 -44q-20 9 -42 9q-68 0 -117 -43q-22 -18 -39 -45l-17 20q-7 8 -20 14t-24 6h-2q-23 -1 -39.5 -18t-16.5 -40t15 -39l53 -59q-35 -50 -35 -94q-1 -54 28 -92q3 -4 9 -10l-49 -83q-8 -14 -8 -30q0 -24 17 -41t41 -17q14 0 28.5 8.5
t21.5 20.5l66 112q62 13 117 59l84 -69q16 -13 37 -13q24 0 41 17t17 41q0 11 -6 24t-15 21l-82 67q32 54 32 110q0 37 -15 74l46 71q10 15 10 32q0 24 -17 41t-41 17h-3zM322 378l1 -1l4 -4t5 -7q14 -23 14 -45q0 -12 -8.5 -32.5t-23.5 -40.5q-10 -8 -15 -18
q-43 -45 -96 -52q-4 7 -4 16q0 20 13 41q12 3 23 14t15 22q8 6 12 8q12 7 21 22t9 29q0 17 -10 32q1 0 1 0.5t1 1.5q15 13 38 14z" />
    <glyph glyph-name="yen" unicode="&#xa5;" horiz-adv-x="708" 
d="M600.5 680h-2.5q-27 -1 -44 -23l-130 -167q-39 -53 -64 -52t-42 62l-57 141q-8 21 -25 31t-34 7t-32 -13t-20 -28.5t3 -39.5l84 -210q23 -48 9 -67t-92 -34q-22 -4 -35 -18.5t-13 -32t6.5 -34t24 -25.5t39.5 -4l48 6q18 2 22 -12q5 -18 -26 -27l-127 -37
q-21 -6 -32.5 -21.5t-10.5 -33t9.5 -33.5t26.5 -23t39 -1q63 16 88 14t27.5 -21t-1.5 -52l-12 -101q-3 -27 13 -45t38 -20.5t41.5 11t23.5 40.5l15 132q4 61 24 91t54 40l148 42q23 7 34 26t8.5 38.5t-18.5 35t-41 14.5q-8 0 -15 -2l-138 -42q-11 -1 -12 10q0 12 15 18
l133 25q25 4 37 23t10 39.5t-18 36.5t-41 16q-5 0 -10 -2q-25 -4 -36.5 -2t-6.5 15.5t28 43.5l133 171q22 28 7.5 60.5t-50.5 33.5h-2.5z" />
    <glyph glyph-name="dieresis" unicode="&#xa8;" horiz-adv-x="383" 
d="M123 980q-13 0 -28 -7q-7 -3 -14 -7.5t-10 -7.5l-3 -2q-12 -11 -12 -27v-2q-6 -9 -6 -19q-1 -25 3 -49q4 -25 13 -40t24 -20q19 -7 38 3q34 19 46 73q11 49 -5 79q-6 11 -18 18.5t-23 7.5h-5zM277 980q-13 0 -27 -7q-8 -3 -14.5 -7.5t-9.5 -7.5l-3 -2q-13 -11 -13 -27v-2
q-6 -9 -6 -19q0 -25 4 -49q4 -25 13 -40t24 -20q19 -7 38 3q34 19 46 73q10 49 -6 79q-6 11 -18 18.5t-23 7.5h-5z" />
    <glyph glyph-name="copyright" unicode="&#xa9;" horiz-adv-x="1024" 
 />
    <glyph glyph-name="ordfeminine" unicode="&#xaa;" horiz-adv-x="1024" 
 />
    <glyph glyph-name="guillemotleft" unicode="&#xab;" horiz-adv-x="657" 
d="M316 328q0 -18 12 -33l175 -222q7 -9 20.5 -16t25.5 -7q25 0 42 17t17 41q0 21 -14 37l-137 174l73 51q10 7 17.5 21t7.5 27q0 24 -17 41t-41 17q-19 0 -34 -11l-123 -87q-10 -7 -17 -21t-7 -26v-3zM50 328q1 -18 12 -33l175 -222q8 -9 21.5 -16t25.5 -7q24 0 41 17
t17 41q0 21 -13 37l-137 174l72 51q11 7 18.5 21t7.5 27q0 24 -17 41t-41 17q-19 0 -35 -11l-122 -87q-11 -7 -18 -21t-7 -26v-3z" />
    <glyph glyph-name="uni00AD" unicode="&#xad;" horiz-adv-x="588" 
d="M111 310h-3q-24 0 -41 -17t-17 -41t17 -41t41 -17l370 -9h2q25 0 42 17t17 41t-17 41t-41 17z" />
    <glyph glyph-name="registered" unicode="&#xae;" horiz-adv-x="1024" 
 />
    <glyph glyph-name="macron" unicode="&#xaf;" horiz-adv-x="588" 
d="M111 926h-3q-24 0 -41 -17t-17 -41t17 -41t41 -17l370 -9h2q25 0 42 17t17 41t-17 41t-41 17z" />
    <glyph glyph-name="degree" unicode="&#xb0;" horiz-adv-x="369" 
d="M171 1051l-25 -1q-25 -1 -41 -21q-10 -2 -20 -10.5t-15 -16.5q-28 -48 -17 -109q7 -35 27 -59q27 -33 71 -35h1h1q41 0 75.5 16.5t55.5 42.5q36 44 36 99q0 24 -15.5 45t-33.5 30q-23 12 -58 17q-19 2 -42 2zM175 934q9 0 20 -1q-1 0 -1 -1v-2q-3 -2 -26 -9q1 10 1 13h6z
" />
    <glyph glyph-name="plusminus" unicode="&#xb1;" horiz-adv-x="588" 
d="M111 149h-3q-24 0 -41 -17t-17 -41t17 -41t41 -17l370 -9h2q25 0 42 17t17 41t-17 41t-41 17zM299 611q-22 -1 -38.5 -16.5t-17.5 -37.5l-7 -79l-32 4h-9q-24 0 -41 -17t-17 -41q0 -21 15.5 -38t37.5 -19l36 -5l-10 -112v-5q0 -24 17 -41t41 -17q22 0 39 15.5t19 37.5
l9 108l99 -11q5 -1 9 -1q24 0 41 17t17 41q0 18 -12.5 34.5t-30.5 21.5l-10 2l-103 12l7 83v6q0 18 -12.5 34.5t-29.5 21.5q-3 1 -6 1q-5 1 -10 1h-1z" />
    <glyph glyph-name="acute" unicode="&#xb4;" horiz-adv-x="324" 
d="M220 1088h-3.5h-2.5q-13 -1 -26.5 -9t-20.5 -19l-108 -171q-9 -14 -9 -31q0 -24 17 -41t41 -17q13 0 27.5 8t21.5 19l108 172q10 14 10 31q0 23 -16.5 40t-38.5 18z" />
    <glyph glyph-name="periodcentered" unicode="&#xb7;" horiz-adv-x="255" 
d="M123 333q-13 0 -28 -7q-7 -3 -14 -7.5t-10 -7.5l-3 -2q-12 -11 -12 -27v-2q-6 -9 -6 -19q-1 -25 3 -49q4 -25 13 -40t24 -20q19 -7 38 3q34 19 46 73q11 49 -5 79q-6 11 -18 18.5t-23 7.5h-5z" />
    <glyph glyph-name="cedilla" unicode="&#xb8;" horiz-adv-x="360" 
d="M150 0q-16 0 -31 -11t-21 -26l-44 -104q-4 -11 -4 -22q0 -24 17 -41t41 -17q16 0 29 7q25 15 49 7q3 -1 7 -2l1 -1v-1q0 -11 -4 -17t-17 -14q-24 -16 -75 -30q-18 -5 -30.5 -21.5t-12.5 -34.5q0 -24 17 -41t41 -17q8 0 15 2q69 19 109 45q31 20 52 54t21 74t-26 71
t-62 43q-4 2 -12.5 -0.5t-12.5 -2.5l8 19q5 11 5 23q0 24 -17 41t-41 17h-2z" />
    <glyph glyph-name="ordmasculine" unicode="&#xba;" horiz-adv-x="369" 
d="M171 1051l-25 -1q-25 -1 -41 -21q-10 -2 -20 -10.5t-15 -16.5q-28 -48 -17 -109q7 -35 27 -59q27 -33 71 -35h1h1q41 0 75.5 16.5t55.5 42.5q36 44 36 99q0 24 -15.5 45t-33.5 30q-23 12 -58 17q-19 2 -42 2zM175 934q9 0 20 -1q-1 0 -1 -1v-2q-3 -2 -26 -9q1 10 1 13h6z
" />
    <glyph glyph-name="guillemotright" unicode="&#xbb;" horiz-adv-x="657" 
d="M342 328q-1 -18 -13 -33l-174 -222q-8 -9 -21.5 -16t-25.5 -7q-24 0 -41 17t-17 41q0 21 13 37l137 174l-72 51q-11 7 -18.5 21t-7.5 27q0 24 17 41t41 17q19 0 35 -11l122 -87q11 -7 18 -21t7 -26v-3zM607 328q0 -18 -12 -33l-175 -222q-7 -9 -20.5 -16t-25.5 -7
q-24 0 -41 17t-17 41q0 21 13 37l137 174l-73 51q-10 7 -17.5 21t-7.5 27q0 24 17 41t41 17q19 0 34 -11l123 -87q10 -7 17.5 -21t7.5 -26q0 -1 -1 -3z" />
    <glyph glyph-name="questiondown" unicode="&#xbf;" horiz-adv-x="522" 
d="M284 -285q-83 0 -158 67q-76 69 -76 147q1 23 18 39.5t40.5 16.5t40.5 -16.5t17 -39.5q0 -8 10.5 -26.5t27.5 -34.5q18 -16 41 -26.5t39 -10.5q20 0 31.5 4t16 9t10.5 16q14 26 14 76q0 23 -27 57q-9 11 -38.5 44t-47.5 56q-139 174 -139 422q0 24 17 41t41 17t41 -17
t17 -41q0 -125 30 -204t83 -145l44.5 -51t42.5 -50q52 -66 52 -129q0 -78 -27 -130q-21 -39 -64 -65t-97 -26zM165 646q-13 0 -28 7q-7 4 -13.5 8.5l-9.5 6.5l-4 3q-12 11 -12 26v3q-6 8 -6 19q0 24 4 49t12 39q10 15 25 21q19 7 38 -3q34 -19 45 -73q11 -50 -5 -79
q-6 -11 -18 -18.5t-23 -8.5h-5z" />
    <glyph glyph-name="Agrave" unicode="&#xc0;" 
d="M2025 2176h-2h-4q-23 -2 -38.5 -19t-15.5 -39q0 -8 2 -16l30 -119q4 -19 21 -32.5t36 -13.5q24 0 41 17t17 41q0 8 -2 16l-31 120q-4 18 -20 31t-34 14zM2113 1719q-41 0 -80 -18t-86 -53q-47 -29 -126 -106q-26 -24 -26 -17q1 10 42 95q10 20 6.5 39t-18 30t-31 15.5
t-34 -4t-27.5 -29.5l-349 -708q-6 -9 -18 -24t-18 -25l-152 -245q-23 -47 -43 -78.5t-46.5 -57t-52 -40.5t-67.5 -28t-84.5 -21.5t-111.5 -17.5q-378 -55 -748 -154q-21 -6 -32.5 -21.5t-10.5 -33t9 -33t25.5 -23t38.5 -1.5q363 97 732 150q140 32 157 -10q12 -29 -33 -127
q0 -1 -31 -66q-155 -331 -224 -587q-8 -32 12.5 -54.5t51 -19.5t44.5 33l338 685q22 49 36 76t35 53t40 37t54 21.5t73.5 14t102.5 6.5q262 12 553 6q45 0 74 -3t51 -12.5t33 -21.5t18.5 -37t9 -52t1.5 -74q3 -150 14 -268q17 -196 54.5 -329t115.5 -211q16 -16 35 -18.5
t34 7t24.5 24.5t7 34t-18.5 35q-51 51 -86.5 174.5t-50.5 293.5q-8 98 -12 219q-4 64 -2.5 108t19 70t55 35.5t106.5 5.5q127 -7 269 -17l317 -23t270 -19q22 -3 38.5 8t21.5 28t2.5 34.5t-17 30.5t-37.5 14l-271 20l-319.5 23t-271.5 18q-43 2 -70 6.5t-48 14.5t-32 22
t-17.5 36t-8.5 49t-2 68q5 177 4.5 373.5t-11.5 321.5q-15 154 -50 237q-23 52 -56 81q-41 35 -94 35zM2113 1603q10 0 18 -7q13 -11 25 -40q28 -64 41 -201q11 -117 11.5 -310t-4.5 -372q-1 -33 -2.5 -50.5t-5 -40t-9 -32.5t-16 -22.5t-24.5 -17.5t-35.5 -9.5t-49 -5.5
t-64.5 0q-112 2 -217 1q-133 0 -261 -5q-154 -9 -184 21q-23 25 7 99l29 65l112 228q218 328 368 494q93 103 165 157q31 24 58 36t38 12z" />
    <glyph glyph-name="Aacute" unicode="&#xc1;" 
d="M2052 2176h2h4q22 -2 38 -19t16 -39q0 -8 -2 -16l-31 -119q-4 -19 -20.5 -32.5t-35.5 -13.5q-24 0 -41 17t-17 41q0 8 2 16l30 120q5 18 21 31t34 14zM2113 1719q-41 0 -80 -18t-86 -53q-47 -29 -126 -106q-26 -24 -26 -17q1 10 42 95q10 20 6.5 39t-18 30t-31 15.5
t-34 -4t-27.5 -29.5l-349 -708q-6 -9 -18 -24t-18 -25l-152 -245q-23 -47 -43 -78.5t-46.5 -57t-52 -40.5t-67.5 -28t-84.5 -21.5t-111.5 -17.5q-378 -55 -748 -154q-21 -6 -32.5 -21.5t-10.5 -33t9 -33t25.5 -23t38.5 -1.5q363 97 732 150q140 32 157 -10q12 -29 -33 -127
q0 -1 -31 -66q-155 -331 -224 -587q-8 -32 12.5 -54.5t51 -19.5t44.5 33l338 685q22 49 36 76t35 53t40 37t54 21.5t73.5 14t102.5 6.5q262 12 553 6q45 0 74 -3t51 -12.5t33 -21.5t18.5 -37t9 -52t1.5 -74q3 -150 14 -268q17 -196 54.5 -329t115.5 -211q16 -16 35 -18.5
t34 7t24.5 24.5t7 34t-18.5 35q-51 51 -86.5 174.5t-50.5 293.5q-8 98 -12 219q-4 64 -2.5 108t19 70t55 35.5t106.5 5.5q127 -7 269 -17l317 -23t270 -19q22 -3 38.5 8t21.5 28t2.5 34.5t-17 30.5t-37.5 14l-271 20l-319.5 23t-271.5 18q-43 2 -70 6.5t-48 14.5t-32 22
t-17.5 36t-8.5 49t-2 68q5 177 4.5 373.5t-11.5 321.5q-15 154 -50 237q-23 52 -56 81q-41 35 -94 35zM2113 1603q10 0 18 -7q13 -11 25 -40q28 -64 41 -201q11 -117 11.5 -310t-4.5 -372q-1 -33 -2.5 -50.5t-5 -40t-9 -32.5t-16 -22.5t-24.5 -17.5t-35.5 -9.5t-49 -5.5
t-64.5 0q-112 2 -217 1q-133 0 -261 -5q-154 -9 -184 21q-23 25 7 99l29 65l112 228q218 328 368 494q93 103 165 157q31 24 58 36t38 12z" />
    <glyph glyph-name="Acircumflex" unicode="&#xc2;" 
d="M1990 2269q-18 -1 -33 -13l-222 -175q-9 -7 -16 -20.5t-7 -25.5q0 -24 17 -41t41 -17q21 0 37 13l174 137l51 -73q7 -10 21 -17.5t27 -7.5q24 0 41 17t17 41q0 19 -11 34l-87 123q-7 10 -21 17.5t-26 7.5h-3zM2113 1719q-41 0 -80 -18t-86 -53q-47 -29 -126 -106
q-26 -24 -26 -17q1 10 42 95q10 20 6.5 39t-18 30t-31 15.5t-34 -4t-27.5 -29.5l-349 -708q-6 -9 -18 -24t-18 -25l-152 -245q-23 -47 -43 -78.5t-46.5 -57t-52 -40.5t-67.5 -28t-84.5 -21.5t-111.5 -17.5q-378 -55 -748 -154q-21 -6 -32.5 -21.5t-10.5 -33t9 -33t25.5 -23
t38.5 -1.5q363 97 732 150q140 32 157 -10q12 -29 -33 -127q0 -1 -31 -66q-155 -331 -224 -587q-8 -32 12.5 -54.5t51 -19.5t44.5 33l338 685q22 49 36 76t35 53t40 37t54 21.5t73.5 14t102.5 6.5q262 12 553 6q45 0 74 -3t51 -12.5t33 -21.5t18.5 -37t9 -52t1.5 -74
q3 -150 14 -268q17 -196 54.5 -329t115.5 -211q16 -16 35 -18.5t34 7t24.5 24.5t7 34t-18.5 35q-51 51 -86.5 174.5t-50.5 293.5q-8 98 -12 219q-4 64 -2.5 108t19 70t55 35.5t106.5 5.5q127 -7 269 -17l317 -23t270 -19q22 -3 38.5 8t21.5 28t2.5 34.5t-17 30.5t-37.5 14
l-271 20l-319.5 23t-271.5 18q-43 2 -70 6.5t-48 14.5t-32 22t-17.5 36t-8.5 49t-2 68q5 177 4.5 373.5t-11.5 321.5q-15 154 -50 237q-23 52 -56 81q-41 35 -94 35zM2113 1603q10 0 18 -7q13 -11 25 -40q28 -64 41 -201q11 -117 11.5 -310t-4.5 -372q-1 -33 -2.5 -50.5
t-5 -40t-9 -32.5t-16 -22.5t-24.5 -17.5t-35.5 -9.5t-49 -5.5t-64.5 0q-112 2 -217 1q-133 0 -261 -5q-154 -9 -184 21q-23 25 7 99l29 65l112 228q218 328 368 494q93 103 165 157q31 24 58 36t38 12z" />
    <glyph glyph-name="Atilde" unicode="&#xc3;" 
d="M1870 2197q-51 0 -95 -37q-39 -32 -49 -70q-2 -8 -2 -16q0 -24 17 -41t41 -17q18 0 34.5 13t21.5 31q-1 -4 1 -1q6 9 10 12q12 10 21 10q14 0 24 -6t35 -26q72 -58 141 -58q130 0 218 88q18 17 18 42q0 24 -17 41t-41 17q-25 0 -42 -17q-32 -33 -56 -44t-80 -11
q-20 0 -32 6.5t-36 25.5q-21 17 -33.5 26t-41.5 20.5t-57 11.5zM2113 1719q-41 0 -80 -18t-86 -53q-47 -29 -126 -106q-26 -24 -26 -17q1 10 42 95q10 20 6.5 39t-18 30t-31 15.5t-34 -4t-27.5 -29.5l-349 -708q-6 -9 -18 -24t-18 -25l-152 -245q-23 -47 -43 -78.5
t-46.5 -57t-52 -40.5t-67.5 -28t-84.5 -21.5t-111.5 -17.5q-378 -55 -748 -154q-21 -6 -32.5 -21.5t-10.5 -33t9 -33t25.5 -23t38.5 -1.5q363 97 732 150q140 32 157 -10q12 -29 -33 -127q0 -1 -31 -66q-155 -331 -224 -587q-8 -32 12.5 -54.5t51 -19.5t44.5 33l338 685
q22 49 36 76t35 53t40 37t54 21.5t73.5 14t102.5 6.5q262 12 553 6q45 0 74 -3t51 -12.5t33 -21.5t18.5 -37t9 -52t1.5 -74q3 -150 14 -268q17 -196 54.5 -329t115.5 -211q16 -16 35 -18.5t34 7t24.5 24.5t7 34t-18.5 35q-51 51 -86.5 174.5t-50.5 293.5q-8 98 -12 219
q-4 64 -2.5 108t19 70t55 35.5t106.5 5.5q127 -7 269 -17l317 -23t270 -19q22 -3 38.5 8t21.5 28t2.5 34.5t-17 30.5t-37.5 14l-271 20l-319.5 23t-271.5 18q-43 2 -70 6.5t-48 14.5t-32 22t-17.5 36t-8.5 49t-2 68q5 177 4.5 373.5t-11.5 321.5q-15 154 -50 237
q-23 52 -56 81q-41 35 -94 35zM2113 1603q10 0 18 -7q13 -11 25 -40q28 -64 41 -201q11 -117 11.5 -310t-4.5 -372q-1 -33 -2.5 -50.5t-5 -40t-9 -32.5t-16 -22.5t-24.5 -17.5t-35.5 -9.5t-49 -5.5t-64.5 0q-112 2 -217 1q-133 0 -261 -5q-154 -9 -184 21q-23 25 7 99l29 65
l112 228q218 328 368 494q93 103 165 157q31 24 58 36t38 12z" />
    <glyph glyph-name="Adieresis" unicode="&#xc4;" 
d="M1944 2085q-13 0 -27 -7q-7 -3 -14 -7.5t-10 -7.5l-3 -2q-12 -11 -12 -27v-2q-6 -9 -6 -19q-1 -25 3 -49q4 -25 13 -40t24 -20q19 -7 38 3q34 19 46 73q10 49 -6 79q-6 11 -17.5 18.5t-23.5 7.5h-5zM2136 2085q-13 0 -27 -7q-7 -3 -14 -7.5t-10 -7.5l-3 -2
q-12 -11 -12 -27v-2q-6 -9 -6 -19q-1 -25 3 -49q4 -25 13 -40t24 -20q19 -7 38 3q34 19 46 73q10 49 -6 79q-6 11 -17.5 18.5t-23.5 7.5h-5zM2113 1719q-41 0 -80 -18t-86 -53q-47 -29 -126 -106q-26 -24 -26 -17q1 10 42 95q10 20 6.5 39t-18 30t-31 15.5t-34 -4
t-27.5 -29.5l-349 -708q-6 -9 -18 -24t-18 -25l-152 -245q-23 -47 -43 -78.5t-46.5 -57t-52 -40.5t-67.5 -28t-84.5 -21.5t-111.5 -17.5q-378 -55 -748 -154q-21 -6 -32.5 -21.5t-10.5 -33t9 -33t25.5 -23t38.5 -1.5q363 97 732 150q140 32 157 -10q12 -29 -33 -127
q0 -1 -31 -66q-155 -331 -224 -587q-8 -32 12.5 -54.5t51 -19.5t44.5 33l338 685q22 49 36 76t35 53t40 37t54 21.5t73.5 14t102.5 6.5q262 12 553 6q45 0 74 -3t51 -12.5t33 -21.5t18.5 -37t9 -52t1.5 -74q3 -150 14 -268q17 -196 54.5 -329t115.5 -211q16 -16 35 -18.5
t34 7t24.5 24.5t7 34t-18.5 35q-51 51 -86.5 174.5t-50.5 293.5q-8 98 -12 219q-4 64 -2.5 108t19 70t55 35.5t106.5 5.5q127 -7 269 -17l317 -23t270 -19q22 -3 38.5 8t21.5 28t2.5 34.5t-17 30.5t-37.5 14l-271 20l-319.5 23t-271.5 18q-43 2 -70 6.5t-48 14.5t-32 22
t-17.5 36t-8.5 49t-2 68q5 177 4.5 373.5t-11.5 321.5q-15 154 -50 237q-23 52 -56 81q-41 35 -94 35zM2113 1603q10 0 18 -7q13 -11 25 -40q28 -64 41 -201q11 -117 11.5 -310t-4.5 -372q-1 -33 -2.5 -50.5t-5 -40t-9 -32.5t-16 -22.5t-24.5 -17.5t-35.5 -9.5t-49 -5.5
t-64.5 0q-112 2 -217 1q-133 0 -261 -5q-154 -9 -184 21q-23 25 7 99l29 65l112 228q218 328 368 494q93 103 165 157q31 24 58 36t38 12z" />
    <glyph glyph-name="Aring" unicode="&#xc5;" 
d="M2048 2165l-25 -1q-26 -2 -42 -21q-10 -3 -20 -11t-15 -17q-28 -47 -17 -109q7 -35 27 -58q27 -33 71 -36h1h1q41 0 75.5 16.5t55.5 42.5q36 44 36 99q0 25 -15.5 45.5t-33.5 30.5q-23 12 -58 16q-19 2 -41 3zM2051 2048q9 0 20 -1q-1 -1 -1 -2v-1q-3 -3 -26 -10
q1 10 1 14h6zM2113 1719q-41 0 -80 -18t-86 -53q-47 -29 -126 -106q-26 -24 -26 -17q1 10 42 95q10 20 6.5 39t-18 30t-31 15.5t-34 -4t-27.5 -29.5l-349 -708q-6 -9 -18 -24t-18 -25l-152 -245q-23 -47 -43 -78.5t-46.5 -57t-52 -40.5t-67.5 -28t-84.5 -21.5t-111.5 -17.5
q-378 -55 -748 -154q-21 -6 -32.5 -21.5t-10.5 -33t9 -33t25.5 -23t38.5 -1.5q363 97 732 150q140 32 157 -10q12 -29 -33 -127q0 -1 -31 -66q-155 -331 -224 -587q-8 -32 12.5 -54.5t51 -19.5t44.5 33l338 685q22 49 36 76t35 53t40 37t54 21.5t73.5 14t102.5 6.5
q262 12 553 6q45 0 74 -3t51 -12.5t33 -21.5t18.5 -37t9 -52t1.5 -74q3 -150 14 -268q17 -196 54.5 -329t115.5 -211q16 -16 35 -18.5t34 7t24.5 24.5t7 34t-18.5 35q-51 51 -86.5 174.5t-50.5 293.5q-8 98 -12 219q-4 64 -2.5 108t19 70t55 35.5t106.5 5.5q127 -7 269 -17
l317 -23t270 -19q22 -3 38.5 8t21.5 28t2.5 34.5t-17 30.5t-37.5 14l-271 20l-319.5 23t-271.5 18q-43 2 -70 6.5t-48 14.5t-32 22t-17.5 36t-8.5 49t-2 68q5 177 4.5 373.5t-11.5 321.5q-15 154 -50 237q-23 52 -56 81q-41 35 -94 35zM2113 1603q10 0 18 -7q13 -11 25 -40
q28 -64 41 -201q11 -117 11.5 -310t-4.5 -372q-1 -33 -2.5 -50.5t-5 -40t-9 -32.5t-16 -22.5t-24.5 -17.5t-35.5 -9.5t-49 -5.5t-64.5 0q-112 2 -217 1q-133 0 -261 -5q-154 -9 -184 21q-23 25 7 99l29 65l112 228q218 328 368 494q93 103 165 157q31 24 58 36t38 12z" />
    <glyph glyph-name="Ccedilla" unicode="&#xc7;" horiz-adv-x="3169" 
d="M572 -628q-16 0 -31.5 -11t-21.5 -26l-43 -104q-5 -11 -5 -22q0 -24 17 -41t41 -17q16 0 29 7q25 15 49 7q3 -1 7 -2l2 -1l-1 -1q0 -11 -3.5 -16.5t-17.5 -14.5q-24 -16 -75 -30q-17 -5 -30 -21.5t-13 -34.5q0 -24 17 -41t41 -17q8 0 15 2q70 19 109 45q31 20 52 54
t21 74t-26 71t-62 43q-4 2 -12.5 -0.5t-12.5 -2.5l8 19q5 11 5 23q0 24 -17 41t-41 17h-1zM1407 1342q-134 0 -275.5 -37t-274.5 -104.5t-257 -155.5t-237 -194q-230 -217 -368.5 -459.5t-138.5 -456.5q0 -147 50 -266t145 -199q187 -157 523 -157q677 0 1409 314
q358 153 871 452l182 106l208 121q12 7 20.5 21.5t8.5 28.5q0 24 -17 41t-41 17q-15 0 -29 -7l-202 -118q-471 -276 -725 -404q-635 -320 -1182 -413q-253 -43 -503 -43q-293 0 -448 130q-154 129 -154 376q0 176 130 404t340 427q219 207 476 333.5t489 126.5q39 0 48 -14
t-1 -44q-14 -40 -57.5 -80t-99.5 -53q-19 -4 -32 -21t-13 -36q0 -24 17 -41t41 -17q7 0 15 2q88 21 151 78.5t88 130.5q27 83 -12 144q-21 32 -59.5 49.5t-85.5 17.5z" />
    <glyph glyph-name="Egrave" unicode="&#xc8;" horiz-adv-x="2870" 
d="M1097 2011h-2h-4q-23 -2 -38.5 -19t-15.5 -39q0 -8 2 -16l30 -119q4 -19 21 -32.5t36 -13.5q24 0 41 17t17 41q0 8 -2 16l-31 120q-4 18 -20 31t-34 14zM1445 1577h-25q-28 0 -57 -2q-210 -14 -489 -98q-247 -76 -453.5 -177.5t-301.5 -197.5q-16 -15 -18 -34t7.5 -33.5
t24 -24.5t33.5 -7.5t35 17.5l71 44q88 56 111 59q22 2 25 -24q2 -25 -11 -82q-38 -152 -66 -287q-15 -45 -31.5 -76t-36.5 -49.5t-36.5 -28.5t-43 -24t-43.5 -25l-115 -80q-16 -11 -22 -28t-1 -32.5t16 -28.5t28.5 -16t36.5 5q66 33 102 43t54 0t19.5 -40t-0.5 -79
q-31 -314 24 -504q29 -101 85.5 -169.5t134.5 -101.5q138 -58 358 -12q90 19 190.5 51.5t229 87.5l214.5 94l249 116l67 31l277.5 128.5l264.5 114t292 111.5t271 81q21 6 33 21t11 32.5t-8.5 33.5t-25 23.5t-39.5 2.5q-136 -35 -279.5 -84t-299.5 -114.5l-266.5 -115.5
l-279.5 -129l-215 -100.5l-189 -85t-198.5 -84t-161 -57.5t-161.5 -44q-184 -39 -289 5q-55 23 -92.5 69.5t-60.5 126.5q-49 166 -17 474q20 129 31 159q20 55 78 91q39 23 121 58q172 71 348.5 127.5t479.5 137.5q24 6 35.5 25t8.5 38.5t-18.5 35t-39.5 15.5q-8 0 -16 -2
q-271 -72 -453 -131t-352 -128q-119 -62 -143 -41q-18 16 -1 100q1 6 15 66q29 131 66 274l12 40t13 34.5t17.5 32.5t24 27.5t35 28t47.5 25t64 26.5q80 30 158 54q161 48 313 72t284 16t208 -52q17 -10 32 -8.5t28 9t19.5 21t8 27.5t-6 28t-23.5 24q-128 73 -326 74z" />
    <glyph glyph-name="Eacute" unicode="&#xc9;" horiz-adv-x="2870" 
d="M1124 2011h2h4q22 -2 38 -19t16 -39q0 -8 -2 -16l-31 -119q-4 -19 -20.5 -32.5t-35.5 -13.5q-24 0 -41 17t-17 41q0 8 2 16l30 120q5 18 21 31t34 14zM1445 1577h-25q-28 0 -57 -2q-210 -14 -489 -98q-247 -76 -453.5 -177.5t-301.5 -197.5q-16 -15 -18 -34t7.5 -33.5
t24 -24.5t33.5 -7.5t35 17.5l71 44q88 56 111 59q22 2 25 -24q2 -25 -11 -82q-38 -152 -66 -287q-15 -45 -31.5 -76t-36.5 -49.5t-36.5 -28.5t-43 -24t-43.5 -25l-115 -80q-16 -11 -22 -28t-1 -32.5t16 -28.5t28.5 -16t36.5 5q66 33 102 43t54 0t19.5 -40t-0.5 -79
q-31 -314 24 -504q29 -101 85.5 -169.5t134.5 -101.5q138 -58 358 -12q90 19 190.5 51.5t229 87.5l214.5 94l249 116l67 31l277.5 128.5l264.5 114t292 111.5t271 81q21 6 33 21t11 32.5t-8.5 33.5t-25 23.5t-39.5 2.5q-136 -35 -279.5 -84t-299.5 -114.5l-266.5 -115.5
l-279.5 -129l-215 -100.5l-189 -85t-198.5 -84t-161 -57.5t-161.5 -44q-184 -39 -289 5q-55 23 -92.5 69.5t-60.5 126.5q-49 166 -17 474q20 129 31 159q20 55 78 91q39 23 121 58q172 71 348.5 127.5t479.5 137.5q24 6 35.5 25t8.5 38.5t-18.5 35t-39.5 15.5q-8 0 -16 -2
q-271 -72 -453 -131t-352 -128q-119 -62 -143 -41q-18 16 -1 100q1 6 15 66q29 131 66 274l12 40t13 34.5t17.5 32.5t24 27.5t35 28t47.5 25t64 26.5q80 30 158 54q161 48 313 72t284 16t208 -52q17 -10 32 -8.5t28 9t19.5 21t8 27.5t-6 28t-23.5 24q-128 73 -326 74z" />
    <glyph glyph-name="Ecircumflex" unicode="&#xca;" horiz-adv-x="2870" 
d="M1062 2046q-19 0 -34 -12l-222 -175q-9 -7 -16 -20.5t-7 -25.5q0 -24 17 -41t41 -17q21 0 37 13l174 137l51 -73q7 -10 21 -17.5t27 -7.5q24 0 41 17t17 41q0 19 -11 34l-87 123q-7 10 -20.5 17.5t-26.5 7.5q-1 0 -2 -1zM1445 1577h-25q-28 0 -57 -2q-210 -14 -489 -98
q-247 -76 -453.5 -177.5t-301.5 -197.5q-16 -15 -18 -34t7.5 -33.5t24 -24.5t33.5 -7.5t35 17.5l71 44q88 56 111 59q22 2 25 -24q2 -25 -11 -82q-38 -152 -66 -287q-15 -45 -31.5 -76t-36.5 -49.5t-36.5 -28.5t-43 -24t-43.5 -25l-115 -80q-16 -11 -22 -28t-1 -32.5
t16 -28.5t28.5 -16t36.5 5q66 33 102 43t54 0t19.5 -40t-0.5 -79q-31 -314 24 -504q29 -101 85.5 -169.5t134.5 -101.5q138 -58 358 -12q90 19 190.5 51.5t229 87.5l214.5 94l249 116l67 31l277.5 128.5l264.5 114t292 111.5t271 81q21 6 33 21t11 32.5t-8.5 33.5t-25 23.5
t-39.5 2.5q-136 -35 -279.5 -84t-299.5 -114.5l-266.5 -115.5l-279.5 -129l-215 -100.5l-189 -85t-198.5 -84t-161 -57.5t-161.5 -44q-184 -39 -289 5q-55 23 -92.5 69.5t-60.5 126.5q-49 166 -17 474q20 129 31 159q20 55 78 91q39 23 121 58q172 71 348.5 127.5
t479.5 137.5q24 6 35.5 25t8.5 38.5t-18.5 35t-39.5 15.5q-8 0 -16 -2q-271 -72 -453 -131t-352 -128q-119 -62 -143 -41q-18 16 -1 100q1 6 15 66q29 131 66 274l12 40t13 34.5t17.5 32.5t24 27.5t35 28t47.5 25t64 26.5q80 30 158 54q161 48 313 72t284 16t208 -52
q17 -10 32 -8.5t28 9t19.5 21t8 27.5t-6 28t-23.5 24q-128 73 -326 74z" />
    <glyph glyph-name="Edieresis" unicode="&#xcb;" horiz-adv-x="2870" 
d="M970 2085q-13 0 -27 -7q-7 -3 -14 -7.5t-10 -7.5l-3 -2q-12 -11 -12 -27v-2q-6 -9 -6 -19q-1 -25 3 -49q4 -25 13 -40t24 -20q19 -7 38 3q34 19 46 73q10 49 -6 79q-6 11 -17.5 18.5t-23.5 7.5h-5zM1162 2085q-13 0 -27 -7q-7 -3 -14 -7.5t-10 -7.5l-3 -2
q-12 -11 -12 -27v-2q-6 -9 -6 -19q-1 -25 3 -49q4 -25 13 -40t24 -20q19 -7 38 3q34 19 46 73q10 49 -6 79q-6 11 -17.5 18.5t-23.5 7.5h-5zM1445 1577h-25q-28 0 -57 -2q-210 -14 -489 -98q-247 -76 -453.5 -177.5t-301.5 -197.5q-16 -15 -18 -34t7.5 -33.5t24 -24.5
t33.5 -7.5t35 17.5l71 44q88 56 111 59q22 2 25 -24q2 -25 -11 -82q-38 -152 -66 -287q-15 -45 -31.5 -76t-36.5 -49.5t-36.5 -28.5t-43 -24t-43.5 -25l-115 -80q-16 -11 -22 -28t-1 -32.5t16 -28.5t28.5 -16t36.5 5q66 33 102 43t54 0t19.5 -40t-0.5 -79q-31 -314 24 -504
q29 -101 85.5 -169.5t134.5 -101.5q138 -58 358 -12q90 19 190.5 51.5t229 87.5l214.5 94l249 116l67 31l277.5 128.5l264.5 114t292 111.5t271 81q21 6 33 21t11 32.5t-8.5 33.5t-25 23.5t-39.5 2.5q-136 -35 -279.5 -84t-299.5 -114.5l-266.5 -115.5l-279.5 -129
l-215 -100.5l-189 -85t-198.5 -84t-161 -57.5t-161.5 -44q-184 -39 -289 5q-55 23 -92.5 69.5t-60.5 126.5q-49 166 -17 474q20 129 31 159q20 55 78 91q39 23 121 58q172 71 348.5 127.5t479.5 137.5q24 6 35.5 25t8.5 38.5t-18.5 35t-39.5 15.5q-8 0 -16 -2
q-271 -72 -453 -131t-352 -128q-119 -62 -143 -41q-18 16 -1 100q1 6 15 66q29 131 66 274l12 40t13 34.5t17.5 32.5t24 27.5t35 28t47.5 25t64 26.5q80 30 158 54q161 48 313 72t284 16t208 -52q17 -10 32 -8.5t28 9t19.5 21t8 27.5t-6 28t-23.5 24q-128 73 -326 74z" />
    <glyph glyph-name="Igrave" unicode="&#xcc;" horiz-adv-x="501" 
d="M390 2156h-2h-4q-23 -2 -38.5 -19t-15.5 -39q0 -8 2 -16l30 -119q4 -19 21 -32.5t36 -13.5q24 0 41 17t17 41q0 8 -2 16l-31 120q-4 18 -20 31t-34 14zM394 1815q-19 0 -35 -13.5t-20 -32.5q-38 -178 -70.5 -359t-60.5 -388.5l-46.5 -351t-42.5 -389.5l-34 -351.5
l-35 -379.5v-6q0 -23 16.5 -39.5t40.5 -16.5q21 0 38 15t18 37l35 379t34 351t42.5 386.5l46 349.5t59.5 384.5t70 355.5q1 6 1 12q0 24 -16.5 40.5t-40.5 16.5z" />
    <glyph glyph-name="Iacute" unicode="&#xcd;" horiz-adv-x="501" 
d="M417 2156h2h4q22 -2 38 -19t16 -39q0 -8 -2 -16l-31 -119q-4 -19 -20.5 -32.5t-35.5 -13.5q-24 0 -41 17t-17 41q0 8 2 16l30 120q5 18 21 31t34 14zM394 1815q-19 0 -35 -13.5t-20 -32.5q-38 -178 -70.5 -359t-60.5 -388.5l-46.5 -351t-42.5 -389.5l-34 -351.5
l-35 -379.5v-6q0 -23 16.5 -39.5t40.5 -16.5q21 0 38 15t18 37l35 379t34 351t42.5 386.5l46 349.5t59.5 384.5t70 355.5q1 6 1 12q0 24 -16.5 40.5t-40.5 16.5z" />
    <glyph glyph-name="Icircumflex" unicode="&#xce;" horiz-adv-x="501" 
d="M461 2117q-19 0 -34 -12l-222 -175q-9 -7 -16 -20.5t-7 -25.5q0 -24 17 -41t41 -17q21 0 37 13l174 137l51 -73q7 -10 21 -17.5t27 -7.5q24 0 41 17t17 41q0 19 -11 34l-87 123q-7 10 -20.5 17.5t-26.5 7.5q-1 0 -2 -1zM394 1815q-19 0 -35 -13.5t-20 -32.5
q-38 -178 -70.5 -359t-60.5 -388.5l-46.5 -351t-42.5 -389.5l-34 -351.5l-35 -379.5v-6q0 -23 16.5 -39.5t40.5 -16.5q21 0 38 15t18 37l35 379t34 351t42.5 386.5l46 349.5t59.5 384.5t70 355.5q1 6 1 12q0 24 -16.5 40.5t-40.5 16.5z" />
    <glyph glyph-name="Idieresis" unicode="&#xcf;" horiz-adv-x="501" 
d="M338 2062q-13 0 -27 -7q-7 -3 -14 -7.5t-10 -7.5l-3 -2q-12 -11 -12 -27v-2q-6 -9 -6 -19q-1 -25 3 -49q4 -25 13 -40t24 -20q19 -7 38 3q34 19 46 73q10 49 -6 79q-6 11 -17.5 18.5t-23.5 7.5h-5zM530 2062q-13 0 -27 -7q-7 -3 -14 -7.5t-10 -7.5l-3 -2q-12 -11 -12 -27
v-2q-6 -9 -6 -19q-1 -25 3 -49q4 -25 13 -40t24 -20q19 -7 38 3q34 19 46 73q10 49 -6 79q-6 11 -17.5 18.5t-23.5 7.5h-5zM394 1815q-19 0 -35 -13.5t-20 -32.5q-38 -178 -70.5 -359t-60.5 -388.5l-46.5 -351t-42.5 -389.5l-34 -351.5l-35 -379.5v-6q0 -23 16.5 -39.5
t40.5 -16.5q21 0 38 15t18 37l35 379t34 351t42.5 386.5l46 349.5t59.5 384.5t70 355.5q1 6 1 12q0 24 -16.5 40.5t-40.5 16.5z" />
    <glyph glyph-name="Eth" unicode="&#xd0;" horiz-adv-x="3482" 
d="M883 1277h-55q-217 -3 -398 -30q-182 -27 -290 -73q-60 -26 -94 -57q-46 -42 -46 -95q0 -39 36 -66q19 -14 50 -25q43 -15 117 -26q127 -19 199 -16q44 0 56 39q11 37 -14 62q-18 18 -47 15q-6 0 -32 1t-68.5 5t-76.5 9q-46 7 -84 18q23 18 49 29q94 40 262 65
q101 15 219 22q31 3 55.5 1t42.5 -4t31 -12t21.5 -22t14 -34t8 -48t2.5 -65l-1 -335q-1 -29 23 -47q-9 -266 -11 -320q-3 -34 -6 -56.5t-9.5 -46.5t-11 -39t-19 -34t-25 -30t-36 -29t-45 -29t-60 -31.5l-72.5 -35.5l-90 -42q-180 -89 -276 -186q-112 -112 -112 -237
q0 -62 38 -113t98 -76q106 -45 291 -37q170 7 383.5 56t440.5 131q231 83 443.5 190t377.5 228q136 100 225 199q78 95 168 142.5t254 74.5q394 31 710 31q28 0 43.5 18t15.5 40t-15.5 40t-43.5 18q-337 0 -789 -39q-167 -9 -185 130q-25 162 -131 290.5t-273 221.5
q-328 182 -859 239q-197 21 -399 21zM1083 1155h4q93 -5 183 -15q236 -25 447.5 -81.5t367.5 -143.5q287 -159 339 -393q32 -122 -57 -165q-44 -21 -164 -38q-466 -59 -839 -141q-233 -48 -275 -52q-81 -8 -104 25q-19 27 -17 111q17 346 18 518q0 118 -6 204
q-3 102 17.5 136.5t85.5 34.5zM2193 193q144 0 59 -107q-47 -59 -159 -141q-156 -115 -362.5 -219t-429.5 -184q-220 -63 -283 -56q-48 5 -61 51q-8 25 -11 97q-1 59 0 126q3 34 4 52t7 42.5t10 35.5t20 28.5t26.5 25t41.5 22t54 22t73.5 22.5t91 25l115.5 29
q296 66 693 119q66 11 111 10zM764 -130q33 0 49.5 -25t16.5 -83q-2 -138 2 -213q3 -38 0 -66t-16.5 -47.5t-41 -32.5t-74.5 -21q-103 -17 -188 -20q-159 -7 -240 27q-38 17 -52 34.5t-14 48.5q0 77 78 156q82 83 245 163l70.5 28l67.5 27t50.5 16.5t46.5 7.5z" />
    <glyph glyph-name="Ntilde" unicode="&#xd1;" horiz-adv-x="3290" 
d="M456 983q-19 0 -34 -11t-21 -30q-72 -218 -132 -444.5t-109.5 -474t-81.5 -427.5t-77 -458h1q0 -2 -1 -5t-1 -5q0 -25 16.5 -40.5t37 -17.5t39 11t22.5 38q1 4 2.5 12.5t2.5 12.5q4 70 45 173t112 221q148 245 387 520q227 262 436 437q102 85 178 130q34 20 63.5 31
t40.5 11q17 0 25.5 -4.5t19.5 -19.5q24 -33 38 -107q9 -44 14.5 -101.5t12 -150.5t9.5 -132q10 -131 29.5 -231t59.5 -181q48 -96 133 -153t202 -57q70 0 146 19.5t160.5 59t161 83t178.5 108.5q41 25 336 219.5t465 293.5q29 17 29 50v10q0 33 -38.5 40.5t-71.5 -15.5
q-169 -98 -456 -287t-326 -213q-399 -253 -584 -252q-89 0 -141.5 35.5t-88.5 109.5q-58 116 -79 370q-3 37 -8.5 130t-12 154.5t-16.5 113.5q-19 98 -57 151q-24 33 -61 53t-79 20q-65 0 -163 -58q-85 -50 -194 -141q-215 -181 -449 -450q-202 -240 -264 -274
q-46 -25 -46 38q-1 44 19 141q100 487 226 867q10 28 -7.5 52.5t-47.5 24.5z" />
    <glyph glyph-name="Ograve" unicode="&#xd2;" horiz-adv-x="2861" 
d="M1184 1941h-2h-4q-23 -2 -38.5 -19t-15.5 -39q0 -8 2 -16l30 -119q4 -19 21 -32.5t36 -13.5q24 0 41 17t17 41q0 8 -2 16l-31 120q-4 18 -20 31t-34 14zM2011 1597q-142 0 -307.5 -41t-331.5 -114.5t-328.5 -168t-317.5 -207.5q-315 -230 -511 -467q-215 -261 -215 -452
q0 -177 111 -274q33 -30 73 -101.5t52 -87.5q42 -57 106 -89.5t141 -32.5q238 0 570 223q93 77 355 150l744 215q524 148 740 148q27 0 42.5 18t15.5 40t-15.5 40t-42.5 18q-138 0 -324 -39t-448 -113l-467 -134q-154 -44 -148 5q2 24 44 72q180 173 314 338
q324 401 400 681q45 165 -11 262q-32 55 -94.5 83t-146.5 28zM2011 1481q61 0 93 -13.5t47 -39.5q32 -55 0 -173q-33 -123 -133.5 -291.5t-245.5 -347.5q-225 -279 -497 -513q-46 -47 -135.5 -91.5t-165.5 -64.5q-373 -81 -572 -62q-88 4 -114.5 78t13.5 184q25 69 66 124
t93 85q20 11 27 29t1.5 34.5t-17.5 30t-30.5 15.5t-38.5 -8q-127 -74 -193 -227q-47 -90 -59 -105q-26 -32 -34 22q0 70 49.5 169.5t139.5 208.5q186 226 489 447q199 145 412 258.5t426.5 182t378.5 68.5zM701 -221q62 0 23 -26q-21 -15 -81 -42q-93 -33 -160 -33
q-98 0 -154 75q-8 18 16 19.5t46 -2.5q80 -8 183 -1q87 10 127 10z" />
    <glyph glyph-name="Oacute" unicode="&#xd3;" horiz-adv-x="2861" 
d="M1211 1941h2h4q22 -2 38 -19t16 -39q0 -8 -2 -16l-31 -119q-4 -19 -20.5 -32.5t-35.5 -13.5q-24 0 -41 17t-17 41q0 8 2 16l30 120q5 18 21 31t34 14zM2011 1597q-142 0 -307.5 -41t-331.5 -114.5t-328.5 -168t-317.5 -207.5q-315 -230 -511 -467q-215 -261 -215 -452
q0 -177 111 -274q33 -30 73 -101.5t52 -87.5q42 -57 106 -89.5t141 -32.5q238 0 570 223q93 77 355 150l744 215q524 148 740 148q27 0 42.5 18t15.5 40t-15.5 40t-42.5 18q-138 0 -324 -39t-448 -113l-467 -134q-154 -44 -148 5q2 24 44 72q180 173 314 338
q324 401 400 681q45 165 -11 262q-32 55 -94.5 83t-146.5 28zM2011 1481q61 0 93 -13.5t47 -39.5q32 -55 0 -173q-33 -123 -133.5 -291.5t-245.5 -347.5q-225 -279 -497 -513q-46 -47 -135.5 -91.5t-165.5 -64.5q-373 -81 -572 -62q-88 4 -114.5 78t13.5 184q25 69 66 124
t93 85q20 11 27 29t1.5 34.5t-17.5 30t-30.5 15.5t-38.5 -8q-127 -74 -193 -227q-47 -90 -59 -105q-26 -32 -34 22q0 70 49.5 169.5t139.5 208.5q186 226 489 447q199 145 412 258.5t426.5 182t378.5 68.5zM701 -221q62 0 23 -26q-21 -15 -81 -42q-93 -33 -160 -33
q-98 0 -154 75q-8 18 16 19.5t46 -2.5q80 -8 183 -1q87 10 127 10z" />
    <glyph glyph-name="Ocircumflex" unicode="&#xd4;" horiz-adv-x="2861" 
d="M1267 2020q-19 0 -34 -12l-222 -175q-9 -7 -16 -20.5t-7 -25.5q0 -24 17 -41t41 -17q21 0 37 13l174 137l51 -73q7 -10 21 -17.5t27 -7.5q24 0 41 17t17 41q0 19 -11 34l-87 123q-7 10 -20.5 17.5t-26.5 7.5q-1 0 -2 -1zM2011 1597q-142 0 -307.5 -41t-331.5 -114.5
t-328.5 -168t-317.5 -207.5q-315 -230 -511 -467q-215 -261 -215 -452q0 -177 111 -274q33 -30 73 -101.5t52 -87.5q42 -57 106 -89.5t141 -32.5q238 0 570 223q93 77 355 150l744 215q524 148 740 148q27 0 42.5 18t15.5 40t-15.5 40t-42.5 18q-138 0 -324 -39t-448 -113
l-467 -134q-154 -44 -148 5q2 24 44 72q180 173 314 338q324 401 400 681q45 165 -11 262q-32 55 -94.5 83t-146.5 28zM2011 1481q61 0 93 -13.5t47 -39.5q32 -55 0 -173q-33 -123 -133.5 -291.5t-245.5 -347.5q-225 -279 -497 -513q-46 -47 -135.5 -91.5t-165.5 -64.5
q-373 -81 -572 -62q-88 4 -114.5 78t13.5 184q25 69 66 124t93 85q20 11 27 29t1.5 34.5t-17.5 30t-30.5 15.5t-38.5 -8q-127 -74 -193 -227q-47 -90 -59 -105q-26 -32 -34 22q0 70 49.5 169.5t139.5 208.5q186 226 489 447q199 145 412 258.5t426.5 182t378.5 68.5z
M701 -221q62 0 23 -26q-21 -15 -81 -42q-93 -33 -160 -33q-98 0 -154 75q-8 18 16 19.5t46 -2.5q80 -8 183 -1q87 10 127 10z" />
    <glyph glyph-name="Otilde" unicode="&#xd5;" horiz-adv-x="2861" 
d="M1535 2004q-51 0 -95 -37q-39 -32 -49 -70q-2 -8 -2 -16q0 -24 17 -41t41 -17q18 0 34.5 13t21.5 31q-1 -4 1 -1q6 9 10 12q12 10 21 10q14 0 24 -6t35 -26q72 -58 141 -58q130 0 218 88q18 17 18 42q0 24 -17 41t-41 17q-25 0 -42 -17q-32 -33 -56 -44t-80 -11
q-20 0 -32 6.5t-36 25.5q-21 17 -33.5 26t-41.5 20.5t-57 11.5zM2011 1597q-142 0 -307.5 -41t-331.5 -114.5t-328.5 -168t-317.5 -207.5q-315 -230 -511 -467q-215 -261 -215 -452q0 -177 111 -274q33 -30 73 -101.5t52 -87.5q42 -57 106 -89.5t141 -32.5q238 0 570 223
q93 77 355 150l744 215q524 148 740 148q27 0 42.5 18t15.5 40t-15.5 40t-42.5 18q-138 0 -324 -39t-448 -113l-467 -134q-154 -44 -148 5q2 24 44 72q180 173 314 338q324 401 400 681q45 165 -11 262q-32 55 -94.5 83t-146.5 28zM2011 1481q61 0 93 -13.5t47 -39.5
q32 -55 0 -173q-33 -123 -133.5 -291.5t-245.5 -347.5q-225 -279 -497 -513q-46 -47 -135.5 -91.5t-165.5 -64.5q-373 -81 -572 -62q-88 4 -114.5 78t13.5 184q25 69 66 124t93 85q20 11 27 29t1.5 34.5t-17.5 30t-30.5 15.5t-38.5 -8q-127 -74 -193 -227q-47 -90 -59 -105
q-26 -32 -34 22q0 70 49.5 169.5t139.5 208.5q186 226 489 447q199 145 412 258.5t426.5 182t378.5 68.5zM701 -221q62 0 23 -26q-21 -15 -81 -42q-93 -33 -160 -33q-98 0 -154 75q-8 18 16 19.5t46 -2.5q80 -8 183 -1q87 10 127 10z" />
    <glyph glyph-name="Odieresis" unicode="&#xd6;" horiz-adv-x="2861" 
d="M1136 1847q-13 0 -28 -7q-7 -3 -14 -7.5t-10 -7.5l-3 -2q-12 -11 -12 -27v-2q-6 -9 -6 -19q-1 -25 3 -49q4 -25 13 -40t24 -20q19 -7 38 3q34 19 46 73q11 49 -6 79q-5 11 -17 18.5t-23 7.5h-5zM1328 1847q-13 0 -28 -7q-7 -3 -14 -7.5t-10 -7.5l-3 -2q-12 -11 -12 -27
v-2q-6 -9 -6 -19q-1 -25 3 -49q4 -25 13 -40t24 -20q19 -7 38 3q34 19 46 73q11 49 -6 79q-5 11 -17 18.5t-23 7.5h-5zM2011 1597q-142 0 -307.5 -41t-331.5 -114.5t-328.5 -168t-317.5 -207.5q-315 -230 -511 -467q-215 -261 -215 -452q0 -177 111 -274q33 -30 73 -101.5
t52 -87.5q42 -57 106 -89.5t141 -32.5q238 0 570 223q93 77 355 150l744 215q524 148 740 148q27 0 42.5 18t15.5 40t-15.5 40t-42.5 18q-138 0 -324 -39t-448 -113l-467 -134q-154 -44 -148 5q2 24 44 72q180 173 314 338q324 401 400 681q45 165 -11 262q-32 55 -94.5 83
t-146.5 28zM2011 1481q61 0 93 -13.5t47 -39.5q32 -55 0 -173q-33 -123 -133.5 -291.5t-245.5 -347.5q-225 -279 -497 -513q-46 -47 -135.5 -91.5t-165.5 -64.5q-373 -81 -572 -62q-88 4 -114.5 78t13.5 184q25 69 66 124t93 85q20 11 27 29t1.5 34.5t-17.5 30t-30.5 15.5
t-38.5 -8q-127 -74 -193 -227q-47 -90 -59 -105q-26 -32 -34 22q0 70 49.5 169.5t139.5 208.5q186 226 489 447q199 145 412 258.5t426.5 182t378.5 68.5zM701 -221q62 0 23 -26q-21 -15 -81 -42q-93 -33 -160 -33q-98 0 -154 75q-8 18 16 19.5t46 -2.5q80 -8 183 -1
q87 10 127 10z" />
    <glyph glyph-name="multiply" unicode="&#xd7;" horiz-adv-x="432" 
d="M65 362q-15 -16 -15 -39t14 -39l51 -61l-25 -20q-4 -2 -7 -5q-17 -17 -17 -41t17 -41q16 -16 38.5 -17t39.5 13l29 22l72 -86l4 -4q17 -17 41 -17t41 17q15 16 16 39t-13 40l-70 83l78 62q4 2 7 5q17 17 17 41t-17 41q-13 13 -33.5 16t-36.5 -6l-8 -6l-82 -64l-54 64
q-1 2 -3 4q-13 13 -33.5 15.5t-36.5 -6.5q-3 -1 -5 -3q-4 -3 -7 -6z" />
    <glyph glyph-name="Ugrave" unicode="&#xd9;" horiz-adv-x="2595" 
d="M1211 1631h-2h-4q-23 -2 -38.5 -19t-15.5 -39q0 -8 2 -16l30 -119q4 -19 21 -32.5t36 -13.5q24 0 41 17t17 41q0 8 -2 16l-31 120q-4 18 -20 31t-34 14zM2180 1238q-23 0 -40 -17q-270 -270 -447 -721q-225 -341 -374 -521q-549 -659 -1016 -659q-76 0 -119 50
q-44 51 -60 156q-30 201 48 538q43 183 148 447q17 -31 51.5 -31t50.5 30q61 104 104 227q23 68 27 111q3 33 -6 56q-7 17 -28 32t-41 15q-38 0 -74 -33q-24 -23 -52 -62q-48 -72 -103 -194q-118 -264 -190 -571q-83 -359 -49 -583q20 -137 86 -214q37 -43 90.5 -66.5
t116.5 -23.5q119 0 240 36t230.5 97.5t222 152t211 191.5t201.5 224q22 22 45 36t47 18t46 -11t36 -50q23 -91 82 -142q63 -55 159 -55q222 0 484 195q117 87 218 198.5t171 231.5q10 20 8 38.5t-15.5 30.5t-30 17t-34.5 -2t-29 -26q-62 -108 -156 -211.5t-202 -183.5
q-108 -81 -217 -126.5t-197 -45.5q-52 0 -83 26.5t-45 82.5q-15 57 -8.5 148t34.5 196q8 30 36.5 91t35.5 80q227 345 438 710q17 29 0 58t-51 29z" />
    <glyph glyph-name="Uacute" unicode="&#xda;" horiz-adv-x="2595" 
d="M1238 1631h2h4q22 -2 38 -19t16 -39q0 -8 -2 -16l-31 -119q-4 -19 -20.5 -32.5t-35.5 -13.5q-24 0 -41 17t-17 41q0 8 2 16l30 120q5 18 21 31t34 14zM2180 1238q-23 0 -40 -17q-270 -270 -447 -721q-225 -341 -374 -521q-549 -659 -1016 -659q-76 0 -119 50
q-44 51 -60 156q-30 201 48 538q43 183 148 447q17 -31 51.5 -31t50.5 30q61 104 104 227q23 68 27 111q3 33 -6 56q-7 17 -28 32t-41 15q-38 0 -74 -33q-24 -23 -52 -62q-48 -72 -103 -194q-118 -264 -190 -571q-83 -359 -49 -583q20 -137 86 -214q37 -43 90.5 -66.5
t116.5 -23.5q119 0 240 36t230.5 97.5t222 152t211 191.5t201.5 224q22 22 45 36t47 18t46 -11t36 -50q23 -91 82 -142q63 -55 159 -55q222 0 484 195q117 87 218 198.5t171 231.5q10 20 8 38.5t-15.5 30.5t-30 17t-34.5 -2t-29 -26q-62 -108 -156 -211.5t-202 -183.5
q-108 -81 -217 -126.5t-197 -45.5q-52 0 -83 26.5t-45 82.5q-15 57 -8.5 148t34.5 196q8 30 36.5 91t35.5 80q227 345 438 710q17 29 0 58t-51 29z" />
    <glyph glyph-name="Ucircumflex" unicode="&#xdb;" horiz-adv-x="2595" 
d="M1278 1629q-19 0 -34 -12l-222 -175q-9 -7 -16 -20.5t-7 -25.5q0 -24 17 -41t41 -17q21 0 37 13l174 137l51 -73q7 -10 21 -17.5t27 -7.5q24 0 41 17t17 41q0 19 -11 34l-87 123q-7 10 -20.5 17.5t-26.5 7.5q-1 0 -2 -1zM2180 1238q-23 0 -40 -17q-270 -270 -447 -721
q-225 -341 -374 -521q-549 -659 -1016 -659q-76 0 -119 50q-44 51 -60 156q-30 201 48 538q43 183 148 447q17 -31 51.5 -31t50.5 30q61 104 104 227q23 68 27 111q3 33 -6 56q-7 17 -28 32t-41 15q-38 0 -74 -33q-24 -23 -52 -62q-48 -72 -103 -194q-118 -264 -190 -571
q-83 -359 -49 -583q20 -137 86 -214q37 -43 90.5 -66.5t116.5 -23.5q119 0 240 36t230.5 97.5t222 152t211 191.5t201.5 224q22 22 45 36t47 18t46 -11t36 -50q23 -91 82 -142q63 -55 159 -55q222 0 484 195q117 87 218 198.5t171 231.5q10 20 8 38.5t-15.5 30.5t-30 17
t-34.5 -2t-29 -26q-62 -108 -156 -211.5t-202 -183.5q-108 -81 -217 -126.5t-197 -45.5q-52 0 -83 26.5t-45 82.5q-15 57 -8.5 148t34.5 196q8 30 36.5 91t35.5 80q227 345 438 710q17 29 0 58t-51 29z" />
    <glyph glyph-name="Udieresis" unicode="&#xdc;" horiz-adv-x="2595" 
d="M1190 1488q-13 0 -27 -7q-7 -3 -14 -7.5t-10 -7.5l-3 -2q-12 -11 -12 -27v-2q-6 -9 -6 -19q-1 -25 3 -49q4 -25 13 -40t24 -20q19 -7 38 3q34 19 46 73q10 49 -6 79q-6 11 -17.5 18.5t-23.5 7.5h-5zM1382 1488q-13 0 -27 -7q-7 -3 -14 -7.5t-10 -7.5l-3 -2
q-12 -11 -12 -27v-2q-6 -9 -6 -19q-1 -25 3 -49q4 -25 13 -40t24 -20q19 -7 38 3q34 19 46 73q10 49 -6 79q-6 11 -17.5 18.5t-23.5 7.5h-5zM2180 1238q-23 0 -40 -17q-270 -270 -447 -721q-225 -341 -374 -521q-549 -659 -1016 -659q-76 0 -119 50q-44 51 -60 156
q-30 201 48 538q43 183 148 447q17 -31 51.5 -31t50.5 30q61 104 104 227q23 68 27 111q3 33 -6 56q-7 17 -28 32t-41 15q-38 0 -74 -33q-24 -23 -52 -62q-48 -72 -103 -194q-118 -264 -190 -571q-83 -359 -49 -583q20 -137 86 -214q37 -43 90.5 -66.5t116.5 -23.5
q119 0 240 36t230.5 97.5t222 152t211 191.5t201.5 224q22 22 45 36t47 18t46 -11t36 -50q23 -91 82 -142q63 -55 159 -55q222 0 484 195q117 87 218 198.5t171 231.5q10 20 8 38.5t-15.5 30.5t-30 17t-34.5 -2t-29 -26q-62 -108 -156 -211.5t-202 -183.5
q-108 -81 -217 -126.5t-197 -45.5q-52 0 -83 26.5t-45 82.5q-15 57 -8.5 148t34.5 196q8 30 36.5 91t35.5 80q227 345 438 710q17 29 0 58t-51 29z" />
    <glyph glyph-name="Yacute" unicode="&#xdd;" horiz-adv-x="2470" 
d="M1745 1337h-3q-19 -1 -34 -13t-20 -30q-17 -63 -71.5 -188t-131.5 -277q-180 -351 -393 -682q-248 -386 -459 -611q-110 -117 -210 -183.5t-163 -66.5q-41 0 -69 28q-31 31 -50 95q-39 133 -17 357q20 209 81 405q28 89 62.5 159t61.5 99q16 16 17.5 35.5t-8.5 33.5
t-24.5 23.5t-33.5 6.5t-35 -19q-82 -86 -150 -303q-66 -208 -87 -429q-23 -247 22 -400q27 -93 79 -145q62 -62 151 -62q106 0 217 74t241 213q218 232 472 627q245 365 314 410q43 27 44 -43q1 -66 -53 -348q-7 -37 -8 -43q-35 -157 -113 -318.5t-191 -300.5
q-191 -234 -327 -464q-132 -222 -222.5 -431t-129.5 -377q-40 -175 -16 -279q14 -63 52 -99q43 -40 107 -40q62 0 116.5 38t108.5 107q93 120 194 343q177 394 358 1055q77 217 159.5 357.5t199.5 240.5q369 310 733 407q23 5 35 21t11 33.5t-9 33.5t-26.5 23.5t-40.5 0.5
q-334 -89 -663 -330q-136 -92 -170 -53q-24 28 -12 150q2 16 9 78q28 120 44 207q103 548 106 800v1q0 1 1 7t1 8q0 23 -16.5 40t-40.5 18zM1277 -677q38 -1 -16 -177q-154 -532 -301 -859q-95 -211 -179 -319q-40 -51 -75.5 -76t-58.5 -25q-18 0 -27 8q-13 12 -19 41
q-18 78 16 227q36 155 123.5 358t214.5 417q90 150 213 314q81 92 109 91z" />
    <glyph glyph-name="agrave" unicode="&#xe0;" horiz-adv-x="1053" 
d="M206 926h-2h-4q-23 -2 -38.5 -19t-15.5 -39q0 -8 2 -16l30 -119q4 -19 21 -32.5t36 -13.5q24 0 41 17t17 41q0 8 -2 16l-31 120q-4 18 -20 31t-34 14zM179 528q-69 -2 -136 -76q-53 -59 -86 -140q-36 -87 -28 -151q5 -46 33 -74q32 -32 83 -32q65 10 115 27.5t70 30.5
t37.5 20t30 -1t35.5 -36q39 -48 94.5 -72t114 -24t114.5 10.5t100 25.5t92 42t79 48.5t73 58t63 57l59 58.5l14 14q16 15 18 34.5t-7.5 34t-24 24.5t-34 7.5t-34.5 -18.5l-18 -18l-56.5 -56t-56.5 -51.5t-63 -50.5t-66 -41t-76 -34.5t-82 -20t-95 -8.5q-33 0 -65 13.5
t-52 39.5q-55 68 -19 200q10 39 -23 62t-66 0q-2 4 -3 14.5t-5 16.5q-18 29 -52 47.5t-75 18.5h-2zM183 412q10 0 15 -1.5t6.5 -3t4.5 -5.5q9 -15 9 -47q-1 -25 18 -43q-33 -41 -41 -49q-143 -110 -139 -33q1 15 8 38q25 62 65 106q16 18 31.5 27.5t22.5 10.5z" />
    <glyph glyph-name="aacute" unicode="&#xe1;" horiz-adv-x="1053" 
d="M233 926h2h4q22 -2 38 -19t16 -39q0 -8 -2 -16l-31 -119q-4 -19 -20.5 -32.5t-35.5 -13.5q-24 0 -41 17t-17 41q0 8 2 16l30 120q5 18 21 31t34 14zM179 528q-69 -2 -136 -76q-53 -59 -86 -140q-36 -87 -28 -151q5 -46 33 -74q32 -32 83 -32q65 10 115 27.5t70 30.5
t37.5 20t30 -1t35.5 -36q39 -48 94.5 -72t114 -24t114.5 10.5t100 25.5t92 42t79 48.5t73 58t63 57l59 58.5l14 14q16 15 18 34.5t-7.5 34t-24 24.5t-34 7.5t-34.5 -18.5l-18 -18l-56.5 -56t-56.5 -51.5t-63 -50.5t-66 -41t-76 -34.5t-82 -20t-95 -8.5q-33 0 -65 13.5
t-52 39.5q-55 68 -19 200q10 39 -23 62t-66 0q-2 4 -3 14.5t-5 16.5q-18 29 -52 47.5t-75 18.5h-2zM183 412q10 0 15 -1.5t6.5 -3t4.5 -5.5q9 -15 9 -47q-1 -25 18 -43q-33 -41 -41 -49q-143 -110 -139 -33q1 15 8 38q25 62 65 106q16 18 31.5 27.5t22.5 10.5z" />
    <glyph glyph-name="acircumflex" unicode="&#xe2;" horiz-adv-x="1053" 
d="M216 883q-19 0 -34 -12l-222 -175q-9 -7 -16 -20.5t-7 -25.5q0 -24 17 -41t41 -17q21 0 37 13l174 137l51 -73q7 -10 21 -17.5t27 -7.5q24 0 41 17t17 41q0 19 -11 34l-87 123q-7 10 -20.5 17.5t-26.5 7.5q-1 0 -2 -1zM179 528q-69 -2 -136 -76q-53 -59 -86 -140
q-36 -87 -28 -151q5 -46 33 -74q32 -32 83 -32q65 10 115 27.5t70 30.5t37.5 20t30 -1t35.5 -36q39 -48 94.5 -72t114 -24t114.5 10.5t100 25.5t92 42t79 48.5t73 58t63 57l59 58.5l14 14q16 15 18 34.5t-7.5 34t-24 24.5t-34 7.5t-34.5 -18.5l-18 -18l-56.5 -56
t-56.5 -51.5t-63 -50.5t-66 -41t-76 -34.5t-82 -20t-95 -8.5q-33 0 -65 13.5t-52 39.5q-55 68 -19 200q10 39 -23 62t-66 0q-2 4 -3 14.5t-5 16.5q-18 29 -52 47.5t-75 18.5h-2zM183 412q10 0 15 -1.5t6.5 -3t4.5 -5.5q9 -15 9 -47q-1 -25 18 -43q-33 -41 -41 -49
q-143 -110 -139 -33q1 15 8 38q25 62 65 106q16 18 31.5 27.5t22.5 10.5z" />
    <glyph glyph-name="atilde" unicode="&#xe3;" horiz-adv-x="1053" 
d="M56 843q-51 0 -95 -37q-39 -32 -49 -70q-2 -8 -2 -16q0 -24 17 -41t41 -17q18 0 34.5 13t21.5 31q-1 -4 1 -1q6 9 10 12q12 10 21 10q14 0 24 -6t35 -26q72 -58 141 -58q130 0 218 88q18 17 18 42q0 24 -17 41t-41 17q-25 0 -42 -17q-32 -33 -56 -44t-80 -11
q-20 0 -32 6.5t-36 25.5q-21 17 -33.5 26t-41.5 20.5t-57 11.5zM179 528q-69 -2 -136 -76q-53 -59 -86 -140q-36 -87 -28 -151q5 -46 33 -74q32 -32 83 -32q65 10 115 27.5t70 30.5t37.5 20t30 -1t35.5 -36q39 -48 94.5 -72t114 -24t114.5 10.5t100 25.5t92 42t79 48.5
t73 58t63 57l59 58.5l14 14q16 15 18 34.5t-7.5 34t-24 24.5t-34 7.5t-34.5 -18.5l-18 -18l-56.5 -56t-56.5 -51.5t-63 -50.5t-66 -41t-76 -34.5t-82 -20t-95 -8.5q-33 0 -65 13.5t-52 39.5q-55 68 -19 200q10 39 -23 62t-66 0q-2 4 -3 14.5t-5 16.5q-18 29 -52 47.5
t-75 18.5h-2zM183 412q10 0 15 -1.5t6.5 -3t4.5 -5.5q9 -15 9 -47q-1 -25 18 -43q-33 -41 -41 -49q-143 -110 -139 -33q1 15 8 38q25 62 65 106q16 18 31.5 27.5t22.5 10.5z" />
    <glyph glyph-name="adieresis" unicode="&#xe4;" horiz-adv-x="1053" 
d="M109 844q-13 0 -27 -7q-7 -3 -14 -7.5t-10 -7.5l-3 -2q-12 -11 -12 -27v-2q-6 -9 -6 -19q-1 -25 3 -49q4 -25 13 -40t24 -20q19 -7 38 3q34 19 46 73q10 49 -6 79q-6 11 -17.5 18.5t-23.5 7.5h-5zM301 844q-13 0 -27 -7q-7 -3 -14 -7.5t-10 -7.5l-3 -2q-12 -11 -12 -27
v-2q-6 -9 -6 -19q-1 -25 3 -49q4 -25 13 -40t24 -20q19 -7 38 3q34 19 46 73q10 49 -6 79q-6 11 -17.5 18.5t-23.5 7.5h-5zM179 528q-69 -2 -136 -76q-53 -59 -86 -140q-36 -87 -28 -151q5 -46 33 -74q32 -32 83 -32q65 10 115 27.5t70 30.5t37.5 20t30 -1t35.5 -36
q39 -48 94.5 -72t114 -24t114.5 10.5t100 25.5t92 42t79 48.5t73 58t63 57l59 58.5l14 14q16 15 18 34.5t-7.5 34t-24 24.5t-34 7.5t-34.5 -18.5l-18 -18l-56.5 -56t-56.5 -51.5t-63 -50.5t-66 -41t-76 -34.5t-82 -20t-95 -8.5q-33 0 -65 13.5t-52 39.5q-55 68 -19 200
q10 39 -23 62t-66 0q-2 4 -3 14.5t-5 16.5q-18 29 -52 47.5t-75 18.5h-2zM183 412q10 0 15 -1.5t6.5 -3t4.5 -5.5q9 -15 9 -47q-1 -25 18 -43q-33 -41 -41 -49q-143 -110 -139 -33q1 15 8 38q25 62 65 106q16 18 31.5 27.5t22.5 10.5z" />
    <glyph glyph-name="aring" unicode="&#xe5;" horiz-adv-x="1053" 
d="M186 899l-25 -1q-26 -2 -42 -21q-10 -3 -20 -11t-15 -17q-28 -47 -17 -109q7 -35 27 -58q27 -33 71 -36h1h1q41 0 75.5 16.5t55.5 42.5q36 44 36 99q0 25 -15.5 45.5t-33.5 30.5q-23 12 -58 16q-19 2 -41 3zM189 782q9 0 20 -1q-1 -1 -1 -2v-1q-3 -3 -26 -10q1 10 1 14h6
zM179 528q-69 -2 -136 -76q-53 -59 -86 -140q-36 -87 -28 -151q5 -46 33 -74q32 -32 83 -32q65 10 115 27.5t70 30.5t37.5 20t30 -1t35.5 -36q39 -48 94.5 -72t114 -24t114.5 10.5t100 25.5t92 42t79 48.5t73 58t63 57l59 58.5l14 14q16 15 18 34.5t-7.5 34t-24 24.5
t-34 7.5t-34.5 -18.5l-18 -18l-56.5 -56t-56.5 -51.5t-63 -50.5t-66 -41t-76 -34.5t-82 -20t-95 -8.5q-33 0 -65 13.5t-52 39.5q-55 68 -19 200q10 39 -23 62t-66 0q-2 4 -3 14.5t-5 16.5q-18 29 -52 47.5t-75 18.5h-2zM183 412q10 0 15 -1.5t6.5 -3t4.5 -5.5q9 -15 9 -47
q-1 -25 18 -43q-33 -41 -41 -49q-143 -110 -139 -33q1 15 8 38q25 62 65 106q16 18 31.5 27.5t22.5 10.5z" />
    <glyph glyph-name="ccedilla" unicode="&#xe7;" horiz-adv-x="1240" 
d="M326 94q-16 0 -31.5 -11t-21.5 -26l-43 -104q-5 -11 -5 -22q0 -24 17 -41t41 -17q16 0 29 7q25 15 49 7q3 -1 7 -2l2 -1l-1 -1q0 -11 -3.5 -16.5t-17.5 -14.5q-24 -16 -75 -30q-17 -5 -30 -21.5t-13 -34.5q0 -24 17 -41t41 -17q8 0 15 2q70 19 109 45q31 20 52 54t21 74
t-26 71t-62 43q-4 2 -12.5 -0.5t-12.5 -2.5l8 19q5 11 5 23q0 24 -17 41t-41 17h-1zM247 488q-131 0 -210 -61q-38 -29 -58 -70t-20 -84q0 -47 24.5 -91.5t70.5 -76.5q98 -70 267 -70q516 0 985 271q12 7 21 21.5t9 28.5q0 24 -17 41t-41 17q-16 0 -30 -7
q-442 -256 -927 -256q-132 0 -200 49q-46 33 -46 73q0 36 33 62q48 37 139 37q60 0 142 -62q16 -12 35 -12q24 0 41 17t17 41q0 12 -6.5 25.5t-16.5 21.5q-22 17 -38.5 27.5t-45.5 26t-61.5 23.5t-66.5 8z" />
    <glyph glyph-name="egrave" unicode="&#xe8;" horiz-adv-x="1058" 
d="M206 1032h-2h-4q-23 -2 -38.5 -19t-15.5 -39q0 -8 2 -16l30 -119q4 -19 21 -32.5t36 -13.5q24 0 41 17t17 41q0 8 -2 16l-31 120q-4 18 -20 31t-34 14zM212 703q-51 0 -92.5 -30.5t-70.5 -79.5q-37 -73 -47 -149.5t12 -151t76 -129.5q100 -98 280 -98q93 0 184.5 15
t162.5 35.5t151 56t132.5 63.5l125.5 70q19 11 26 29t2 34.5t-17 30t-30.5 15.5t-38.5 -8q-71 -42 -121 -68.5t-124 -59.5t-138.5 -51.5t-147 -32t-167.5 -13.5q-133 0 -198 65q-17 25 -18.5 46t8 36t27.5 32t37 31.5t39 37t32 47.5q33 74 24 133q-7 41 -34 66
q-30 28 -75 28zM204 580q-1 -29 -13 -56q-26 -54 -44 -53q-15 0 -9 31q3 15 11 32q23 38 55 46z" />
    <glyph glyph-name="eacute" unicode="&#xe9;" horiz-adv-x="1058" 
d="M233 1032h2h4q22 -2 38 -19t16 -39q0 -8 -2 -16l-31 -119q-4 -19 -20.5 -32.5t-35.5 -13.5q-24 0 -41 17t-17 41q0 8 2 16l30 120q5 18 21 31t34 14zM212 703q-51 0 -92.5 -30.5t-70.5 -79.5q-37 -73 -47 -149.5t12 -151t76 -129.5q100 -98 280 -98q93 0 184.5 15
t162.5 35.5t151 56t132.5 63.5l125.5 70q19 11 26 29t2 34.5t-17 30t-30.5 15.5t-38.5 -8q-71 -42 -121 -68.5t-124 -59.5t-138.5 -51.5t-147 -32t-167.5 -13.5q-133 0 -198 65q-17 25 -18.5 46t8 36t27.5 32t37 31.5t39 37t32 47.5q33 74 24 133q-7 41 -34 66
q-30 28 -75 28zM204 580q-1 -29 -13 -56q-26 -54 -44 -53q-15 0 -9 31q3 15 11 32q23 38 55 46z" />
    <glyph glyph-name="ecircumflex" unicode="&#xea;" horiz-adv-x="1058" 
d="M216 989q-19 -1 -34 -13l-222 -175q-9 -7 -16 -20.5t-7 -25.5q0 -24 17 -41t41 -17q21 0 37 13l174 137l51 -73q7 -10 21 -17.5t27 -7.5q24 0 41 17t17 41q0 19 -11 34l-87 123q-7 10 -20.5 17.5t-26.5 7.5h-2zM212 703q-51 0 -92.5 -30.5t-70.5 -79.5
q-37 -73 -47 -149.5t12 -151t76 -129.5q100 -98 280 -98q93 0 184.5 15t162.5 35.5t151 56t132.5 63.5l125.5 70q19 11 26 29t2 34.5t-17 30t-30.5 15.5t-38.5 -8q-71 -42 -121 -68.5t-124 -59.5t-138.5 -51.5t-147 -32t-167.5 -13.5q-133 0 -198 65q-17 25 -18.5 46t8 36
t27.5 32t37 31.5t39 37t32 47.5q33 74 24 133q-7 41 -34 66q-30 28 -75 28zM204 580q-1 -29 -13 -56q-26 -54 -44 -53q-15 0 -9 31q3 15 11 32q23 38 55 46z" />
    <glyph glyph-name="edieresis" unicode="&#xeb;" horiz-adv-x="1058" 
d="M109 930q-13 0 -27 -7q-7 -3 -14 -7.5t-10 -7.5l-3 -2q-12 -11 -12 -27v-2q-6 -9 -6 -19q-1 -25 3 -49q4 -25 13 -40t24 -20q19 -7 38 3q34 19 46 73q10 49 -6 79q-6 11 -17.5 18.5t-23.5 7.5h-5zM301 930q-13 0 -27 -7q-7 -3 -14 -7.5t-10 -7.5l-3 -2q-12 -11 -12 -27
v-2q-6 -9 -6 -19q-1 -25 3 -49q4 -25 13 -40t24 -20q19 -7 38 3q34 19 46 73q10 49 -6 79q-6 11 -17.5 18.5t-23.5 7.5h-5zM212 703q-51 0 -92.5 -30.5t-70.5 -79.5q-37 -73 -47 -149.5t12 -151t76 -129.5q100 -98 280 -98q93 0 184.5 15t162.5 35.5t151 56t132.5 63.5
l125.5 70q19 11 26 29t2 34.5t-17 30t-30.5 15.5t-38.5 -8q-71 -42 -121 -68.5t-124 -59.5t-138.5 -51.5t-147 -32t-167.5 -13.5q-133 0 -198 65q-17 25 -18.5 46t8 36t27.5 32t37 31.5t39 37t32 47.5q33 74 24 133q-7 41 -34 66q-30 28 -75 28zM204 580q-1 -29 -13 -56
q-26 -54 -44 -53q-15 0 -9 31q3 15 11 32q23 38 55 46z" />
    <glyph glyph-name="igrave" unicode="&#xec;" horiz-adv-x="969" 
d="M78 1012h-2h-4q-23 -2 -38.5 -19t-15.5 -39q0 -8 2 -16l30 -119q4 -19 21 -32.5t36 -13.5q24 0 41 17t17 41q0 8 -2 16l-31 120q-4 18 -20 31t-34 14zM102 671q-13 -1 -28 -7q-7 -4 -13.5 -8.5t-10.5 -6.5l-3 -3q-12 -11 -12 -27v-2q-6 -8 -6 -19q0 -24 4 -49
q3 -25 12 -39q10 -16 25 -21q19 -7 38 3q34 19 45 73q11 50 -5 79q-6 11 -18 18.5t-23 8.5h-5zM57 415h-3.5h-2.5q-18 -1 -33.5 -14t-19.5 -30q-49 -180 -1 -294q27 -68 94 -108.5t159 -40.5q99 0 195.5 22t177 57.5t160.5 87.5t142 104.5t126 115.5q17 17 17 41t-17 41
t-41 17t-41 -17q-76 -75 -151 -134t-165 -111t-193 -80t-210 -28q-67 0 -98.5 18.5t-47.5 58.5q-15 36 -13.5 94.5t19.5 125.5q2 8 2 16q0 23 -16 40t-39 18z" />
    <glyph glyph-name="iacute" unicode="&#xed;" horiz-adv-x="969" 
d="M105 1012h2h4q22 -2 38 -19t16 -39q0 -8 -2 -16l-31 -119q-4 -19 -20.5 -32.5t-35.5 -13.5q-24 0 -41 17t-17 41q0 8 2 16l30 120q5 18 21 31t34 14zM102 671q-13 -1 -28 -7q-7 -4 -13.5 -8.5t-10.5 -6.5l-3 -3q-12 -11 -12 -27v-2q-6 -8 -6 -19q0 -24 4 -49
q3 -25 12 -39q10 -16 25 -21q19 -7 38 3q34 19 45 73q11 50 -5 79q-6 11 -18 18.5t-23 8.5h-5zM57 415h-3.5h-2.5q-18 -1 -33.5 -14t-19.5 -30q-49 -180 -1 -294q27 -68 94 -108.5t159 -40.5q99 0 195.5 22t177 57.5t160.5 87.5t142 104.5t126 115.5q17 17 17 41t-17 41
t-41 17t-41 -17q-76 -75 -151 -134t-165 -111t-193 -80t-210 -28q-67 0 -98.5 18.5t-47.5 58.5q-15 36 -13.5 94.5t19.5 125.5q2 8 2 16q0 23 -16 40t-39 18z" />
    <glyph glyph-name="icircumflex" unicode="&#xee;" horiz-adv-x="969" 
d="M149 927q-19 0 -34 -12l-222 -175q-9 -7 -16 -20.5t-7 -25.5q0 -24 17 -41t41 -17q21 0 37 13l174 137l51 -73q7 -10 21 -17.5t27 -7.5q24 0 41 17t17 41q0 19 -11 34l-87 123q-7 10 -20.5 17.5t-26.5 7.5q-1 0 -2 -1zM102 671q-13 -1 -28 -7q-7 -4 -13.5 -8.5
t-10.5 -6.5l-3 -3q-12 -11 -12 -27v-2q-6 -8 -6 -19q0 -24 4 -49q3 -25 12 -39q10 -16 25 -21q19 -7 38 3q34 19 45 73q11 50 -5 79q-6 11 -18 18.5t-23 8.5h-5zM57 415h-3.5h-2.5q-18 -1 -33.5 -14t-19.5 -30q-49 -180 -1 -294q27 -68 94 -108.5t159 -40.5q99 0 195.5 22
t177 57.5t160.5 87.5t142 104.5t126 115.5q17 17 17 41t-17 41t-41 17t-41 -17q-76 -75 -151 -134t-165 -111t-193 -80t-210 -28q-67 0 -98.5 18.5t-47.5 58.5q-15 36 -13.5 94.5t19.5 125.5q2 8 2 16q0 23 -16 40t-39 18z" />
    <glyph glyph-name="idieresis" unicode="&#xef;" horiz-adv-x="969" 
d="M0 924q-13 0 -27 -7q-7 -3 -14 -7.5t-10 -7.5l-3 -2q-12 -11 -12 -27v-2q-6 -9 -6 -19q-1 -25 3 -49q4 -25 13 -40t24 -20q19 -7 38 3q34 19 46 73q10 49 -6 79q-6 11 -17.5 18.5t-23.5 7.5h-5zM192 924q-13 0 -27 -7q-7 -3 -14 -7.5t-10 -7.5l-3 -2q-12 -11 -12 -27v-2
q-6 -9 -6 -19q-1 -25 3 -49q4 -25 13 -40t24 -20q19 -7 38 3q34 19 46 73q10 49 -6 79q-6 11 -17.5 18.5t-23.5 7.5h-5zM102 671q-13 -1 -28 -7q-7 -4 -13.5 -8.5t-10.5 -6.5l-3 -3q-12 -11 -12 -27v-2q-6 -8 -6 -19q0 -24 4 -49q3 -25 12 -39q10 -16 25 -21q19 -7 38 3
q34 19 45 73q11 50 -5 79q-6 11 -18 18.5t-23 8.5h-5zM57 415h-3.5h-2.5q-18 -1 -33.5 -14t-19.5 -30q-49 -180 -1 -294q27 -68 94 -108.5t159 -40.5q99 0 195.5 22t177 57.5t160.5 87.5t142 104.5t126 115.5q17 17 17 41t-17 41t-41 17t-41 -17q-76 -75 -151 -134
t-165 -111t-193 -80t-210 -28q-67 0 -98.5 18.5t-47.5 58.5q-15 36 -13.5 94.5t19.5 125.5q2 8 2 16q0 23 -16 40t-39 18z" />
    <glyph glyph-name="ntilde" unicode="&#xf1;" horiz-adv-x="1384" 
d="M65 823q-51 0 -95 -37q-39 -32 -49 -70q-2 -8 -2 -16q0 -24 17 -41t41 -17q18 0 34.5 13t21.5 31q-1 -4 1 -1q6 9 10 12q12 10 21 10q14 0 24 -6t35 -26q72 -58 141 -58q130 0 218 88q18 17 18 42q0 24 -17 41t-41 17q-25 0 -42 -17q-32 -33 -56 -44t-80 -11
q-20 0 -32 6.5t-36 25.5q-21 17 -33.5 26t-41.5 20.5t-57 11.5zM324 483q-64 0 -133 -58q-9 -6 -18 -14.5t-14 -14l-13 -14.5t-11.5 -12.5t-8.5 -6t-8.5 2t-6.5 15.5q-9 23 -34 32t-48.5 -3t-29.5 -42l-66 -307q-7 -31 13 -52t49 -19t45 30q86 149 139 220q47 63 87 96
q36 31 58 31q24 0 67 -43q14 -14 30 -32l42.5 -49.5t36.5 -44.5q37 -44 68 -74.5t76 -65t96.5 -52t107.5 -17.5q201 0 397 116q82 49 144 106.5t95 115.5q11 19 8.5 38t-16 30.5t-29.5 17t-34 -1.5t-29 -26q-22 -39 -76 -89t-123 -91q-168 -100 -337 -100q-70 0 -130.5 43.5
t-128.5 124.5q-10 11 -36 43l-44 52.5t-36 38.5q-77 76 -149 76z" />
    <glyph glyph-name="ograve" unicode="&#xf2;" horiz-adv-x="965" 
d="M33 906h-2h-4q-23 -2 -38.5 -19t-15.5 -39q0 -8 2 -16l30 -119q4 -19 21 -32.5t36 -13.5q24 0 41 17t17 41q0 8 -2 16l-31 120q-4 18 -20 31t-34 14zM71 589q-52 0 -95.5 -26.5t-70.5 -69.5q-54 -88 -26 -195q2 -5 7.5 -15.5l7.5 -14.5q-3 -5 -10.5 -14.5t-10.5 -15.5
q-26 -50 -32 -84q-5 -30 5 -53q7 -17 27.5 -30t38.5 -13q37 0 75 19q18 6 34 5t52 -8t71.5 -15t92 -15t112.5 -7h1q106 2 201 19.5t165.5 43.5t135.5 64t108.5 73t86.5 77q16 16 18 35t-7.5 34t-24 24.5t-34 7t-34.5 -18.5q-40 -39 -76.5 -69t-93 -63.5t-117.5 -55.5
t-146 -37.5t-183 -17.5q-132 10 -154 16q-41 10 -39 43q1 27 30 87q47 103 32 178q-10 52 -48.5 82t-98.5 30zM71 473q20 0 27 -5q4 -3 6 -13q6 -29 -21 -97q-2 31 -28 47t-54 4q2 3 1.5 12.5t1.5 11.5q25 40 67 40z" />
    <glyph glyph-name="oacute" unicode="&#xf3;" horiz-adv-x="965" 
d="M60 906h2h4q22 -2 38 -19t16 -39q0 -8 -2 -16l-31 -119q-4 -19 -20.5 -32.5t-35.5 -13.5q-24 0 -41 17t-17 41q0 8 2 16l30 120q5 18 21 31t34 14zM71 589q-52 0 -95.5 -26.5t-70.5 -69.5q-54 -88 -26 -195q2 -5 7.5 -15.5l7.5 -14.5q-3 -5 -10.5 -14.5t-10.5 -15.5
q-26 -50 -32 -84q-5 -30 5 -53q7 -17 27.5 -30t38.5 -13q37 0 75 19q18 6 34 5t52 -8t71.5 -15t92 -15t112.5 -7h1q106 2 201 19.5t165.5 43.5t135.5 64t108.5 73t86.5 77q16 16 18 35t-7.5 34t-24 24.5t-34 7t-34.5 -18.5q-40 -39 -76.5 -69t-93 -63.5t-117.5 -55.5
t-146 -37.5t-183 -17.5q-132 10 -154 16q-41 10 -39 43q1 27 30 87q47 103 32 178q-10 52 -48.5 82t-98.5 30zM71 473q20 0 27 -5q4 -3 6 -13q6 -29 -21 -97q-2 31 -28 47t-54 4q2 3 1.5 12.5t1.5 11.5q25 40 67 40z" />
    <glyph glyph-name="ocircumflex" unicode="&#xf4;" horiz-adv-x="965" 
d="M130 903q-19 0 -34 -12l-222 -175q-9 -7 -16 -20.5t-7 -25.5q0 -24 17 -41t41 -17q21 0 37 13l174 137l51 -73q7 -10 21 -17.5t27 -7.5q24 0 41 17t17 41q0 19 -11 34l-87 123q-7 10 -20.5 17.5t-26.5 7.5q-1 0 -2 -1zM71 589q-52 0 -95.5 -26.5t-70.5 -69.5
q-54 -88 -26 -195q2 -5 7.5 -15.5l7.5 -14.5q-3 -5 -10.5 -14.5t-10.5 -15.5q-26 -50 -32 -84q-5 -30 5 -53q7 -17 27.5 -30t38.5 -13q37 0 75 19q18 6 34 5t52 -8t71.5 -15t92 -15t112.5 -7h1q106 2 201 19.5t165.5 43.5t135.5 64t108.5 73t86.5 77q16 16 18 35t-7.5 34
t-24 24.5t-34 7t-34.5 -18.5q-40 -39 -76.5 -69t-93 -63.5t-117.5 -55.5t-146 -37.5t-183 -17.5q-132 10 -154 16q-41 10 -39 43q1 27 30 87q47 103 32 178q-10 52 -48.5 82t-98.5 30zM71 473q20 0 27 -5q4 -3 6 -13q6 -29 -21 -97q-2 31 -28 47t-54 4q2 3 1.5 12.5
t1.5 11.5q25 40 67 40z" />
    <glyph glyph-name="otilde" unicode="&#xf5;" horiz-adv-x="965" 
d="M-66 879q-51 0 -95 -37q-39 -32 -49 -70q-2 -8 -2 -16q0 -24 17 -41t41 -17q18 0 34.5 13t21.5 31q-1 -4 1 -1q6 9 10 12q12 10 21 10q14 0 24 -6t35 -26q72 -58 141 -58q130 0 218 88q18 17 18 42q0 24 -17 41t-41 17q-25 0 -42 -17q-32 -33 -56 -44t-80 -11
q-20 0 -32 6.5t-36 25.5q-21 17 -33.5 26t-41.5 20.5t-57 11.5zM71 589q-52 0 -95.5 -26.5t-70.5 -69.5q-54 -88 -26 -195q2 -5 7.5 -15.5l7.5 -14.5q-3 -5 -10.5 -14.5t-10.5 -15.5q-26 -50 -32 -84q-5 -30 5 -53q7 -17 27.5 -30t38.5 -13q37 0 75 19q18 6 34 5t52 -8
t71.5 -15t92 -15t112.5 -7h1q106 2 201 19.5t165.5 43.5t135.5 64t108.5 73t86.5 77q16 16 18 35t-7.5 34t-24 24.5t-34 7t-34.5 -18.5q-40 -39 -76.5 -69t-93 -63.5t-117.5 -55.5t-146 -37.5t-183 -17.5q-132 10 -154 16q-41 10 -39 43q1 27 30 87q47 103 32 178
q-10 52 -48.5 82t-98.5 30zM71 473q20 0 27 -5q4 -3 6 -13q6 -29 -21 -97q-2 31 -28 47t-54 4q2 3 1.5 12.5t1.5 11.5q25 40 67 40z" />
    <glyph glyph-name="odieresis" unicode="&#xf6;" horiz-adv-x="965" 
d="M-10 845q-13 0 -27 -7q-7 -3 -14 -7.5t-10 -7.5l-3 -2q-12 -11 -12 -27v-2q-6 -9 -6 -19q-1 -25 3 -49q4 -25 13 -40t24 -20q19 -7 38 3q34 19 46 73q10 49 -6 79q-6 11 -17.5 18.5t-23.5 7.5h-5zM182 845q-13 0 -27 -7q-7 -3 -14 -7.5t-10 -7.5l-3 -2q-12 -11 -12 -27
v-2q-6 -9 -6 -19q-1 -25 3 -49q4 -25 13 -40t24 -20q19 -7 38 3q34 19 46 73q10 49 -6 79q-6 11 -17.5 18.5t-23.5 7.5h-5zM71 589q-52 0 -95.5 -26.5t-70.5 -69.5q-54 -88 -26 -195q2 -5 7.5 -15.5l7.5 -14.5q-3 -5 -10.5 -14.5t-10.5 -15.5q-26 -50 -32 -84q-5 -30 5 -53
q7 -17 27.5 -30t38.5 -13q37 0 75 19q18 6 34 5t52 -8t71.5 -15t92 -15t112.5 -7h1q106 2 201 19.5t165.5 43.5t135.5 64t108.5 73t86.5 77q16 16 18 35t-7.5 34t-24 24.5t-34 7t-34.5 -18.5q-40 -39 -76.5 -69t-93 -63.5t-117.5 -55.5t-146 -37.5t-183 -17.5
q-132 10 -154 16q-41 10 -39 43q1 27 30 87q47 103 32 178q-10 52 -48.5 82t-98.5 30zM71 473q20 0 27 -5q4 -3 6 -13q6 -29 -21 -97q-2 31 -28 47t-54 4q2 3 1.5 12.5t1.5 11.5q25 40 67 40z" />
    <glyph glyph-name="divide" unicode="&#xf7;" horiz-adv-x="551" 
d="M249 461q-13 0 -27 -7q-8 -3 -14.5 -7.5t-9.5 -7.5l-3 -2q-13 -11 -13 -27v-2q-6 -9 -6 -19q0 -25 4 -49q4 -25 13 -40t24 -20q19 -7 38 3q34 19 46 73q10 49 -6 79q-6 11 -18 18.5t-23 7.5h-5zM249 78q-13 0 -27 -7q-8 -3 -14.5 -7.5t-9.5 -7.5l-3 -2q-13 -11 -13 -27
v-2q-6 -9 -6 -19q0 -25 4 -49q4 -25 13 -40t24 -20q19 -7 38 3q34 19 46 73q10 49 -6 79q-6 11 -18 18.5t-23 7.5h-5zM442 250h-4l-335 -35q-22 -2 -37.5 -18.5t-15.5 -38.5q0 -24 17 -41t41 -17h6l336 34q21 2 36.5 19t15.5 39q0 24 -17 41t-41 17h-2z" />
    <glyph glyph-name="ugrave" unicode="&#xf9;" horiz-adv-x="1184" 
d="M166 762h-2h-4q-23 -2 -38.5 -19t-15.5 -39q0 -8 2 -16l30 -119q4 -19 21 -32.5t36 -13.5q24 0 41 17t17 41q0 8 -2 16l-31 120q-4 18 -20 31t-34 14zM462 482h-2q-33 -1 -49 -28q-80 -139 -162 -225q-48 -50 -94.5 -77.5t-82.5 -27.5q-49 0 -58 43q-6 26 9 64.5t59 82.5
q16 15 18.5 34.5t-7.5 34t-24.5 24t-33.5 7.5t-35 -18q-61 -61 -86.5 -127t-13.5 -126q13 -59 61.5 -97t110.5 -38q126 0 260 141q32 28 51 -11q36 -54 96 -80.5t129 -26.5q173 0 355 80.5t304 202.5q16 15 18 34.5t-7.5 34t-24 24t-33.5 7.5t-35 -18
q-102 -102 -268.5 -175.5t-308.5 -73.5q-42 0 -77 15t-51 40q-43 65 32 194q16 28 -0.5 56.5t-49.5 29.5z" />
    <glyph glyph-name="uacute" unicode="&#xfa;" horiz-adv-x="1184" 
d="M193 762h2h4q22 -2 38 -19t16 -39q0 -8 -2 -16l-31 -119q-4 -19 -20.5 -32.5t-35.5 -13.5q-24 0 -41 17t-17 41q0 8 2 16l30 120q5 18 21 31t34 14zM462 482h-2q-33 -1 -49 -28q-80 -139 -162 -225q-48 -50 -94.5 -77.5t-82.5 -27.5q-49 0 -58 43q-6 26 9 64.5t59 82.5
q16 15 18.5 34.5t-7.5 34t-24.5 24t-33.5 7.5t-35 -18q-61 -61 -86.5 -127t-13.5 -126q13 -59 61.5 -97t110.5 -38q126 0 260 141q32 28 51 -11q36 -54 96 -80.5t129 -26.5q173 0 355 80.5t304 202.5q16 15 18 34.5t-7.5 34t-24 24t-33.5 7.5t-35 -18
q-102 -102 -268.5 -175.5t-308.5 -73.5q-42 0 -77 15t-51 40q-43 65 32 194q16 28 -0.5 56.5t-49.5 29.5z" />
    <glyph glyph-name="ucircumflex" unicode="&#xfb;" horiz-adv-x="1184" 
d="M294 823q-18 -1 -33 -13l-222 -175q-9 -7 -16 -20.5t-7 -25.5q0 -24 17 -41t41 -17q21 0 37 13l174 137l51 -73q7 -10 21 -17.5t27 -7.5q24 0 41 17t17 41q0 19 -11 34l-87 123q-7 10 -21 17.5t-26 7.5h-3zM462 482h-2q-33 -1 -49 -28q-80 -139 -162 -225
q-48 -50 -94.5 -77.5t-82.5 -27.5q-49 0 -58 43q-6 26 9 64.5t59 82.5q16 15 18.5 34.5t-7.5 34t-24.5 24t-33.5 7.5t-35 -18q-61 -61 -86.5 -127t-13.5 -126q13 -59 61.5 -97t110.5 -38q126 0 260 141q32 28 51 -11q36 -54 96 -80.5t129 -26.5q173 0 355 80.5t304 202.5
q16 15 18 34.5t-7.5 34t-24 24t-33.5 7.5t-35 -18q-102 -102 -268.5 -175.5t-308.5 -73.5q-42 0 -77 15t-51 40q-43 65 32 194q16 28 -0.5 56.5t-49.5 29.5z" />
    <glyph glyph-name="udieresis" unicode="&#xfc;" horiz-adv-x="1184" 
d="M144 731q-13 0 -27 -7q-7 -3 -14 -7.5t-10 -7.5l-3 -2q-12 -11 -12 -27v-2q-6 -9 -6 -19q-1 -25 3 -49q4 -25 13 -40t24 -20q19 -7 38 3q34 19 46 73q10 49 -6 79q-6 11 -17.5 18.5t-23.5 7.5h-5zM336 731q-13 0 -27 -7q-7 -3 -14 -7.5t-10 -7.5l-3 -2q-12 -11 -12 -27
v-2q-6 -9 -6 -19q-1 -25 3 -49q4 -25 13 -40t24 -20q19 -7 38 3q34 19 46 73q10 49 -6 79q-6 11 -17.5 18.5t-23.5 7.5h-5zM462 482h-2q-33 -1 -49 -28q-80 -139 -162 -225q-48 -50 -94.5 -77.5t-82.5 -27.5q-49 0 -58 43q-6 26 9 64.5t59 82.5q16 15 18.5 34.5t-7.5 34
t-24.5 24t-33.5 7.5t-35 -18q-61 -61 -86.5 -127t-13.5 -126q13 -59 61.5 -97t110.5 -38q126 0 260 141q32 28 51 -11q36 -54 96 -80.5t129 -26.5q173 0 355 80.5t304 202.5q16 15 18 34.5t-7.5 34t-24 24t-33.5 7.5t-35 -18q-102 -102 -268.5 -175.5t-308.5 -73.5
q-42 0 -77 15t-51 40q-43 65 32 194q16 28 -0.5 56.5t-49.5 29.5z" />
    <glyph glyph-name="yacute" unicode="&#xfd;" horiz-adv-x="1160" 
d="M284 762h2h4q23 -2 38.5 -19t15.5 -39q0 -8 -2 -16l-30 -119q-4 -19 -21 -32.5t-36 -13.5q-24 0 -41 17t-17 41q0 8 2 16l31 120q4 18 20 31t34 14zM464 501q-34 0 -50 -29q-80 -137 -144 -211q-118 -135 -225 -135q-7 0 -7.5 0.5t-4.5 5.5q-9 15 -9 45q0 33 16 72.5
t40 63.5q17 15 20 34.5t-6.5 35t-24 25.5t-34 7.5t-35.5 -18.5q-45 -44 -68.5 -102t-23.5 -118q-1 -65 29 -109q16 -25 45.5 -41.5t62.5 -16.5q90 -2 210 75q42 27 46 24q3 -3 -1 -16q-7 -20 -29.5 -42.5t-42 -36.5t-49.5 -33q-217 -137 -382.5 -287t-269.5 -299
q-193 -276 -194 -494q0 -112 55 -179q29 -36 72.5 -55t94.5 -19q162 0 323 201q129 161 261 455q72 159 143 361q6 15 15 41q14 41 21 60l19.5 50.5t20 46.5l20.5 39.5t25 37.5l29 31.5t35.5 32t42 28.5t51.5 29q304 151 630 238q42 9 46 50q3 36 -25 56q-22 15 -51 6
q-250 -67 -493 -173q-161 -91 -194 -71q-23 14 0 100q5 20 19 68q18 59 27 93q7 27 -9.5 49.5t-44.5 23.5h-2zM174 -172q33 1 15 -73q-7 -26 -19 -61q-70 -194 -137 -343q-125 -280 -246 -430q-125 -157 -232 -157q-52 0 -77 31q-29 35 -29 105q1 81 44.5 193.5t128.5 234.5
q164 235 455 450q69 50 97 50z" />
    <glyph glyph-name="ydieresis" unicode="&#xff;" horiz-adv-x="1160" 
d="M116 723q-13 0 -28 -7q-7 -3 -14 -7.5t-10 -7.5l-3 -2q-12 -11 -12 -27v-2q-6 -9 -6 -19q-1 -25 3 -49q4 -25 13 -40t24 -20q19 -7 38 3q34 19 46 73q11 49 -6 79q-5 11 -17 18.5t-23 7.5h-5zM308 723q-13 0 -28 -7q-7 -3 -14 -7.5t-10 -7.5l-3 -2q-12 -11 -12 -27v-2
q-6 -9 -6 -19q-1 -25 3 -49q4 -25 13 -40t24 -20q19 -7 38 3q34 19 46 73q11 49 -6 79q-5 11 -17 18.5t-23 7.5h-5zM464 501q-34 0 -50 -29q-80 -137 -144 -211q-118 -135 -225 -135q-7 0 -7.5 0.5t-4.5 5.5q-9 15 -9 45q0 33 16 72.5t40 63.5q17 15 20 34.5t-6.5 35
t-24 25.5t-34 7.5t-35.5 -18.5q-45 -44 -68.5 -102t-23.5 -118q-1 -65 29 -109q16 -25 45.5 -41.5t62.5 -16.5q90 -2 210 75q42 27 46 24q3 -3 -1 -16q-7 -20 -29.5 -42.5t-42 -36.5t-49.5 -33q-217 -137 -382.5 -287t-269.5 -299q-193 -276 -194 -494q0 -112 55 -179
q29 -36 72.5 -55t94.5 -19q162 0 323 201q129 161 261 455q72 159 143 361q6 15 15 41q14 41 21 60l19.5 50.5t20 46.5l20.5 39.5t25 37.5l29 31.5t35.5 32t42 28.5t51.5 29q304 151 630 238q42 9 46 50q3 36 -25 56q-22 15 -51 6q-250 -67 -493 -173q-161 -91 -194 -71
q-23 14 0 100q5 20 19 68q18 59 27 93q7 27 -9.5 49.5t-44.5 23.5h-2zM174 -172q33 1 15 -73q-7 -26 -19 -61q-70 -194 -137 -343q-125 -280 -246 -430q-125 -157 -232 -157q-52 0 -77 31q-29 35 -29 105q1 81 44.5 193.5t128.5 234.5q164 235 455 450q69 50 97 50z" />
    <glyph glyph-name="Scaron" unicode="&#x160;" horiz-adv-x="3644" 
d="M1486 1170q-19 0 -34 12l-222 175q-9 7 -16 20.5t-7 25.5q0 24 17 41t41 17q21 0 37 -13l174 -137l51 73q7 10 21 17.5t27 7.5q24 0 41 -17t17 -41q0 -19 -11 -34l-87 -123q-7 -10 -20.5 -17.5t-26.5 -7.5q-1 0 -2 1zM1572 994q-157 0 -337 -40q-263 -57 -436 -165
q-217 -135 -217 -312q0 -92 78 -158q58 -51 168 -88q46 -16 109 -32t105.5 -24.5l128.5 -25.5t118 -24q162 -33 266 -65q117 -46 117 -85q1 -35 -101 -80q-27 -11 -129 -50q-616 -238 -1000 -463q-203 -120 -312 -221q-64 -59 -97 -112.5t-33 -110.5t35 -99q31 -36 85 -55
q88 -31 240 -20q285 23 670 168q402 153 668 350q321 237 321 462v33v31.5t1 27t3 25t5.5 22t9.5 20.5l14.5 17t20.5 16.5t27.5 13t34.5 12.5q457 146 865.5 236t686.5 100q22 1 37 13.5t17.5 29.5t-1.5 34t-19.5 28.5t-37.5 10.5q-293 -10 -706.5 -101.5t-877.5 -239.5
q-29 -11 -54 -18l-44.5 -12.5t-40 -5.5t-32.5 -1.5t-31 4.5t-26.5 8t-28.5 12.5t-28 14.5l-32 19q-91 48 -204 81t-266 64l-118.5 23.5t-128.5 26t-99 23.5t-100 29q-89 30 -131 66q-20 17 -28 32.5t-8 37.5q0 112 162 214q155 97 399 150q228 50 398 33q78 -7 116 -28
q15 -8 18.5 -11.5t3.5 -9.5q0 -52 -39 -117t-106.5 -125.5t-152 -107.5t-164.5 -68q-22 -6 -33.5 -21.5t-10.5 -32.5t9 -33t25.5 -23.5t39.5 -1.5q95 25 190 78t174 123q184 164 184 329q0 39 -24 72t-59 51q-59 32 -159 42q-46 4 -98 4zM1806 -177q88 -1 97 -79
q0 -80 -72 -176.5t-202 -192.5q-126 -93 -292.5 -179t-347.5 -155q-176 -66 -343.5 -108.5t-294.5 -52.5t-192 13q-25 9 -35 21q-8 9 -8 24q0 20 23.5 57.5t69.5 80.5q100 93 292 206q375 220 983 454q122 45 196.5 66t125.5 21z" />
    <glyph glyph-name="scaron" unicode="&#x161;" horiz-adv-x="477" 
d="M96 603q-19 0 -34 12l-222 175q-9 7 -16 20.5t-7 25.5q0 24 17 41t41 17q21 0 37 -13l174 -137l51 73q7 10 21 17.5t27 7.5q24 0 41 -17t17 -41q0 -19 -11 -34l-87 -123q-7 -10 -20.5 -17.5t-26.5 -7.5q-1 0 -2 1zM87 499q-32 0 -56 -23q-17 -16 -26 -41q-5 -15 -8 -58
q-5 -14 -3 -29q0 -39 4 -102q7 -29 -8 -73t-42 -86q-58 -87 -58 -160q0 -43 19 -74q11 -20 33.5 -34t47.5 -14q28 0 54 14t41 35q25 33 34 90q9 53 2 176q4 4 11.5 15t13.5 16q74 67 167.5 107t195.5 40q23 0 38.5 12t19 29t0 34.5t-19 29.5t-38.5 11q-150 0 -293 -79
l-33 -17q-41 -24 -58 -22t-14 45q2 3 15 17t17 23q13 28 12 50q-1 26 -16 44q-20 24 -52 24z" />
    <glyph glyph-name="Ydieresis" unicode="&#x178;" horiz-adv-x="2470" 
d="M812 1195q-13 0 -27 -7q-8 -3 -14.5 -7.5t-9.5 -7.5l-3 -2q-13 -11 -13 -27v-2q-6 -9 -6 -19q0 -25 4 -49q4 -25 13 -40t24 -20q19 -7 38 3q34 19 46 73q10 49 -6 79q-6 11 -18 18.5t-23 7.5h-5zM1004 1195q-13 0 -27 -7q-8 -3 -14.5 -7.5t-9.5 -7.5l-3 -2
q-13 -11 -13 -27v-2q-6 -9 -6 -19q0 -25 4 -49q4 -25 13 -40t24 -20q19 -7 38 3q34 19 46 73q10 49 -6 79q-6 11 -18 18.5t-23 7.5h-5zM1745 1337h-3q-19 -1 -34 -13t-20 -30q-17 -63 -71.5 -188t-131.5 -277q-180 -351 -393 -682q-248 -386 -459 -611
q-110 -117 -210 -183.5t-163 -66.5q-41 0 -69 28q-31 31 -50 95q-39 133 -17 357q20 209 81 405q28 89 62.5 159t61.5 99q16 16 17.5 35.5t-8.5 33.5t-24.5 23.5t-33.5 6.5t-35 -19q-82 -86 -150 -303q-66 -208 -87 -429q-23 -247 22 -400q27 -93 79 -145q62 -62 151 -62
q106 0 217 74t241 213q218 232 472 627q245 365 314 410q43 27 44 -43q1 -66 -53 -348q-7 -37 -8 -43q-35 -157 -113 -318.5t-191 -300.5q-191 -234 -327 -464q-132 -222 -222.5 -431t-129.5 -377q-40 -175 -16 -279q14 -63 52 -99q43 -40 107 -40q62 0 116.5 38t108.5 107
q93 120 194 343q177 394 358 1055q77 217 159.5 357.5t199.5 240.5q369 310 733 407q23 5 35 21t11 33.5t-9 33.5t-26.5 23.5t-40.5 0.5q-334 -89 -663 -330q-136 -92 -170 -53q-24 28 -12 150q2 16 9 78q28 120 44 207q103 548 106 800v1q0 1 1 7t1 8q0 23 -16.5 40
t-40.5 18zM1277 -677q38 -1 -16 -177q-154 -532 -301 -859q-95 -211 -179 -319q-40 -51 -75.5 -76t-58.5 -25q-18 0 -27 8q-13 12 -19 41q-18 78 16 227q36 155 123.5 358t214.5 417q90 150 213 314q81 92 109 91z" />
    <glyph glyph-name="zcaron" unicode="&#x17e;" horiz-adv-x="3308" 
d="M1352 1755q-19 0 -34 12l-222 175q-9 7 -16 20.5t-7 25.5q0 24 17 41t41 17q21 0 37 -13l174 -137l51 73q7 10 21 17.5t27 7.5q24 0 41 -17t17 -41q0 -19 -11 -34l-87 -123q-7 -10 -20.5 -17.5t-26.5 -7.5q-1 0 -2 1zM1714 1551q-97 0 -207 -8q-327 -25 -714.5 -115
t-754.5 -233q-21 -8 -31 -25t-7 -34t13 -32t28 -20t39 3q358 139 739 227.5t696 112.5q315 23 492 -21q83 -21 124 -54q17 -15 24 -28t7 -31q0 -72 -52 -176.5t-146 -225.5q-159 -203 -467 -496l-500 -458l-137 -128t-95.5 -98.5t-71.5 -93.5q-20 -34 4.5 -65t61.5 -20
q223 67 497.5 158.5l500.5 169l480.5 158t537 153.5t570.5 128q22 4 34.5 18.5t13 32t-6.5 34t-24 25t-39 4.5q-125 -24 -244.5 -49.5t-245.5 -58l-219 -56t-227.5 -64l-204 -61.5t-215.5 -69l-195 -64l-210 -70.5l-197 -66.5q-129 -37 -187 -36t-38 49.5t125 155.5l312 288
q314 298 479 509q107 137 164.5 252.5t57.5 220.5q0 42 -19.5 81t-53.5 67q-61 50 -169 77q-101 25 -236 31q-42 2 -86 2z" />
    <glyph glyph-name="circumflex" unicode="&#x2c6;" horiz-adv-x="526" 
d="M328 1092q-18 -1 -33 -13l-222 -174q-9 -8 -16 -21.5t-7 -25.5q0 -24 17 -41t41 -17q21 0 37 13l174 137l51 -72q7 -11 21 -18.5t27 -7.5q24 0 41 17t17 41q0 19 -11 35l-87 122q-7 11 -21 18t-26 7h-3z" />
    <glyph glyph-name="caron" unicode="&#x2c7;" horiz-adv-x="526" 
d="M328 800q-18 1 -33 12l-222 175q-9 8 -16 21.5t-7 25.5q0 24 17 41t41 17q21 0 37 -13l174 -137l51 72q7 11 21 18.5t27 7.5q24 0 41 -17t17 -41q0 -19 -11 -35l-87 -122q-7 -11 -21 -18t-26 -7h-3z" />
    <glyph glyph-name="dotaccent" unicode="&#x2d9;" horiz-adv-x="255" 
d="M123 1003q-13 0 -28 -7q-7 -3 -14 -7.5t-10 -7.5l-3 -2q-12 -11 -12 -27v-2q-6 -9 -6 -19q-1 -25 3 -49q4 -25 13 -40t24 -20q19 -7 38 3q34 19 46 73q11 49 -5 79q-6 11 -18 18.5t-23 7.5h-5z" />
    <glyph glyph-name="ring" unicode="&#x2da;" horiz-adv-x="369" 
d="M171 1051l-25 -1q-25 -1 -41 -21q-10 -2 -20 -10.5t-15 -16.5q-28 -48 -17 -109q7 -35 27 -59q27 -33 71 -35h1h1q41 0 75.5 16.5t55.5 42.5q36 44 36 99q0 24 -15.5 45t-33.5 30q-23 12 -58 17q-19 2 -42 2zM175 934q9 0 20 -1q-1 0 -1 -1v-2q-3 -2 -26 -9q1 10 1 13h6z
" />
    <glyph glyph-name="tilde" unicode="&#x2dc;" horiz-adv-x="682" 
d="M196 1006q-51 0 -95 -37q-39 -32 -49 -70q-2 -8 -2 -16q0 -24 17 -41t41 -17q19 0 35 13t21 31q-1 -4 2 -1q5 9 9 12q12 10 21 10q14 0 24.5 -6t35.5 -26q71 -58 140 -58q130 0 219 88q17 17 17 42q0 24 -17 41t-41 17t-41 -17q-33 -33 -56.5 -44t-80.5 -11
q-20 0 -32 6.5t-36 25.5q-21 17 -33.5 26t-41 20.5t-57.5 11.5z" />
    <glyph glyph-name="endash" unicode="&#x2013;" horiz-adv-x="551" 
d="M442 320h-4l-335 -35q-22 -2 -37.5 -18.5t-15.5 -38.5q0 -24 17 -41t41 -17h6l336 34q21 2 36.5 19t15.5 39q0 24 -17 41t-41 17h-2z" />
    <glyph glyph-name="emdash" unicode="&#x2014;" horiz-adv-x="588" 
d="M111 403h-3q-24 0 -41 -17t-17 -41t17 -41t41 -17l370 -9h2q25 0 42 17t17 41t-17 41t-41 17z" />
    <glyph glyph-name="quoteleft" unicode="&#x2018;" horiz-adv-x="247" 
d="M110 1035h-2h-4q-22 -2 -38 -19t-16 -39q0 -8 2 -16l31 -119q4 -19 20.5 -32.5t35.5 -13.5q24 0 41 17t17 41q0 8 -2 16l-30 120q-5 18 -21 31t-34 14z" />
    <glyph glyph-name="quoteright" unicode="&#x2019;" horiz-adv-x="247" 
d="M137 1035h2h4q23 -2 38.5 -19t15.5 -39q0 -8 -2 -16l-30 -119q-4 -19 -21 -32.5t-36 -13.5q-24 0 -41 17t-17 41q0 8 2 16l31 120q4 18 20 31t34 14z" />
    <glyph glyph-name="quotesinglbase" unicode="&#x201a;" horiz-adv-x="247" 
d="M137 98h2h4q23 -2 38.5 -19t15.5 -39q0 -8 -2 -16l-30 -119q-4 -19 -21 -32.5t-36 -13.5q-24 0 -41 17t-17 41q0 8 2 16l31 120q4 18 20 31t34 14z" />
    <glyph glyph-name="quotedblright" unicode="&#x201d;" horiz-adv-x="403" 
d="M137 714h2h4q23 -2 38.5 -19t15.5 -39q0 -8 -2 -16l-30 -119q-4 -19 -21 -32.5t-36 -13.5q-24 0 -41 17t-17 41q0 8 2 16l31 120q4 18 20 31t34 14zM293 714h2h4q23 -2 39 -19t16 -39q0 -8 -2 -16l-31 -119q-4 -19 -20.5 -32.5t-36.5 -13.5q-24 0 -41 17t-17 41q0 8 2 16
l31 120q4 18 20 31t34 14z" />
    <glyph glyph-name="quotedblbase" unicode="&#x201e;" horiz-adv-x="403" 
d="M137 98h2h4q23 -2 38.5 -19t15.5 -39q0 -8 -2 -16l-30 -119q-4 -19 -21 -32.5t-36 -13.5q-24 0 -41 17t-17 41q0 8 2 16l31 120q4 18 20 31t34 14zM293 98h2h4q23 -2 39 -19t16 -39q0 -8 -2 -16l-31 -119q-4 -19 -20.5 -32.5t-36.5 -13.5q-24 0 -41 17t-17 41q0 8 2 16
l31 120q4 18 20 31t34 14z" />
    <glyph glyph-name="bullet" unicode="&#x2022;" horiz-adv-x="369" 
d="M171 351l-25 -1q-25 -2 -41 -21q-10 -3 -20 -11t-15 -17q-28 -47 -17 -109q7 -35 27 -58q27 -33 71 -36h1h1q41 0 75.5 16.5t55.5 42.5q36 44 36 99q0 25 -15.5 45.5t-33.5 30.5q-23 12 -58 16q-19 2 -42 3zM175 234q9 0 20 -1q-1 -1 -1 -2v-1q-3 -3 -26 -10q1 10 1 14h6
z" />
    <glyph glyph-name="ellipsis" unicode="&#x2026;" horiz-adv-x="537" 
d="M431 178q-12 0 -27 -7q-7 -3 -14 -7.5t-10 -7.5l-3 -2q-12 -11 -12 -27v-2q-6 -9 -6 -19q-1 -25 3 -49q4 -25 13 -40t24 -20q19 -7 38 3q34 19 46 73q10 49 -6 79q-5 11 -17 18.5t-23 7.5h-6zM123 178q-13 0 -28 -7q-7 -3 -14 -7.5t-10 -7.5l-3 -2q-12 -11 -12 -27v-2
q-6 -9 -6 -19q-1 -25 3 -49q4 -25 13 -40t24 -20q19 -7 38 3q34 19 46 73q11 49 -5 79q-6 11 -18 18.5t-23 7.5h-5zM277 178q-13 0 -27 -7q-8 -3 -14.5 -7.5t-9.5 -7.5l-3 -2q-13 -11 -13 -27v-2q-6 -9 -6 -19q0 -25 4 -49q4 -25 13 -40t24 -20q19 -7 38 3q34 19 46 73
q10 49 -6 79q-6 11 -18 18.5t-23 7.5h-5z" />
    <glyph glyph-name="guilsinglleft" unicode="&#x2039;" horiz-adv-x="408" 
d="M282 348h2q29 -1 45 -23t10 -48.5t-32 -39.5q-36 -15 -45 -29.5t7 -34t63 -52.5q18 -13 24 -31.5t-1 -34t-19.5 -28t-31.5 -13t-38 10.5l-191 132q-27 19 -24.5 52t32.5 48l173 85q12 6 26 6z" />
    <glyph glyph-name="guilsinglright" unicode="&#x203a;" horiz-adv-x="408" 
d="M126 348h-2q-29 -1 -45 -23t-10 -48.5t32 -39.5q36 -15 45 -29.5t-7 -34t-63 -52.5q-18 -13 -23.5 -31.5t1 -34t19.5 -28t31.5 -13t37.5 10.5l191 132q28 19 25.5 52t-32.5 48l-173 85q-13 6 -27 6z" />
    <glyph glyph-name="Euro" unicode="&#x20ac;" horiz-adv-x="776" 
d="M668 752q-7 0 -15 -2q-109 -29 -231 -165q-48 -61 -103.5 -88t-165.5 -48q-22 -4 -35 -18.5t-13 -32t6.5 -34t24 -25.5t39.5 -4q36 5 39 -13q3 -17 -30 -30q-6 -3 -13 -5l-79 -22q-21 -6 -32 -22t-10 -33t9 -32.5t26 -23t39 -1.5q9 3 16.5 3t12.5 -3t9 -7t6.5 -11.5
t4.5 -15t3.5 -18.5t2.5 -21t2.5 -23t3.5 -24q13 -74 66 -115q54 -42 142 -42q54 0 115 36q22 13 33.5 21t25.5 25.5t21 40.5q7 21 0 39t-22.5 26t-33 10t-33 -9t-22.5 -32q2 5 -1 2q-20 -19 -27 -23q-34 -20 -56 -20q-48 0 -71 18q-17 13 -23 43q1 84 20 124t76 53l188 54
q23 6 34.5 25.5t8.5 39t-19 35t-41 14.5q-8 0 -15 -2l-103 -30q-27 -7 -33 2q-4 7 13 14q8 3 20 5l101 19q25 5 37.5 24t10 39.5t-18.5 36.5t-41 15q-21 2 15 31q5 4 6 6q73 66 125 80q24 6 35 25t8.5 38.5t-18 35t-40.5 15.5z" />
    </font>
</defs>
</svg>
