<?xml version="1.0" encoding="utf-8"?>
<!-- Generator: Adobe Illustrator 22.1.0, SVG Export Plug-In . SVG Version: 6.00 Build 0)  -->
<svg version="1.1" id="Layer_1" xmlns="http://www.w3.org/2000/svg" xmlns:xlink="http://www.w3.org/1999/xlink" x="0px" y="0px"
	 viewBox="0 0 30 30" style="enable-background:new 0 0 30 30;" xml:space="preserve">
<style type="text/css">
	.st0{fill:#FFFFFF;}
</style>
<g>
	<path d="M15,2C7.8,2,2,7.8,2,15c0,7.2,5.8,13,13,13c7.2,0,13-5.8,13-13C28,7.8,22.2,2,15,2z"/>
	<g>
		<path class="st0" d="M8.7,10.4l5.4,4.3c0.2,0.2,0.6,0.3,0.9,0.3c0.3,0,0.7-0.1,0.9-0.3l5.4-4.3c0.4-0.3,0.3-0.6-0.2-0.6H8.9
			C8.4,9.8,8.3,10.1,8.7,10.4L8.7,10.4z M8.7,10.4"/>
		<path class="st0" d="M21.7,11.5L15.8,16c-0.2,0.2-0.5,0.2-0.8,0.2c-0.3,0-0.6-0.1-0.8-0.2l-5.9-4.5c-0.4-0.3-0.8-0.2-0.8,0.4v7.3
			c0,0.5,0.4,1,1,1h12.9c0.5,0,1-0.4,1-1v-7.3C22.5,11.4,22.1,11.2,21.7,11.5L21.7,11.5z M21.7,11.5"/>
	</g>
</g>
</svg>
