<?xml version="1.0" encoding="utf-8"?>
<!-- Generator: Adobe Illustrator 22.1.0, SVG Export Plug-In . SVG Version: 6.00 Build 0)  -->
<svg version="1.1" id="Layer_1" xmlns="http://www.w3.org/2000/svg" xmlns:xlink="http://www.w3.org/1999/xlink" x="0px" y="0px"
	 viewBox="0 0 30 30" style="enable-background:new 0 0 30 30;" xml:space="preserve">
<style type="text/css">
	.st0{fill:#FFFFFF;}
</style>
<g>
	<path d="M15,2C7.8,2,2,7.8,2,15c0,7.2,5.8,13,13,13c7.2,0,13-5.8,13-13C28,7.8,22.2,2,15,2z"/>
	<g>
		<path class="st0" d="M21.7,14.6c-0.2-3.4-2.9-6-6.3-6.3v0h-0.9v0c-3.4,0.2-6,2.9-6.3,6.3h0v0.9h0c0.2,3.4,2.9,6,6.3,6.3v0h0.9v0
			c3.4-0.2,6-2.9,6.3-6.3h0L21.7,14.6L21.7,14.6z M12.5,9.7c-0.4,0.6-0.8,1.3-1.1,2.1h-1.3C10.7,10.9,11.5,10.2,12.5,9.7L12.5,9.7z
			 M9.6,12.8h1.6c-0.1,0.6-0.2,1.2-0.2,1.8H9.2C9.2,13.9,9.4,13.3,9.6,12.8L9.6,12.8z M9.2,15.4H11c0,0.6,0.1,1.2,0.2,1.8H9.6
			C9.4,16.7,9.2,16.1,9.2,15.4L9.2,15.4z M10.1,18.1h1.3c0.3,0.8,0.6,1.5,1.1,2.1C11.5,19.8,10.7,19.1,10.1,18.1L10.1,18.1z
			 M14.6,20.8c-0.9-0.2-1.7-1.2-2.2-2.6h2.2V20.8z M14.6,17.2h-2.5c-0.1-0.6-0.2-1.2-0.2-1.8h2.7V17.2z M14.6,14.6h-2.7
			c0-0.6,0.1-1.2,0.2-1.8h2.5V14.6z M14.6,11.9h-2.2c0.5-1.4,1.3-2.4,2.2-2.6V11.9z M19.9,11.9h-1.3c-0.3-0.8-0.6-1.5-1.1-2.1
			C18.5,10.2,19.3,10.9,19.9,11.9L19.9,11.9z M15.4,9.2c0.9,0.2,1.7,1.2,2.2,2.6h-2.2V9.2z M15.4,12.8h2.5c0.1,0.6,0.2,1.2,0.2,1.8
			h-2.7V12.8z M15.4,15.4h2.7c0,0.6-0.1,1.2-0.2,1.8h-2.5V15.4z M15.4,20.8v-2.6h2.2C17.2,19.5,16.4,20.5,15.4,20.8L15.4,20.8z
			 M17.5,20.3c0.4-0.6,0.8-1.3,1.1-2.1h1.3C19.3,19.1,18.5,19.8,17.5,20.3L17.5,20.3z M20.4,17.2h-1.6c0.1-0.6,0.2-1.2,0.2-1.8h1.8
			C20.8,16.1,20.6,16.7,20.4,17.2L20.4,17.2z M19,14.6c0-0.6-0.1-1.2-0.2-1.8h1.6c0.2,0.6,0.4,1.2,0.4,1.8H19z M19,14.6"/>
	</g>
</g>
</svg>
