<?xml version="1.0" encoding="utf-8"?>
<!-- Generator: Adobe Illustrator 22.1.0, SVG Export Plug-In . SVG Version: 6.00 Build 0)  -->
<svg version="1.1" id="Layer_1" xmlns="http://www.w3.org/2000/svg" xmlns:xlink="http://www.w3.org/1999/xlink" x="0px" y="0px"
	 viewBox="0 0 30 30" style="enable-background:new 0 0 30 30;" xml:space="preserve">
<style type="text/css">
	.st0{fill:#FFFFFF;}
</style>
<g>
	<path d="M16,21.5c0,0.6-0.5,1-1,1c-0.6,0-1-0.4-1-1c0-0.6,0.5-1,1-1C15.6,20.5,16,21,16,21.5L16,21.5z M16,21.5"/>
	<path d="M17.8,8h-5.6c-0.3,0-0.6,0.2-0.6,0.5v10.6c0,0.3,0.3,0.5,0.6,0.5h5.6c0.3,0,0.6-0.2,0.6-0.5V8.5C18.4,8.2,18.1,8,17.8,8
		L17.8,8z M17.8,8"/>
	<path d="M15,2.1C7.9,2.1,2.1,7.9,2.1,15c0,7.1,5.8,12.9,12.9,12.9c7.1,0,12.9-5.8,12.9-12.9C27.9,7.9,22.1,2.1,15,2.1L15,2.1z
		 M20,21.3c0,1-0.8,1.8-1.8,1.8h-6.5c-1,0-1.8-0.8-1.8-1.8V8.6c0-1,0.8-1.8,1.8-1.8h6.5c1,0,1.8,0.8,1.8,1.8V21.3z M20,21.3"/>
</g>
</svg>
