<?xml version="1.0" encoding="utf-8"?>
<!-- Generator: Adobe Illustrator 22.1.0, SVG Export Plug-In . SVG Version: 6.00 Build 0)  -->
<svg version="1.1" id="Layer_1" xmlns="http://www.w3.org/2000/svg" xmlns:xlink="http://www.w3.org/1999/xlink" x="0px" y="0px"
	 viewBox="0 0 269 182" style="enable-background:new 0 0 269 182;" xml:space="preserve">
<style type="text/css">
	.st0{fill:#404041;}
</style>
<g>
	<g>
		<path class="st0" d="M11.9,15.4c2,0,3.1-0.9,3.1-2.9V2.3h2.5v10.2c0,3.6-1.9,5.1-5.5,5.1c-3.6,0-5.5-1.5-5.5-5.1V2.3h2.5v10.2
			C8.8,14.5,9.9,15.4,11.9,15.4z"/>
		<path class="st0" d="M25.2,8.2l3.3-5.9h2.6l-4.4,7.6l4.4,7.4h-2.7l-3.2-5.6l-3.3,5.6h-2.6l4.5-7.2l-4.5-7.7H22L25.2,8.2z"/>
		<path class="st0" d="M37.9,17.3v-15h5.2c4.8,0,6,2.6,6,7.2c0,4.7-1.1,7.7-6,7.7H37.9z M43.1,4.4h-2.8v10.7h2.8
			c3,0,3.5-2.3,3.5-5.6C46.6,6.2,46.1,4.4,43.1,4.4z"/>
		<path class="st0" d="M51.9,2.3h9.5v2.1h-7v4.2h5.7v2.1h-5.7v4.4h7v2.1h-9.5V2.3z"/>
		<path class="st0" d="M72.8,4.5c0,0-3.1-0.4-4.3-0.4c-1.8,0-2.8,0.7-2.8,1.9c0,1.4,0.8,1.7,3.3,2.4c3.2,0.9,4.3,1.7,4.3,4.3
			c0,3.3-2.1,4.7-5,4.7c-1.9,0-4.9-0.6-4.9-0.6l0.2-1.9c0,0,3,0.4,4.5,0.4c1.9,0,2.7-0.8,2.7-2.4c0-1.3-0.7-1.7-3-2.3
			c-3.2-0.8-4.6-1.8-4.6-4.4c0-3,2-4.3,5-4.3C70.1,2,73,2.5,73,2.5L72.8,4.5z"/>
		<path class="st0" d="M75.9,2.3h2.4v15h-2.4V2.3z"/>
		<path class="st0" d="M87.9,9.4h4.3V17c-0.2,0-3.2,0.5-5,0.5c-4.8,0-6-2.8-6-7.7c0-5.3,1.4-7.7,5.9-7.7c2.3,0,5.1,0.6,5.1,0.6
			l-0.1,1.9c0,0-2.6-0.4-4.6-0.4c-3,0-3.8,1.4-3.8,5.6c0,4.1,0.6,5.6,3.7,5.6c1,0,2.1-0.1,2.4-0.2v-3.7h-1.9V9.4z"/>
		<path class="st0" d="M95.2,2.3h4.2l4.6,12.8h0.3V2.3h2.4v15h-4.2L97.9,4.4h-0.3v12.9h-2.4V2.3z"/>
	</g>
	<g>
		<path class="st0" d="M119.9,11.4v4.8h-1.2V2.5h5c2.9,0,4.3,1.4,4.3,4.3c0,2.9-1.3,4.6-4.3,4.6H119.9z M123.7,10.3
			c2.1,0,3-1.3,3-3.5c0-2.2-0.9-3.2-3-3.2h-3.8v6.8H123.7z"/>
		<path class="st0" d="M140.4,9.8H133v6.3h-1.2V2.5h1.2v6.3h7.4V2.5h1.2v13.7h-1.2V9.8z"/>
		<path class="st0" d="M145.9,9.4c0-4.5,1.1-7.1,5.3-7.1s5.4,2.6,5.4,7.1c0,4.7-1.1,7-5.4,7S145.9,13.9,145.9,9.4z M155.3,9.4
			c0-3.8-0.8-6-4.1-6c-3.3,0-4.1,2.1-4.1,6c0,3.9,0.7,5.9,4.1,5.9C154.6,15.3,155.3,13.4,155.3,9.4z"/>
		<path class="st0" d="M158.9,2.5h9.8v1.1h-4.3v12.6h-1.2V3.6h-4.3V2.5z"/>
		<path class="st0" d="M171.2,9.4c0-4.5,1.1-7.1,5.3-7.1c4.2,0,5.4,2.6,5.4,7.1c0,4.7-1.1,7-5.4,7C172.3,16.4,171.2,13.9,171.2,9.4z
			 M180.6,9.4c0-3.8-0.8-6-4.1-6c-3.3,0-4.1,2.1-4.1,6c0,3.9,0.7,5.9,4.1,5.9C179.9,15.3,180.6,13.4,180.6,9.4z"/>
		<path class="st0" d="M191.5,9.2h3.7v6.6c-0.5,0.1-3,0.5-4.4,0.5c-4.1,0-5.2-2.6-5.2-7c0-4.5,1.1-7.1,5.2-7.1
			c2.1,0,4.4,0.5,4.4,0.5l-0.1,1c0,0-2.5-0.5-4.3-0.5c-3.3,0-4.1,2.1-4.1,6c0,3.8,0.7,5.9,4,5.9c1,0,2.5-0.2,3.1-0.3v-4.6h-2.5V9.2z
			"/>
		<path class="st0" d="M200.9,10.8v5.4h-1.2V2.5h5c2.8,0,4.3,1.2,4.3,4.1c0,2.1-0.8,3.5-2.6,4l2.8,5.6h-1.4l-2.7-5.4H200.9z
			 M204.7,3.6h-3.8v6.1h3.8c2.2,0,3-1.3,3-3.1C207.7,4.5,206.7,3.6,204.7,3.6z"/>
		<path class="st0" d="M215.8,2.5h2.9l3.9,13.7h-1.2l-1.1-3.8h-6.1l-1.1,3.8h-1.2L215.8,2.5z M214.4,11.3h5.5l-2.2-7.8h-1.1
			L214.4,11.3z"/>
		<path class="st0" d="M227.4,11.4v4.8h-1.2V2.5h5c2.9,0,4.3,1.4,4.3,4.3c0,2.9-1.3,4.6-4.3,4.6H227.4z M231.2,10.3
			c2.1,0,3-1.3,3-3.5c0-2.2-0.9-3.2-3-3.2h-3.8v6.8H231.2z"/>
		<path class="st0" d="M247.9,9.8h-7.4v6.3h-1.2V2.5h1.2v6.3h7.4V2.5h1.2v13.7h-1.2V9.8z"/>
		<path class="st0" d="M258.1,16.2h-1.2v-5.8l-4.4-7.9h1.4l3.6,6.6l3.6-6.6h1.4l-4.4,7.9V16.2z"/>
	</g>
	<g>
		<path class="st0" d="M6.5,70.4v7.2H4.9V59.4h6.7c3.8,0,5.7,1.6,5.7,5.4c0,2.8-1.1,4.7-3.5,5.3l3.8,7.5h-1.8l-3.6-7.2H6.5z
			 M11.6,60.8H6.5V69h5.1c3,0,4-1.7,4-4.2C15.6,62.1,14.3,60.8,11.6,60.8z"/>
		<path class="st0" d="M21,59.4h11v1.5h-9.3v6.8h7.7v1.4h-7.7v7.1H32v1.4H21V59.4z"/>
		<path class="st0" d="M39.1,59.4H43l5.2,18.3h-1.6l-1.5-5H37l-1.4,5h-1.6L39.1,59.4z M37.4,71.2h7.4l-3-10.3h-1.4L37.4,71.2z"/>
		<path class="st0" d="M51.1,77.6V59.4h6.6c5,0,6.5,3.9,6.5,8.9c0,5-1.4,9.4-6.5,9.4H51.1z M57.8,60.9h-5v15.3h5
			c3.8,0,4.8-4,4.8-7.9C62.6,64.4,61.6,60.9,57.8,60.9z"/>
		<path class="st0" d="M68.1,59.4h1.6v18.3h-1.6V59.4z"/>
		<path class="st0" d="M74.3,59.4h3.2l7.6,16.8h0.6V59.4h1.6v18.3h-3.2l-7.7-16.8h-0.6v16.8h-1.6V59.4z"/>
		<path class="st0" d="M99.1,68.4h5v8.8c-0.7,0.2-4,0.7-5.9,0.7c-5.5,0-7-3.5-7-9.3c0-5.9,1.4-9.5,7-9.5c2.8,0,5.9,0.7,5.9,0.7
			l-0.1,1.4c0,0-3.3-0.6-5.7-0.6c-4.5,0-5.4,2.8-5.4,8c0,5.1,0.9,7.9,5.4,7.9c1.4,0,3.3-0.3,4.2-0.4v-6.1h-3.4V68.4z"/>
	</g>
	<g>
		<path class="st0" d="M124.9,71.4v5.1h-2.7V60.1h6c3.8,0,5.6,1.8,5.6,5.5c0,3.7-1.9,5.8-5.6,5.8H124.9z M128.3,69.1
			c2,0,2.9-1.2,2.9-3.5c0-2.3-0.9-3.2-2.9-3.2h-3.3v6.7H128.3z"/>
		<path class="st0" d="M139.2,70.7v5.9h-2.7V60.1h6.3c3.6,0,5.6,1.6,5.6,5.2c0,2.3-0.9,3.9-2.7,4.8l2.7,6.5h-2.9l-2.4-5.9H139.2z
			 M142.7,62.4h-3.6v6h3.6c2,0,2.8-1.3,2.8-3C145.6,63.5,144.7,62.4,142.7,62.4z"/>
		<path class="st0" d="M151.4,60.1h2.7v16.5h-2.7V60.1z"/>
		<path class="st0" d="M157.8,60.1h4.7l5,14.1h0.4V60.1h2.7v16.5H166l-5.1-14.2h-0.3v14.2h-2.7V60.1z"/>
		<path class="st0" d="M172.8,60.1h12v2.4h-4.6v14.1h-2.7V62.4h-4.7V60.1z"/>
		<path class="st0" d="M187,76.5V60.1h5.7c5.3,0,6.6,2.8,6.6,8c0,5.2-1.2,8.5-6.6,8.5H187z M192.7,62.4h-3v11.8h3
			c3.3,0,3.8-2.6,3.8-6.2C196.5,64.4,196,62.4,192.7,62.4z"/>
		<path class="st0" d="M202.4,60.1h10.4v2.3h-7.7v4.7h6.3v2.3h-6.3v4.8h7.7v2.4h-10.4V60.1z"/>
		<path class="st0" d="M225.4,62.5c0,0-3.4-0.4-4.8-0.4c-2,0-3.1,0.7-3.1,2.1c0,1.5,0.9,1.9,3.7,2.7c3.5,1,4.7,1.9,4.7,4.7
			c0,3.6-2.3,5.2-5.5,5.2c-2.1,0-5.4-0.6-5.4-0.6l0.3-2.1c0,0,3.2,0.4,5,0.4c2,0,3-0.9,3-2.6c0-1.4-0.7-1.9-3.3-2.5
			c-3.6-0.9-5.1-2-5.1-4.9c0-3.3,2.2-4.7,5.5-4.7c2.1,0,5.2,0.6,5.2,0.6L225.4,62.5z"/>
		<path class="st0" d="M228.8,60.1h2.7v16.5h-2.7V60.1z"/>
		<path class="st0" d="M242,67.9h4.7v8.4c-0.2,0-3.5,0.6-5.5,0.6c-5.2,0-6.6-3-6.6-8.5c0-5.8,1.6-8.5,6.5-8.5c2.5,0,5.6,0.7,5.6,0.7
			l-0.1,2.1c0,0-2.9-0.4-5.1-0.4c-3.3,0-4.1,1.5-4.1,6.1c0,4.5,0.7,6.2,4.1,6.2c1.1,0,2.3-0.1,2.6-0.2v-4h-2V67.9z"/>
		<path class="st0" d="M250.1,60.1h4.7l5,14.1h0.4V60.1h2.7v16.5h-4.6l-5.1-14.2h-0.3v14.2h-2.7V60.1z"/>
	</g>
	<g>
		<path class="st0" d="M5,87.7h7.7v0.5H9.1v10.2H8.5V88.2H5V87.7z"/>
		<path class="st0" d="M19.3,98.4h-0.6v-4.6l-3.5-6.1h0.6l3.1,5.5l3.1-5.5h0.6l-3.5,6.1V98.4z"/>
		<path class="st0" d="M27.2,94.5v3.9h-0.6V87.7h3.9c2.2,0,3.2,1.1,3.2,3.3c0,2.2-0.9,3.5-3.2,3.5H27.2z M30.6,94
			c1.9,0,2.6-1.1,2.6-3c0-1.9-0.7-2.8-2.6-2.8h-3.4V94H30.6z"/>
		<path class="st0" d="M37.5,93.1c0-3.5,0.8-5.5,4.1-5.5s4.1,2,4.1,5.5c0,3.7-0.8,5.5-4.1,5.5C38.3,98.6,37.5,96.7,37.5,93.1z
			 M45.2,93.1c0-3.2-0.6-5-3.5-5c-2.9,0-3.5,1.8-3.5,5c0,3.2,0.6,4.9,3.5,4.9C44.6,98,45.2,96.5,45.2,93.1z"/>
		<path class="st0" d="M54.4,93.1h2.8v5.1c-0.6,0.1-2.4,0.4-3.4,0.4c-3.2,0-4-2.1-4-5.5c0-3.3,0.8-5.5,4-5.5c1.6,0,3.4,0.4,3.4,0.4
			l0,0.5c0,0-1.9-0.4-3.3-0.4c-2.9,0-3.4,2-3.4,5c0,3.1,0.6,4.9,3.4,4.9c0.9,0,2.1-0.2,2.8-0.3v-4.1h-2.3V93.1z"/>
		<path class="st0" d="M62.5,94v4.4H62V87.7h3.8c2.1,0,3.2,0.9,3.2,3.1c0,1.7-0.6,2.8-2.2,3.1l2.4,4.5h-0.6L66.2,94H62.5z
			 M65.8,88.2h-3.3v5.2h3.3c1.9,0,2.6-1.1,2.6-2.7C68.4,89,67.6,88.2,65.8,88.2z"/>
		<path class="st0" d="M75.8,87.7h1.6l3.3,10.7h-0.6l-1-3.3H74l-1,3.3h-0.6L75.8,87.7z M74.2,94.6H79l-2-6.4h-0.9L74.2,94.6z"/>
		<path class="st0" d="M85.3,94.5v3.9h-0.6V87.7h3.9c2.2,0,3.2,1.1,3.2,3.3c0,2.2-1,3.5-3.2,3.5H85.3z M88.6,94c1.9,0,2.6-1.1,2.6-3
			c0-1.9-0.7-2.8-2.6-2.8h-3.4V94H88.6z"/>
		<path class="st0" d="M103,93.3h-6.4v5.1H96V87.7h0.6v5.1h6.4v-5.1h0.6v10.7H103V93.3z"/>
		<path class="st0" d="M111.4,98.4h-0.6v-4.6l-3.5-6.1h0.6l3.1,5.5l3.1-5.5h0.6l-3.5,6.1V98.4z"/>
	</g>
	<g>
		<path class="st0" d="M5.6,102.8H7l1.9,5.8l1.9-5.8h1.4v6.8h-0.8v-6h-0.1l-2,5.8H8.5l-2-5.8H6.4v6H5.6V102.8z"/>
		<path class="st0" d="M16.1,102.8h1.7l1.9,6.8h-0.7l-0.5-1.8h-2.9l-0.5,1.8h-0.7L16.1,102.8z M15.7,107.2h2.6l-1-3.7h-0.5
			L15.7,107.2z"/>
		<path class="st0" d="M25.7,109.5c-0.5,0.1-1.2,0.2-1.9,0.2c-2,0-2.5-1.2-2.5-3.5c0-2.3,0.4-3.5,2.5-3.5c0.7,0,1.4,0.1,1.9,0.2
			l0,0.6c-0.4-0.1-1.2-0.2-1.8-0.2c-1.5,0-1.8,0.9-1.8,2.8c0,1.9,0.2,2.8,1.8,2.8c0.6,0,1.3-0.1,1.8-0.2L25.7,109.5z"/>
		<path class="st0" d="M30.8,106.2c0-2.2,0.6-3.5,2.7-3.5c2.1,0,2.7,1.3,2.7,3.5c0,2.3-0.6,3.5-2.7,3.5S30.8,108.5,30.8,106.2z
			 M35.4,106.2c0-1.8-0.4-2.9-1.9-2.9c-1.6,0-1.9,1-1.9,2.9c0,1.9,0.3,2.8,1.9,2.8C35.1,109,35.4,108.1,35.4,106.2z"/>
		<path class="st0" d="M42.4,103.5c0,0-1.4-0.2-1.9-0.2c-1,0-1.5,0.3-1.5,1.1c0,0.9,0.5,1,1.7,1.3c1.4,0.3,2,0.6,2,1.8
			c0,1.5-0.8,2.1-2.2,2.1c-0.8,0-2.2-0.2-2.2-0.2l0.1-0.6c0,0,1.3,0.2,2,0.2c1,0,1.5-0.4,1.5-1.4c0-0.8-0.4-1-1.5-1.2
			c-1.4-0.3-2.1-0.6-2.1-1.9c0-1.3,0.9-1.8,2.2-1.8c0.8,0,2.1,0.2,2.1,0.2L42.4,103.5z"/>
	</g>
	<g>
		<path class="st0" d="M50.6,102.8h4.1v0.7h-3.3v2.7h2.8v0.7h-2.8v2.8h-0.8V102.8z"/>
		<path class="st0" d="M61,107v2.6h-0.8v-6.8h2.5c1.4,0,2.2,0.6,2.2,2.1c0,1-0.4,1.7-1.3,2l1.3,2.8h-0.8l-1.2-2.6H61z M62.8,103.4
			H61v2.9h1.8c1,0,1.4-0.6,1.4-1.5C64.2,103.9,63.7,103.4,62.8,103.4z"/>
		<path class="st0" d="M70.7,102.8h0.8v6.8h-0.8V102.8z"/>
		<path class="st0" d="M77.6,102.8h4.1v0.7h-3.4v2.4h2.8v0.7h-2.8v2.5h3.4v0.7h-4.1V102.8z"/>
		<path class="st0" d="M87.5,102.8h1.4l2.6,6.1h0.2v-6.1h0.7v6.8h-1.4l-2.7-6.1h-0.2v6.1h-0.8V102.8z"/>
		<path class="st0" d="M98.6,109.6v-6.8h2.4c2,0,2.5,1.4,2.5,3.3c0,2-0.5,3.5-2.5,3.5H98.6z M101,103.4h-1.7v5.5h1.7
			c1.4,0,1.7-1.4,1.7-2.8C102.7,104.6,102.4,103.4,101,103.4z"/>
		<path class="st0" d="M113.2,103.5c0,0-1.4-0.2-1.9-0.2c-1,0-1.5,0.3-1.5,1.1c0,0.9,0.5,1,1.7,1.3c1.4,0.3,2,0.6,2,1.8
			c0,1.5-0.8,2.1-2.2,2.1c-0.8,0-2.2-0.2-2.2-0.2l0.1-0.6c0,0,1.3,0.2,2,0.2c1,0,1.5-0.4,1.5-1.4c0-0.8-0.4-1-1.5-1.2
			c-1.4-0.3-2.1-0.6-2.1-1.9c0-1.3,0.9-1.8,2.2-1.8c0.8,0,2.1,0.2,2.1,0.2L113.2,103.5z"/>
	</g>
	<g>
		<path class="st0" d="M124,85.9h4.8v23.8H124V85.9z"/>
		<path class="st0" d="M134,109.7V85.9h8c8.3,0,10.1,3.5,10.1,11.4c0,8.1-1.6,12.4-10.1,12.4H134z M142,90.1h-3.2v15.4h3.2
			c4.7,0,5.1-2.9,5.1-8.2C147.2,92.2,146.7,90.1,142,90.1z"/>
		<path class="st0" d="M156.3,85.9h15.4v4.2h-10.6v5.6h8.5v4.1h-8.5v5.7h10.6v4.2h-15.4V85.9z"/>
		<path class="st0" d="M175.7,85.9h8.2l5.7,19.6h0.4V85.9h4.8v23.8h-7.9l-6-19.6h-0.4v19.6h-4.8V85.9z"/>
		<path class="st0" d="M197.9,85.9h17.5v4.3h-6.3v19.5h-4.8V90.2h-6.4V85.9z"/>
		<path class="st0" d="M218.4,85.9h4.8v23.8h-4.8V85.9z"/>
		<path class="st0" d="M226.3,85.9h17.5v4.3h-6.3v19.5h-4.8V90.2h-6.4V85.9z"/>
		<path class="st0" d="M256.5,109.7h-4.8v-9.6l-7.4-14.2h5.4l4.4,9.5l4.4-9.5h5.4l-7.3,14.2V109.7z"/>
	</g>
	<g>
		<path class="st0" d="M103,141.5h24.7v6.8h-16.8v11.4h13.8v6.8h-13.8v13.7H103V141.5z"/>
		<path class="st0" d="M131.5,161.1c0-13.1,3.9-20.3,16.1-20.3c12.2,0,16.1,7.2,16.1,20.3c0,13.1-3.9,19.8-16.1,19.8
			C135.4,180.9,131.5,174.2,131.5,161.1z M155.5,161.1c0-8.9-1.6-13.4-8-13.4c-6.4,0-8,4.5-8,13.4c0,8.9,1.6,13,8,13
			C153.9,174.1,155.5,170.1,155.5,161.1z"/>
		<path class="st0" d="M170.3,141.5h13.3l9.3,31.9h0.6v-31.9h7.9v38.7h-12.9l-9.7-31.9h-0.6v31.9h-7.9V141.5z"/>
		<path class="st0" d="M206.3,141.5h28.5v6.9h-10.2v31.8h-7.9v-31.8h-10.4V141.5z"/>
		<path class="st0" d="M262.9,148.6c0,0-8-0.9-11.3-0.9c-4.2,0-6.2,1.5-6.2,4.1c0,2.4,1.5,3.3,8,5.4c8.4,2.7,10.9,5,10.9,11.4
			c0,8.4-5.7,12.4-13.4,12.4c-5.3,0-12.9-1.8-12.9-1.8l0.8-6.1c0,0,7.6,1,11.7,1c4.2,0,6-2,6-5c0-2.4-1.4-3.5-6.9-5.1
			c-8.7-2.5-12-5.5-12-11.7c0-8,5.4-11.5,13.2-11.5c5.2,0,12.7,1.5,12.7,1.5L262.9,148.6z"/>
	</g>
	<g>
		<path class="st0" d="M13.6,131.7c-0.8,0.2-2.3,0.4-3.4,0.4c-3.7,0-4.5-2.1-4.5-6.2c0-4.3,0.9-6.2,4.5-6.2c1.2,0,2.7,0.3,3.4,0.4
			l-0.1,1.6c-0.8-0.1-2.2-0.3-3.1-0.3c-2.2,0-2.8,1.1-2.8,4.5c0,3.3,0.4,4.4,2.8,4.4c0.9,0,2.3-0.1,3-0.3L13.6,131.7z"/>
		<path class="st0" d="M16.3,125.9c0-4,1.1-6.3,4.9-6.3s4.9,2.2,4.9,6.3c0,4.1-1.1,6.1-4.9,6.1C17.5,132.1,16.3,130,16.3,125.9z
			 M24.1,125.9c0-3-0.5-4.6-2.9-4.6c-2.3,0-2.9,1.6-2.9,4.6c0,3,0.5,4.4,2.9,4.4S24.1,129,24.1,125.9z"/>
		<path class="st0" d="M29.7,131.9v-12h1.9v10.3h4.8v1.7H29.7z"/>
		<path class="st0" d="M38.6,125.9c0-4,1.1-6.3,4.9-6.3c3.7,0,4.9,2.2,4.9,6.3c0,4.1-1.1,6.1-4.9,6.1
			C39.7,132.1,38.6,130,38.6,125.9z M46.3,125.9c0-3-0.5-4.6-2.9-4.6c-2.3,0-2.9,1.6-2.9,4.6c0,3,0.5,4.4,2.9,4.4
			C45.8,130.4,46.3,129,46.3,125.9z"/>
		<path class="st0" d="M56.2,130.4c1.6,0,2.5-0.7,2.5-2.3v-8.2h2v8.1c0,2.9-1.6,4.1-4.4,4.1c-2.9,0-4.4-1.2-4.4-4.1v-8.1h2v8.2
			C53.7,129.7,54.6,130.4,56.2,130.4z"/>
		<path class="st0" d="M66.5,127.6v4.3h-1.9v-12h4.6c2.6,0,4.1,1.2,4.1,3.8c0,1.7-0.7,2.9-2,3.5l2,4.7h-2.1l-1.7-4.3H66.5z
			 M69.1,121.6h-2.6v4.4h2.6c1.5,0,2-1,2-2.2C71.2,122.3,70.5,121.6,69.1,121.6z"/>
		<path class="st0" d="M83.7,121.7c0,0-2.5-0.3-3.5-0.3c-1.5,0-2.2,0.5-2.2,1.6c0,1.1,0.6,1.4,2.7,1.9c2.5,0.7,3.4,1.4,3.4,3.4
			c0,2.6-1.6,3.8-4,3.8c-1.6,0-3.9-0.5-3.9-0.5l0.2-1.6c0,0,2.4,0.3,3.6,0.3c1.5,0,2.2-0.7,2.2-1.9c0-1-0.5-1.4-2.4-1.8
			c-2.6-0.7-3.7-1.5-3.7-3.5c0-2.4,1.6-3.4,4-3.4c1.5,0,3.8,0.4,3.8,0.4L83.7,121.7z"/>
	</g>
	<g>
		<path class="st0" d="M103.7,131.7c-0.9,0.2-2.1,0.4-3.3,0.4c-3.6,0-4.4-2.3-4.4-6.2c0-4,0.7-6.3,4.4-6.3c1.2,0,2.5,0.2,3.3,0.4
			l-0.1,0.9c-0.8-0.1-2.2-0.3-3.2-0.3c-2.9,0-3.4,1.9-3.4,5.3c0,3.4,0.5,5.2,3.4,5.2c1,0,2.3-0.2,3.1-0.3L103.7,131.7z"/>
		<path class="st0" d="M106.9,131.9v-12.2h1.1v11.2h5.6v1H106.9z"/>
		<path class="st0" d="M116.2,119.7h7.3v1h-6.2v4.5h5.2v1h-5.2v4.7h6.2v1h-7.3V119.7z"/>
		<path class="st0" d="M129.1,119.7h2.5l3.5,12.2h-1.1l-1-3.4h-5.4l-1,3.4h-1.1L129.1,119.7z M127.9,127.5h4.9l-2-6.9h-0.9
			L127.9,127.5z"/>
		<path class="st0" d="M138,119.7h2.1l5.1,11.2h0.4v-11.2h1.1v12.2h-2.1l-5.1-11.2h-0.4v11.2H138V119.7z"/>
	</g>
	<g>
		<path class="st0" d="M158.1,119.8h1.3v12.1h-1.3V119.8z"/>
		<path class="st0" d="M162.4,131.9v-12.1h1.3v10.9h5.3v1.2H162.4z"/>
		<path class="st0" d="M170.8,131.9v-12.1h1.3v10.9h5.3v1.2H170.8z"/>
		<path class="st0" d="M183,130.9c1.9,0,3-0.7,3-2.6v-8.5h1.3v8.4c0,2.8-1.5,3.9-4.3,3.9c-2.7,0-4.2-1.1-4.2-3.9v-8.4h1.3v8.5
			C180.2,130.1,181.2,130.9,183,130.9z"/>
		<path class="st0" d="M197,121c0,0-2.4-0.3-3.5-0.3c-1.7,0-2.6,0.6-2.6,2c0,1.6,0.8,1.8,3,2.3c2.4,0.5,3.5,1.1,3.5,3.3
			c0,2.7-1.5,3.7-3.9,3.7c-1.4,0-3.8-0.4-3.8-0.4l0.1-1.1c0,0,2.4,0.3,3.6,0.3c1.7,0,2.6-0.8,2.6-2.4c0-1.4-0.7-1.8-2.7-2.1
			c-2.5-0.5-3.8-1.1-3.8-3.5c0-2.3,1.5-3.3,3.9-3.3c1.4,0,3.7,0.4,3.7,0.4L197,121z"/>
		<path class="st0" d="M198.4,119.8h8.8v1.2h-3.7v10.9h-1.3V121h-3.7V119.8z"/>
		<path class="st0" d="M210.3,127.2v4.6h-1.3v-12.1h4.5c2.5,0,3.9,1.1,3.9,3.7c0,1.8-0.7,3-2.2,3.5l2.3,4.9h-1.5l-2.2-4.6H210.3z
			 M213.4,120.9h-3.1v5.1h3.2c1.8,0,2.5-1.1,2.5-2.6C215.9,121.8,215.1,120.9,213.4,120.9z"/>
		<path class="st0" d="M221.8,119.8h2.9l3.3,12.1h-1.3l-0.9-3.1h-5.2l-0.9,3.1h-1.3L221.8,119.8z M221,127.5h4.6l-1.8-6.6h-0.9
			L221,127.5z"/>
		<path class="st0" d="M227.9,119.8h8.8v1.2H233v10.9h-1.3V121h-3.7V119.8z"/>
		<path class="st0" d="M238.4,119.8h1.3v12.1h-1.3V119.8z"/>
		<path class="st0" d="M242.2,125.9c0-4,1-6.3,4.8-6.3c3.7,0,4.8,2.3,4.8,6.3c0,4.2-1,6.2-4.8,6.2
			C243.2,132,242.2,129.9,242.2,125.9z M250.4,125.9c0-3.3-0.6-5.1-3.4-5.1c-2.8,0-3.4,1.8-3.4,5.1c0,3.3,0.6,5,3.4,5
			C249.8,130.9,250.4,129.3,250.4,125.9z"/>
		<path class="st0" d="M254.3,119.8h2.5l4.6,10.9h0.4v-10.9h1.3v12.1h-2.5l-4.7-10.9h-0.3v10.9h-1.3V119.8z"/>
	</g>
	<g>
		<path class="st0" d="M8.8,144.1h1.6l3.6,12.3h-0.6l-1.1-3.8H7l-1.1,3.8H5.3L8.8,144.1z M7.2,152.1h4.9l-2.1-7.3H9.3L7.2,152.1z"/>
		<path class="st0" d="M16,156.4v-12.3h4.1c2.8,0,3.9,1.8,3.9,6c0,4.2-1,6.3-3.9,6.3H16z M20.1,144.7h-3.5v11.1h3.5
			c2.5,0,3.2-2.1,3.2-5.7C23.3,146.5,22.6,144.7,20.1,144.7z"/>
		<path class="st0" d="M33.7,144.1l-3.2,12.3h-1.9l-3.2-12.3H26l3.1,11.7H30l3-11.7H33.7z"/>
		<path class="st0" d="M35.7,144.1h6.6v0.6h-6v5.1h5v0.6h-5v5.4h6v0.6h-6.6V144.1z"/>
		<path class="st0" d="M49,151.3h-3.7v5.1h-0.6v-12.3h4c2.3,0,3.4,1.2,3.4,3.5c0,2.4-1.1,3.2-2.3,3.6l2.7,5.2h-0.7L49,151.3z
			 M48.6,144.7h-3.3v6h3.3c1.9,0,2.8-1.1,2.8-3.1C51.4,145.8,50.5,144.7,48.6,144.7z"/>
		<path class="st0" d="M53,144.1h7.9v0.6h-3.6v11.7h-0.6v-11.7H53V144.1z"/>
		<path class="st0" d="M62.6,144.1h0.6v12.3h-0.6V144.1z"/>
		<path class="st0" d="M72.3,144.8c0,0-1.9-0.3-3.1-0.3c-1.8,0-2.8,0.8-2.8,2.6c0,1.9,1.1,2.3,3,2.6c2.1,0.4,3.3,1,3.3,3.1
			c0,2.3-1.1,3.7-3.4,3.7c-1.2,0-3.5-0.3-3.5-0.3l0.1-0.6c0,0,2.2,0.3,3.4,0.3c1.9,0,2.7-1.2,2.7-3.1c0-1.7-1-2.3-2.7-2.5
			c-2.2-0.4-3.5-1-3.5-3.2c0-2.2,1.3-3.2,3.5-3.2c1.3,0,3.2,0.3,3.2,0.3L72.3,144.8z"/>
		<path class="st0" d="M75,144.1h0.6v12.3H75V144.1z"/>
		<path class="st0" d="M78.6,144.1H80l5.4,11.7h0.4v-11.7h0.6v12.3h-1.4l-5.4-11.6h-0.4v11.6h-0.6V144.1z"/>
		<path class="st0" d="M93.7,150.3h3v5.8c0,0-2.2,0.4-3.6,0.4c-3.3,0-4.3-2.9-4.3-6.2c0-3.6,0.6-6.3,4.3-6.3c1.8,0,3.6,0.4,3.6,0.4
			l-0.1,0.5c0,0-2-0.4-3.5-0.4c-3.3,0-3.6,2.5-3.6,5.8c0,2.9,0.7,5.7,3.6,5.7c1.2,0,2.9-0.4,2.9-0.4v-4.8h-2.4V150.3z"/>
	</g>
	<g>
		<path class="st0" d="M13.2,171.2H7.4v5.1H6.2V165h1.3v5.1h5.8V165h1.2v11.4h-1.2V171.2z"/>
		<path class="st0" d="M16.1,165h8.2v1.1h-3.5v10.2h-1.2v-10.2h-3.5V165z"/>
		<path class="st0" d="M25.9,165h2.3l3.2,9.6l3.2-9.6h2.3v11.4h-1.3v-10h-0.2l-3.3,9.6h-1.4l-3.3-9.6h-0.2v10h-1.3V165z"/>
		<path class="st0" d="M39.7,176.3V165h1.3v10.2h5v1.1H39.7z"/>
		<path class="st0" d="M57.7,167.3c0,1.6-0.8,2.3-2.5,3.1l2.5,2.5c0.2-0.5,0.4-1.9,0.5-2.7l1.2,0c-0.1,1.1-0.4,2.6-0.8,3.4l2.1,2
			l-0.7,0.8l-2-1.9c-0.8,1.2-2,1.9-3.5,1.9c-3.1,0-4-1.3-4-3.5c0-2,0.8-2.8,2.5-3.3c-0.8-0.9-0.9-1.5-0.9-2.4c0-1.4,1-2.4,2.9-2.4
			C56.8,164.8,57.7,165.8,57.7,167.3z M57.2,173.9l-3.5-3.4c-1.4,0.4-2,1.1-2,2.5c0,1.6,0.8,2.5,2.7,2.5
			C55.6,175.4,56.6,174.9,57.2,173.9z M54,169.2l0.5,0.5c1.4-0.6,2-1.1,2-2.3c0-1-0.5-1.5-1.6-1.5c-1,0-1.6,0.5-1.6,1.5
			C53.3,168,53.4,168.6,54,169.2z"/>
		<path class="st0" d="M72.9,176.2c-0.8,0.2-2.1,0.3-3.1,0.3c-3.4,0-4.2-2.1-4.2-5.8c0-3.8,0.7-5.9,4.2-5.9c1.2,0,2.4,0.2,3.1,0.4
			l0,1.1c-0.7-0.1-2.1-0.3-3-0.3c-2.5,0-3,1.5-3,4.7c0,3.2,0.4,4.7,3,4.7c0.9,0,2.1-0.1,2.9-0.3L72.9,176.2z"/>
		<path class="st0" d="M81.4,166.2c0,0-2.3-0.3-3.2-0.3c-1.6,0-2.5,0.6-2.5,1.9c0,1.5,0.8,1.7,2.8,2.2c2.3,0.5,3.3,1.1,3.3,3.1
			c0,2.5-1.4,3.5-3.6,3.5c-1.3,0-3.6-0.4-3.6-0.4l0.1-1.1c0,0,2.2,0.3,3.4,0.3c1.6,0,2.4-0.7,2.4-2.3c0-1.3-0.7-1.6-2.5-2
			c-2.3-0.5-3.5-1.1-3.5-3.2c0-2.2,1.4-3.1,3.7-3.1c1.3,0,3.4,0.3,3.4,0.3L81.4,166.2z"/>
		<path class="st0" d="M90.2,166.2c0,0-2.3-0.3-3.2-0.3c-1.6,0-2.5,0.6-2.5,1.9c0,1.5,0.8,1.7,2.8,2.2c2.3,0.5,3.3,1.1,3.3,3.1
			c0,2.5-1.4,3.5-3.6,3.5c-1.3,0-3.6-0.4-3.6-0.4l0.1-1.1c0,0,2.2,0.3,3.4,0.3c1.6,0,2.4-0.7,2.4-2.3c0-1.3-0.7-1.6-2.5-2
			c-2.3-0.5-3.5-1.1-3.5-3.2c0-2.2,1.4-3.1,3.7-3.1c1.3,0,3.4,0.3,3.4,0.3L90.2,166.2z"/>
	</g>
	<g>
		<path class="st0" d="M15.6,37.4h6.9v12.4c0,0-5,0.8-8.1,0.8c-7.8,0-9.7-4.3-9.7-12.3c0-8.7,2.5-12.3,9.6-12.3c3.7,0,8.3,1,8.3,1
			l-0.1,3.7c0,0-4.2-0.5-7.4-0.5c-4.1,0-5.4,1.4-5.4,8.1c0,6.3,0.9,8.1,5.2,8.1c1.4,0,2.9-0.1,2.9-0.1v-4.6h-2.2V37.4z"/>
		<path class="st0" d="M32,42.2v8h-4.8V26.4h9.2c5.4,0,8.4,2.4,8.4,7.8c0,3.3-1.3,5.5-3.5,6.9l3.4,9.1h-5.3l-2.8-8H32z M36.4,30.5
			H32v7.6h4.5c2.4,0,3.4-1.7,3.4-3.8C39.8,32,38.7,30.5,36.4,30.5z"/>
		<path class="st0" d="M51.9,26.4h9.2l5.4,23.8h-4.8l-0.9-4.3h-8.3l-0.9,4.3h-4.8L51.9,26.4z M53.2,41.7h6.5l-2.4-11.3h-1.7
			L53.2,41.7z"/>
		<path class="st0" d="M74.5,43.3v6.9h-4.8V26.4h8.8c5.6,0,8.5,2.7,8.5,8.3c0,5.5-2.9,8.6-8.5,8.6H74.5z M78.4,39.1
			c2.4,0,3.6-1.5,3.6-4.5c0-3-1.2-4.1-3.6-4.1h-3.9v8.6H78.4z"/>
		<path class="st0" d="M104,40.3h-8.9v9.9h-4.8V26.4h4.8v9.7h8.9v-9.7h4.8v23.8H104V40.3z"/>
		<path class="st0" d="M114,26.4h4.8v23.8H114V26.4z"/>
		<path class="st0" d="M139.1,49.8c-1.6,0.4-4.8,0.8-6.9,0.8c-7.4,0-9.1-4-9.1-12.3c0-9,2-12.3,9.1-12.3c2.5,0,5.5,0.6,7,0.9
			l-0.1,3.9c-1.6-0.2-4.6-0.5-6.1-0.5c-3.7,0-4.8,1.3-4.8,8.1c0,6.4,0.8,8.1,5,8.1c1.6,0,4.6-0.3,6-0.5L139.1,49.8z"/>
		<path class="st0" d="M150.7,50.2V26.4h8c8.3,0,10.1,3.5,10.1,11.4c0,8.1-1.6,12.4-10.1,12.4H150.7z M158.7,30.6h-3.2V46h3.2
			c4.7,0,5.1-2.9,5.1-8.2C163.9,32.6,163.4,30.6,158.7,30.6z"/>
		<path class="st0" d="M173,26.4h15.4v4.2h-10.6v5.6h8.5v4.1h-8.5V46h10.6v4.2H173V26.4z"/>
		<path class="st0" d="M206.7,30.7c0,0-4.9-0.6-7-0.6c-2.6,0-3.8,0.9-3.8,2.5c0,1.5,0.9,2,4.9,3.3c5.1,1.6,6.7,3.1,6.7,7
			c0,5.2-3.5,7.6-8.2,7.6c-3.3,0-7.9-1.1-7.9-1.1l0.5-3.7c0,0,4.7,0.6,7.2,0.6c2.6,0,3.7-1.2,3.7-3.1c0-1.5-0.8-2.1-4.3-3.1
			c-5.4-1.5-7.4-3.4-7.4-7.2c0-4.9,3.3-7.1,8.1-7.1c3.2,0,7.8,0.9,7.8,0.9L206.7,30.7z"/>
		<path class="st0" d="M211.5,26.4h4.8v23.8h-4.8V26.4z"/>
		<path class="st0" d="M231.4,37.4h6.9v12.4c0,0-5,0.8-8.1,0.8c-7.8,0-9.7-4.3-9.7-12.3c0-8.7,2.5-12.3,9.6-12.3c3.7,0,8.3,1,8.3,1
			l-0.1,3.7c0,0-4.2-0.5-7.4-0.5c-4.1,0-5.4,1.4-5.4,8.1c0,6.3,0.9,8.1,5.2,8.1c1.4,0,2.9-0.1,2.9-0.1v-4.6h-2.2V37.4z"/>
		<path class="st0" d="M242.9,26.4h8.2l5.7,19.6h0.4V26.4h4.8v23.8H254l-6-19.6h-0.4v19.6h-4.8V26.4z"/>
	</g>
</g>
</svg>
