<svg xmlns="http://www.w3.org/2000/svg" viewBox="0 0 29.21 29.21"><defs><style>.a{fill:#b3b3b3;fill-rule:evenodd;}</style></defs><title>drib_1</title><path class="a" d="M10.48,20.59a7.19,7.19,0,0,0,4.12,1.29,7.31,7.31,0,0,0,2.2-.38,22.41,22.41,0,0,0-1-5,11.08,11.08,0,0,0-5.36,4.1Z"/><path class="a" d="M15.29,15c-.17-.44-.35-.86-.56-1.29A12.74,12.74,0,0,1,9.58,14.8a17.09,17.09,0,0,1-2.25-.2,7.22,7.22,0,0,0,1.93,4.91,12.77,12.77,0,0,1,6-4.53Z"/><path class="a" d="M18.63,8.54a7.24,7.24,0,0,0-4-1.21,7,7,0,0,0-1.9.28,24,24,0,0,1,2.74,3.9,11.38,11.38,0,0,0,3.19-3Z"/><path class="a" d="M14,12.24a21.92,21.92,0,0,0-2.87-4A7.26,7.26,0,0,0,7.53,13,11.1,11.1,0,0,0,14,12.24Z"/><path class="a" d="M17.39,16.05a23.36,23.36,0,0,1,1,4.76,7.29,7.29,0,0,0,3.38-4.75,11.12,11.12,0,0,0-4.34,0Z"/><path class="a" d="M16.17,13c.25.51.47,1,.67,1.56a12.89,12.89,0,0,1,5-.07,7.32,7.32,0,0,0-2-4.84A13.08,13.08,0,0,1,16.17,13Z"/><path class="a" d="M0,1.46V27.75a1.46,1.46,0,0,0,1.46,1.46H27.75a1.47,1.47,0,0,0,1.46-1.46V1.46A1.46,1.46,0,0,0,27.75,0H1.46A1.46,1.46,0,0,0,0,1.46Zm14.6,22a8.9,8.9,0,1,1,8.9-8.9,8.9,8.9,0,0,1-8.9,8.9Z"/></svg>