<svg xmlns="http://www.w3.org/2000/svg" viewBox="0 0 72 91.64"><defs><style>.a{fill:#050505;}.b{fill:#fff;}</style></defs><title>header-logo</title><path class="a" d="M0,0H72a0,0,0,0,1,0,0V87.64a4,4,0,0,1-4,4H4a4,4,0,0,1-4-4V0A0,0,0,0,1,0,0Z"/><path class="b" d="M49.82,49.68C49.2,48.61,43.37,38.6,41,34.4A5.24,5.24,0,1,1,50,29a19.25,19.25,0,0,1,2.62,7.88,20.49,20.49,0,0,1-1.91,11.27C50.45,48.59,50.2,49,49.82,49.68Z"/><path class="b" d="M32.39,44.17c-.61,1.08-6.34,11.15-8.77,15.33a5.24,5.24,0,1,1-9.18-5,19.24,19.24,0,0,1,5.5-6.23,20.43,20.43,0,0,1,10.7-4C31.13,44.18,31.62,44.19,32.39,44.17Z"/><path class="b" d="M36.45,62.13c1.24,0,12.83-.12,17.66-.12a5.24,5.24,0,1,1,.25,10.47,19.2,19.2,0,0,1-8.15-1.63,20.32,20.32,0,0,1-8.84-7.23C37.09,63.22,36.85,62.78,36.45,62.13Z"/><path class="b" d="M34.36,54.39l4.9-8.49a.34.34,0,0,1,.59,0c1.67,2.89,3.25,5.62,4.9,8.49a.34.34,0,0,1-.3.51H34.66A.34.34,0,0,1,34.36,54.39Z"/></svg>