<?xml version="1.0" encoding="utf-8"?>
<!-- Generator: Adobe Illustrator 23.0.3, SVG Export Plug-In . SVG Version: 6.00 Build 0)  -->
<svg version="1.1" id="Layer_1" xmlns="http://www.w3.org/2000/svg" xmlns:xlink="http://www.w3.org/1999/xlink" x="0px" y="0px"
	 viewBox="0 0 100 100" style="enable-background:new 0 0 100 100;" xml:space="preserve">
<style type="text/css">
	.st0{fill:#FFFFFF;}
</style>
<path class="st0" d="M89.19,4h-78.4C7.04,4,4,6.97,4,10.63v78.73C4,93.03,7.04,96,10.78,96h78.4c3.75,0,6.82-2.97,6.82-6.64V10.63
	C96,6.97,92.94,4,89.19,4z M67,27.59h-6.13c-4.84,0-5.78,2.3-5.78,5.68v7.44h11.57L65.15,52.4H55.09v29.85H43.03V52.4H33V40.71
	h10.03v-8.6c0-9.97,6.09-15.4,14.98-15.4c4.26,0,7.92,0.32,8.99,0.46V27.59z"/>
</svg>
