<?xml version="1.0" encoding="utf-8"?>
<!-- Generator: Adobe Illustrator 23.0.3, SVG Export Plug-In . SVG Version: 6.00 Build 0)  -->
<svg version="1.1" id="Layer_1" xmlns="http://www.w3.org/2000/svg" xmlns:xlink="http://www.w3.org/1999/xlink" x="0px" y="0px"
	 viewBox="0 0 100 100" style="enable-background:new 0 0 100 100;" xml:space="preserve">
<style type="text/css">
	.st0{fill:#FFFFFF;}
</style>
<g>
	<g>
		<g>
			<path class="st0" d="M89.19,4h-78.4C7.04,4,4,6.97,4,10.63v78.73C4,93.03,7.04,96,10.78,96h78.4c3.75,0,6.82-2.97,6.82-6.64
				V10.63C96,6.97,92.94,4,89.19,4z M31.29,82.39H17.63v-43.9h13.66V82.39z M24.47,32.49c-4.38,0-7.92-3.54-7.92-7.91
				c0-4.36,3.53-7.91,7.92-7.91c4.36,0,7.91,3.55,7.91,7.91C32.37,28.94,28.83,32.49,24.47,32.49z M82.39,82.39H68.76V61.05
				c0-5.09-0.1-11.64-7.09-11.64c-7.1,0-8.19,5.55-8.19,11.27v21.72H39.85v-43.9h13.08v6h0.19c1.82-3.45,6.27-7.09,12.91-7.09
				c13.81,0,16.36,9.09,16.36,20.91V82.39z"/>
		</g>
	</g>
</g>
</svg>
