<?xml version="1.0" encoding="utf-8"?>
<!-- Generator: Adobe Illustrator 23.0.3, SVG Export Plug-In . SVG Version: 6.00 Build 0)  -->
<svg version="1.1" id="Layer_1" xmlns="http://www.w3.org/2000/svg" xmlns:xlink="http://www.w3.org/1999/xlink" x="0px" y="0px"
	 viewBox="0 0 100 100" style="enable-background:new 0 0 100 100;" xml:space="preserve">
<style type="text/css">
	.st0{fill:#FFFFFF;}
</style>
<g>
	<path class="st0" d="M75.64,30.06c-0.6-1.54-1.31-2.63-2.46-3.78c-1.15-1.15-2.25-1.86-3.78-2.46c-1.16-0.45-2.9-0.99-6.11-1.13
		c-3.47-0.16-4.51-0.19-13.29-0.19s-9.82,0.03-13.29,0.19c-3.21,0.15-4.95,0.68-6.11,1.13c-1.54,0.6-2.63,1.31-3.78,2.46
		c-1.15,1.15-1.86,2.25-2.46,3.78c-0.45,1.16-0.99,2.9-1.13,6.11c-0.16,3.47-0.19,4.51-0.19,13.29s0.03,9.82,0.19,13.29
		c0.15,3.21,0.68,4.95,1.13,6.11c0.6,1.54,1.31,2.63,2.46,3.78c1.15,1.15,2.25,1.86,3.78,2.46c1.16,0.45,2.9,0.99,6.11,1.13
		c3.47,0.16,4.51,0.19,13.29,0.19s9.82-0.03,13.29-0.19c3.21-0.15,4.95-0.68,6.11-1.13c1.54-0.6,2.63-1.31,3.78-2.46
		c1.15-1.15,1.86-2.25,2.46-3.78c0.45-1.16,0.99-2.9,1.13-6.11c0.16-3.47,0.19-4.51,0.19-13.29s-0.03-9.82-0.19-13.29
		C76.63,32.96,76.09,31.22,75.64,30.06z M50,66.35c-9.33,0-16.89-7.56-16.89-16.89S40.67,32.57,50,32.57s16.89,7.56,16.89,16.89
		S59.33,66.35,50,66.35z M67.56,35.85c-2.18,0-3.95-1.77-3.95-3.95s1.77-3.95,3.95-3.95s3.95,1.77,3.95,3.95
		S69.74,35.85,67.56,35.85z"/>
	<circle class="st0" cx="50" cy="49.46" r="10.96"/>
	<path class="st0" d="M89.19,4h-78.4C7.04,4,4,6.97,4,10.63v78.73C4,93.03,7.04,96,10.78,96h78.4c3.75,0,6.82-2.97,6.82-6.64V10.63
		C96,6.97,92.94,4,89.19,4z M82.7,63.02c-0.16,3.5-0.72,5.89-1.53,7.98c-0.84,2.16-1.97,4-3.79,5.83s-3.66,2.95-5.83,3.79
		c-2.09,0.81-4.48,1.37-7.98,1.53c-3.51,0.16-4.63,0.2-13.56,0.2s-10.05-0.04-13.56-0.2c-3.5-0.16-5.89-0.72-7.98-1.53
		c-2.16-0.84-4-1.97-5.83-3.79s-2.95-3.66-3.79-5.83c-0.81-2.09-1.37-4.48-1.53-7.98c-0.16-3.51-0.2-4.63-0.2-13.56
		c0-8.93,0.04-10.05,0.2-13.56c0.16-3.5,0.72-5.89,1.53-7.98c0.84-2.16,1.97-4,3.79-5.83c1.83-1.83,3.66-2.95,5.83-3.79
		c2.09-0.81,4.48-1.37,7.98-1.53c3.51-0.16,4.63-0.2,13.56-0.2s10.05,0.04,13.56,0.2c3.5,0.16,5.89,0.72,7.98,1.53
		c2.16,0.84,4,1.97,5.83,3.79c1.83,1.83,2.95,3.66,3.79,5.83c0.81,2.09,1.37,4.48,1.53,7.98c0.16,3.51,0.2,4.63,0.2,13.56
		S82.86,59.51,82.7,63.02z"/>
</g>
</svg>
