<svg xmlns="http://www.w3.org/2000/svg" viewBox="0 0 29.16 29.16"><defs><style>.a{fill:#b3b3b3;}</style></defs><title>insta_1</title><path class="a" d="M14.58,11.68a2.9,2.9,0,1,0,2.9,2.9,2.9,2.9,0,0,0-2.9-2.9Zm0,0a2.9,2.9,0,1,0,2.9,2.9,2.9,2.9,0,0,0-2.9-2.9ZM19.41,7H9.75A2.81,2.81,0,0,0,7,9.75v9.66a2.8,2.8,0,0,0,2.8,2.79h9.66a2.79,2.79,0,0,0,2.79-2.79V9.75A2.8,2.8,0,0,0,19.41,7ZM14.58,19.6a5,5,0,1,1,5-5,5,5,0,0,1-5,5Zm5.18-9A1.19,1.19,0,1,1,21,9.41a1.18,1.18,0,0,1-1.19,1.18Zm-5.18,1.09a2.9,2.9,0,1,0,2.9,2.9,2.9,2.9,0,0,0-2.9-2.9ZM19.41,7H9.75A2.81,2.81,0,0,0,7,9.75v9.66a2.8,2.8,0,0,0,2.8,2.79h9.66a2.79,2.79,0,0,0,2.79-2.79V9.75A2.8,2.8,0,0,0,19.41,7ZM14.58,19.6a5,5,0,1,1,5-5,5,5,0,0,1-5,5Zm5.18-9A1.19,1.19,0,1,1,21,9.41a1.18,1.18,0,0,1-1.19,1.18Zm-5.18,1.09a2.9,2.9,0,1,0,2.9,2.9,2.9,2.9,0,0,0-2.9-2.9ZM0,1.46V27.7a1.46,1.46,0,0,0,1.46,1.46H27.7a1.47,1.47,0,0,0,1.46-1.46V1.46A1.46,1.46,0,0,0,27.7,0H1.46A1.46,1.46,0,0,0,0,1.46Zm24.33,18a4.93,4.93,0,0,1-4.92,4.92H9.75a4.93,4.93,0,0,1-4.92-4.92V9.75A4.93,4.93,0,0,1,9.75,4.83h9.66a4.93,4.93,0,0,1,4.92,4.92ZM19.41,7H9.75A2.81,2.81,0,0,0,7,9.75v9.66a2.8,2.8,0,0,0,2.8,2.79h9.66a2.79,2.79,0,0,0,2.79-2.79V9.75A2.8,2.8,0,0,0,19.41,7ZM14.58,19.6a5,5,0,1,1,5-5,5,5,0,0,1-5,5Zm5.18-9A1.19,1.19,0,1,1,21,9.41a1.18,1.18,0,0,1-1.19,1.18Zm-5.18,1.09a2.9,2.9,0,1,0,2.9,2.9,2.9,2.9,0,0,0-2.9-2.9Zm0,0a2.9,2.9,0,1,0,2.9,2.9,2.9,2.9,0,0,0-2.9-2.9Zm0,0a2.9,2.9,0,1,0,2.9,2.9,2.9,2.9,0,0,0-2.9-2.9ZM19.41,7H9.75A2.81,2.81,0,0,0,7,9.75v9.66a2.8,2.8,0,0,0,2.8,2.79h9.66a2.79,2.79,0,0,0,2.79-2.79V9.75A2.8,2.8,0,0,0,19.41,7ZM14.58,19.6a5,5,0,1,1,5-5,5,5,0,0,1-5,5Zm5.18-9A1.19,1.19,0,1,1,21,9.41a1.18,1.18,0,0,1-1.19,1.18Zm-5.18,1.09a2.9,2.9,0,1,0,2.9,2.9,2.9,2.9,0,0,0-2.9-2.9Zm0,0a2.9,2.9,0,1,0,2.9,2.9,2.9,2.9,0,0,0-2.9-2.9Zm0,0a2.9,2.9,0,1,0,2.9,2.9,2.9,2.9,0,0,0-2.9-2.9ZM19.41,7H9.75A2.81,2.81,0,0,0,7,9.75v9.66a2.8,2.8,0,0,0,2.8,2.79h9.66a2.79,2.79,0,0,0,2.79-2.79V9.75A2.8,2.8,0,0,0,19.41,7ZM14.58,19.6a5,5,0,1,1,5-5,5,5,0,0,1-5,5Zm5.18-9A1.19,1.19,0,1,1,21,9.41a1.18,1.18,0,0,1-1.19,1.18Zm-5.18,1.09a2.9,2.9,0,1,0,2.9,2.9,2.9,2.9,0,0,0-2.9-2.9Z"/></svg>