<svg xmlns="http://www.w3.org/2000/svg" viewBox="0 0 29.21 29.21"><defs><style>.a{fill:#b3b3b3;}</style></defs><title>link</title><path class="a" d="M27.31,0H1.9A1.9,1.9,0,0,0,0,1.9V27.31a1.9,1.9,0,0,0,1.9,1.9H27.31a1.9,1.9,0,0,0,1.9-1.9V1.9A1.9,1.9,0,0,0,27.31,0ZM9,12.63V24.09A1.9,1.9,0,0,1,7.14,26h-1a1.9,1.9,0,0,1-1.9-1.9V12.63a1.9,1.9,0,0,1,1.9-1.9h1A1.9,1.9,0,0,1,9,12.63ZM8.61,8.82A3.19,3.19,0,0,1,4.15,4.35a1.62,1.62,0,0,1,.5-.51A3.19,3.19,0,0,1,9.12,8.31,1.77,1.77,0,0,1,8.61,8.82ZM26.14,25.28a.71.71,0,0,1-.71.71H23.12a1.9,1.9,0,0,1-1.9-1.9V18.85c0-1,.28-4.21-2.51-4.21-2.17,0-2.61,2.22-2.69,3.22v6.23a1.91,1.91,0,0,1-1.9,1.9h-1a1.91,1.91,0,0,1-1.9-1.9V12.63a1.91,1.91,0,0,1,1.9-1.9h1a1.91,1.91,0,0,1,1.9,1.9h0c.8-1.2,2-2.13,4.53-2.13,5.62,0,5.59,5.25,5.59,8.14v6.64Z"/></svg>