<svg id="Group_6" data-name="Group 6" xmlns="http://www.w3.org/2000/svg" width="100" height="142.996" viewBox="0 0 100 142.996">
  <path id="Path_1" data-name="Path 1" d="M94.444,143H5.556C2.5,143,0,140.186,0,136.752V0H100V136.752C100,140.186,97.5,143,94.444,143Z"/>
  <g id="Group_5" data-name="Group 5" transform="translate(19.68 59.883)">
    <g id="Group_1" data-name="Group 1" transform="translate(36.106)">
      <path id="Path_2" data-name="Path 2" d="M53.257,58.115c-.816-1.5-8.709-15.1-11.974-20.819-2.177-3.946-.952-8.3,2.994-10.205a7.063,7.063,0,0,1,9.253,2.857A25.126,25.126,0,0,1,57.067,40.7a28.623,28.623,0,0,1-2.585,15.376C54.21,56.618,53.8,57.163,53.257,58.115Z" transform="translate(-40.215 -26.371)" fill="#fff"/>
    </g>
    <g id="Group_2" data-name="Group 2" transform="translate(0 24.26)">
      <path id="Path_3" data-name="Path 3" d="M39.152,44.2c-.816,1.5-8.572,15.1-11.974,20.819A7.24,7.24,0,0,1,16.837,67.6a6.948,6.948,0,0,1-2.177-9.389,24.845,24.845,0,0,1,7.484-8.436A28.033,28.033,0,0,1,36.7,44.336,12.5,12.5,0,0,1,39.152,44.2Z" transform="translate(-13.68 -44.2)" fill="#fff"/>
    </g>
    <g id="Group_3" data-name="Group 3" transform="translate(31.051 48.481)">
      <path id="Path_4" data-name="Path 4" d="M36.5,62.136c1.633,0,17.417-.136,24.085-.136a7.067,7.067,0,0,1,7.348,7.62,7.237,7.237,0,0,1-7.076,6.667A25.343,25.343,0,0,1,49.835,74.11a28.137,28.137,0,0,1-11.974-9.8A15.19,15.19,0,0,1,36.5,62.136Z" transform="translate(-36.5 -62)" fill="#fff"/>
    </g>
    <g id="Group_4" data-name="Group 4" transform="translate(28.084 26.369)">
      <path id="Path_5" data-name="Path 5" d="M34.429,57.52c2.177-3.946,4.354-7.62,6.667-11.566a.51.51,0,0,1,.816,0c2.313,3.946,4.354,7.62,6.667,11.566a.459.459,0,0,1-.408.68H34.837C34.429,58.2,34.157,57.792,34.429,57.52Z" transform="translate(-34.319 -45.75)" fill="#fff"/>
    </g>
  </g>
</svg>
