<?xml version="1.0" encoding="utf-8"?>
<!-- Generator: Adobe Illustrator 22.1.0, SVG Export Plug-In . SVG Version: 6.00 Build 0)  -->
<svg version="1.1" xmlns="http://www.w3.org/2000/svg" xmlns:xlink="http://www.w3.org/1999/xlink" x="0px" y="0px"
	 viewBox="0 0 1366 768" style="enable-background:new 0 0 1366 768;" xml:space="preserve">
<style type="text/css">
	.st0{fill:#1A1A1A;}
</style>
<g id="middle">
	<path class="st0" d="M664.9,426.8c13.7-23.8,26.9-46.6,40.9-70.9c1.9-3.3,6.7-3.3,8.6,0c13.9,24.1,27.1,47,40.9,70.9
		c1.9,3.3-0.5,7.5-4.3,7.5h-81.8C665.3,434.3,662.9,430.2,664.9,426.8z"/>
</g>
<g id="down">
	<path class="st0" d="M682.1,498.8c4.8-0.4,7.3-0.8,9.9-0.8c50,0,100.1-0.2,150.1,0c22.1,0.1,39.9,13.9,45.8,34.8
		c5.7,19.9-2.4,40.7-19.9,52.3c-13.7,9.2-29.1,8.4-44,6.6c-57.7-6.8-103.3-34-135.9-82.4C686.2,506.4,684.7,503.4,682.1,498.8z"/>
</g>
<g id="left">
	<path class="st0" d="M645.2,337.3c-2,4.6-2.7,7-4,9.1c-25.2,43.6-50.3,87.3-75.7,130.7c-10.2,17.4-29.2,26.4-47.4,23.4
		c-20-3.2-34.8-17.3-39.6-37.5c-3-12.4-0.4-23.9,6.1-34.4c33.2-53.9,81.1-84.4,144.4-90.2C633.6,338.2,638.4,337.9,645.2,337.3z"/>
</g>
<g id="right-up">
	<path class="st0" d="M802.7,387.2c-5.7-9.6-10.1-17-14.4-24.5c-21.8-37.7-43.8-75.4-65.3-113.3c-14.7-25.8-6-55.2,19.5-67.6
		c22.2-10.8,48.3-3,61.4,18.9c13.1,21.9,20.9,45.8,23.6,71.1c3.7,35.3-1.6,69.4-17.2,101.6C808.4,377.4,806,381.2,802.7,387.2z"/>
</g>
</svg>
