<svg xmlns="http://www.w3.org/2000/svg" viewBox="0 0 288.96 290.81"><defs><style>.a{fill:#050505;}</style></defs><title>logo2</title><path class="a" d="M227.53,147c-4-6.75-40.67-69.9-55.75-96.4-10.26-18-4.16-38.58,13.65-47.24,15.54-7.56,33.8-2.12,43,13.2a120.93,120.93,0,0,1,16.51,49.73c2.62,24.71-1.12,48.54-12,71C231.51,140.14,229.88,142.79,227.53,147Z"/><path class="a" d="M117.56,112.27c-3.83,6.82-40,70.31-55.28,96.67-10.42,17.94-31.25,23-47.7,12C.24,211.27-4.25,192.75,4.39,177.12a120.91,120.91,0,0,1,34.67-39.27c20-14.7,42.52-23.45,67.46-25.33C109.61,112.29,112.73,112.37,117.56,112.27Z"/><path class="a" d="M143.22,225.52c7.82-.11,80.86-.78,111.35-.78,20.75,0,35.59,15.46,34.31,35.23-1.11,17.24-14.87,30.43-32.73,30.81a121,121,0,0,1-51.38-10.24c-22.78-10-41.64-25-55.79-45.6C147.23,232.38,145.73,229.65,143.22,225.52Z"/><path class="a" d="M130,176.72l30.89-53.58a2.15,2.15,0,0,1,3.73,0l30.9,53.59a2.15,2.15,0,0,1-1.86,3.23h-61.8A2.15,2.15,0,0,1,130,176.72Z"/></svg>