<svg xmlns="http://www.w3.org/2000/svg" viewBox="0 0 32.41 28.58"><defs><style>.a{fill:#050505;}</style></defs><title>quote</title><path class="a" d="M13,5.67a1.55,1.55,0,0,0,.78-2.09L12.52.89a1.56,1.56,0,0,0-2-.76A17.91,17.91,0,0,0,4.84,3.79a13.64,13.64,0,0,0-3.79,6A32.81,32.81,0,0,0,0,19v8a1.58,1.58,0,0,0,1.57,1.57H11.84A1.57,1.57,0,0,0,13.41,27V16.73a1.57,1.57,0,0,0-1.57-1.57H6.93A11,11,0,0,1,8.76,8.81,9.92,9.92,0,0,1,13,5.67Z"/><path class="a" d="M31.48,5.67a1.55,1.55,0,0,0,.78-2.09L31,.92a1.56,1.56,0,0,0-2-.76,18.9,18.9,0,0,0-5.62,3.63,13.92,13.92,0,0,0-3.82,6,32.31,32.31,0,0,0-1,9.17v8a1.58,1.58,0,0,0,1.57,1.57H30.33A1.58,1.58,0,0,0,31.9,27V16.73a1.58,1.58,0,0,0-1.57-1.57H25.39a11,11,0,0,1,1.83-6.35,9.92,9.92,0,0,1,4.26-3.14Z"/></svg>